<svg width="690" height="71" viewBox="0 0 690 71" fill="none" xmlns="http://www.w3.org/2000/svg">
<path d="M0 19.5C0 17.567 1.567 16 3.5 16H686.5C688.433 16 690 17.567 690 19.5C690 21.433 688.433 23 686.5 23H3.50001C1.56701 23 0 21.433 0 19.5Z" fill="#0071E3"/>
<circle cx="344.5" cy="19.5" r="19.5" fill="#0071E3"/>
<path d="M306.521 51.4545H309.745L314.063 61.9943H314.234L318.552 51.4545H321.776V66H319.248V56.0071H319.113L315.093 65.9574H313.204L309.184 55.9858H309.049V66H306.521V51.4545ZM327.671 66.2202C326.98 66.2202 326.357 66.0971 325.803 65.8509C325.254 65.5999 324.818 65.2306 324.496 64.7429C324.179 64.2552 324.021 63.6539 324.021 62.9389C324.021 62.3234 324.134 61.8144 324.362 61.4119C324.589 61.0095 324.899 60.6875 325.292 60.446C325.685 60.2045 326.128 60.0223 326.62 59.8991C327.117 59.7713 327.631 59.679 328.161 59.6222C328.8 59.5559 329.319 59.4967 329.717 59.4446C330.114 59.3878 330.403 59.3026 330.583 59.1889C330.768 59.0705 330.86 58.8883 330.86 58.642V58.5994C330.86 58.0644 330.701 57.6501 330.384 57.3565C330.067 57.063 329.61 56.9162 329.013 56.9162C328.384 56.9162 327.884 57.0535 327.515 57.3281C327.15 57.6027 326.904 57.9271 326.776 58.3011L324.376 57.9602C324.565 57.2973 324.878 56.7434 325.313 56.2983C325.749 55.8485 326.281 55.5123 326.911 55.2898C327.541 55.0625 328.237 54.9489 328.999 54.9489C329.525 54.9489 330.048 55.0104 330.569 55.1335C331.09 55.2566 331.566 55.4602 331.996 55.7443C332.427 56.0237 332.773 56.4048 333.033 56.8878C333.299 57.3707 333.431 57.9744 333.431 58.6989V66H330.96V64.5014H330.874C330.718 64.8045 330.498 65.0885 330.214 65.3537C329.934 65.6141 329.582 65.8248 329.156 65.9858C328.734 66.142 328.239 66.2202 327.671 66.2202ZM328.339 64.331C328.855 64.331 329.302 64.2292 329.681 64.0256C330.06 63.8172 330.351 63.5426 330.555 63.2017C330.763 62.8608 330.867 62.4891 330.867 62.0866V60.8011C330.787 60.8674 330.649 60.929 330.455 60.9858C330.266 61.0426 330.053 61.0923 329.816 61.1349C329.579 61.1776 329.345 61.2154 329.113 61.2486C328.881 61.2817 328.68 61.3101 328.509 61.3338C328.126 61.3859 327.782 61.4711 327.479 61.5895C327.176 61.7079 326.937 61.8736 326.762 62.0866C326.587 62.295 326.499 62.5649 326.499 62.8963C326.499 63.3698 326.672 63.7273 327.018 63.9688C327.363 64.2102 327.804 64.331 328.339 64.331ZM336.016 66V55.0909H338.509V56.9091H338.623C338.822 56.2794 339.163 55.794 339.646 55.4531C340.133 55.1075 340.69 54.9347 341.315 54.9347C341.457 54.9347 341.615 54.9418 341.79 54.956C341.97 54.9654 342.12 54.982 342.238 55.0057V57.3707C342.129 57.3329 341.956 57.2997 341.719 57.2713C341.487 57.2382 341.263 57.2216 341.045 57.2216C340.576 57.2216 340.155 57.3234 339.781 57.527C339.411 57.7259 339.12 58.0028 338.907 58.358C338.694 58.7131 338.587 59.1226 338.587 59.5866V66H336.016ZM346.29 62.5767L346.283 59.473H346.695L350.615 55.0909H353.619L348.797 60.4602H348.264L346.29 62.5767ZM343.946 66V51.4545H346.517V66H343.946ZM350.793 66L347.241 61.0355L348.974 59.2244L353.868 66H350.793ZM355.333 66V55.0909H357.904V66H355.333ZM356.625 53.5426C356.218 53.5426 355.868 53.4077 355.574 53.1378C355.281 52.8632 355.134 52.5341 355.134 52.1506C355.134 51.7623 355.281 51.4332 355.574 51.1634C355.868 50.8887 356.218 50.7514 356.625 50.7514C357.037 50.7514 357.388 50.8887 357.676 51.1634C357.97 51.4332 358.117 51.7623 358.117 52.1506C358.117 52.5341 357.97 52.8632 357.676 53.1378C357.388 53.4077 357.037 53.5426 356.625 53.5426ZM363.119 59.608V66H360.548V55.0909H363.005V56.9446H363.133C363.384 56.3338 363.784 55.8485 364.333 55.4886C364.887 55.1288 365.571 54.9489 366.386 54.9489C367.138 54.9489 367.794 55.1098 368.353 55.4318C368.916 55.7538 369.352 56.2202 369.66 56.831C369.972 57.4418 370.126 58.1828 370.121 59.054V66H367.55V59.4517C367.55 58.7225 367.361 58.152 366.982 57.7401C366.608 57.3281 366.09 57.1222 365.427 57.1222C364.977 57.1222 364.577 57.2216 364.227 57.4205C363.881 57.6146 363.609 57.8963 363.41 58.2656C363.216 58.6349 363.119 59.0824 363.119 59.608ZM377.479 70.3182C376.556 70.3182 375.763 70.1927 375.1 69.9418C374.437 69.6955 373.905 69.3641 373.502 68.9474C373.1 68.5308 372.82 68.0691 372.664 67.5625L374.979 67.0014C375.084 67.2145 375.235 67.4252 375.434 67.6335C375.633 67.8466 375.9 68.0218 376.237 68.1591C376.577 68.3011 377.006 68.3722 377.522 68.3722C378.251 68.3722 378.855 68.1946 379.333 67.8395C379.811 67.4891 380.05 66.9115 380.05 66.1065V64.0398H379.923C379.79 64.3049 379.596 64.5772 379.34 64.8565C379.089 65.1359 378.755 65.3703 378.339 65.5597C377.927 65.7491 377.408 65.8438 376.783 65.8438C375.945 65.8438 375.185 65.6473 374.504 65.2543C373.826 64.8565 373.287 64.2647 372.884 63.4787C372.487 62.688 372.288 61.6984 372.288 60.5099C372.288 59.312 372.487 58.3011 372.884 57.4773C373.287 56.6487 373.829 56.0213 374.511 55.5952C375.192 55.1643 375.952 54.9489 376.79 54.9489C377.43 54.9489 377.955 55.0578 378.367 55.2756C378.784 55.4886 379.115 55.7467 379.362 56.0497C379.608 56.348 379.795 56.6297 379.923 56.8949H380.065V55.0909H382.6V66.1776C382.6 67.1103 382.378 67.8821 381.933 68.4929C381.487 69.1037 380.879 69.5606 380.107 69.8636C379.335 70.1667 378.46 70.3182 377.479 70.3182ZM377.501 63.8267C378.045 63.8267 378.509 63.6941 378.893 63.429C379.276 63.1638 379.567 62.7827 379.766 62.2855C379.965 61.7884 380.065 61.1918 380.065 60.4957C380.065 59.8092 379.965 59.2079 379.766 58.6918C379.572 58.1757 379.283 57.7756 378.9 57.4915C378.521 57.2027 378.055 57.0582 377.501 57.0582C376.928 57.0582 376.45 57.2074 376.066 57.5057C375.683 57.804 375.394 58.2135 375.2 58.7344C375.005 59.2505 374.908 59.8376 374.908 60.4957C374.908 61.1634 375.005 61.7481 375.2 62.25C375.398 62.7472 375.69 63.1354 376.073 63.4148C376.461 63.6894 376.937 63.8267 377.501 63.8267Z" fill="#0071E3"/>
<g clip-path="url(#clip0_35_64)">
<path d="M336.025 29.3225C336.811 30.0897 337.73 30.0294 338.525 29.1415L346.926 19.8061L344.329 17.2718L334.735 25.4435C333.817 26.2279 333.764 27.1158 334.55 27.8916L336.025 29.3225ZM351.731 21.9007C352.111 22.2541 352.544 22.28 352.906 21.9266L355.565 19.3492C355.91 19.013 355.883 18.5647 355.512 18.2113L354.876 17.5821C354.532 17.2545 354.311 17.2028 353.94 17.2287L352.906 17.3494L352.244 16.7028L352.544 15.4874C352.694 14.8926 352.465 14.2634 351.82 13.6341L350.044 11.9187C347.588 9.531 343.065 9.26378 340.53 11.7291C340.106 12.1429 340.186 12.6083 340.459 12.9014C340.671 13.0997 340.998 13.2031 341.308 13.1083C343.021 12.6083 344.514 12.5135 345.804 13.2635L345.124 15.0047C344.832 15.7374 344.991 16.2546 345.468 16.7287L347.438 18.6509C347.8 19.0044 348.18 19.1078 348.754 18.9958L350.177 18.7113L350.83 19.3578L350.733 20.3663C350.707 20.7456 350.742 20.9697 351.095 21.2887L351.731 21.9007Z" fill="white" fill-opacity="0.85"/>
</g>
<defs>
<clipPath id="clip0_35_64">
<rect width="22" height="20" fill="white" transform="translate(334 10)"/>
</clipPath>
</defs>
</svg>
