<svg width="690" height="70" viewBox="0 0 690 70" fill="none" xmlns="http://www.w3.org/2000/svg">
<path d="M0 18.5C0 16.567 1.567 15 3.5 15H686.5C688.433 15 690 16.567 690 18.5V18.5C690 20.433 688.433 22 686.5 22H3.50001C1.56701 22 0 20.433 0 18.5V18.5Z" fill="#0071E3"/>
<circle cx="345" cy="19" r="19" fill="#0071E3"/>
<path d="M306.521 50.4545H309.745L314.063 60.9943H314.234L318.552 50.4545H321.776V65H319.248V55.0071H319.113L315.093 64.9574H313.204L309.184 54.9858H309.049V65H306.521V50.4545ZM327.671 65.2202C326.98 65.2202 326.357 65.0971 325.803 64.8509C325.254 64.5999 324.818 64.2306 324.496 63.7429C324.179 63.2552 324.021 62.6539 324.021 61.9389C324.021 61.3234 324.134 60.8144 324.362 60.4119C324.589 60.0095 324.899 59.6875 325.292 59.446C325.685 59.2045 326.128 59.0223 326.62 58.8991C327.117 58.7713 327.631 58.679 328.161 58.6222C328.8 58.5559 329.319 58.4967 329.717 58.4446C330.114 58.3878 330.403 58.3026 330.583 58.1889C330.768 58.0705 330.86 57.8883 330.86 57.642V57.5994C330.86 57.0644 330.701 56.6501 330.384 56.3565C330.067 56.063 329.61 55.9162 329.013 55.9162C328.384 55.9162 327.884 56.0535 327.515 56.3281C327.15 56.6027 326.904 56.9271 326.776 57.3011L324.376 56.9602C324.565 56.2973 324.878 55.7434 325.313 55.2983C325.749 54.8485 326.281 54.5123 326.911 54.2898C327.541 54.0625 328.237 53.9489 328.999 53.9489C329.525 53.9489 330.048 54.0104 330.569 54.1335C331.09 54.2566 331.566 54.4602 331.996 54.7443C332.427 55.0237 332.773 55.4048 333.033 55.8878C333.299 56.3707 333.431 56.9744 333.431 57.6989V65H330.96V63.5014H330.874C330.718 63.8045 330.498 64.0885 330.214 64.3537C329.934 64.6141 329.582 64.8248 329.156 64.9858C328.734 65.142 328.239 65.2202 327.671 65.2202ZM328.339 63.331C328.855 63.331 329.302 63.2292 329.681 63.0256C330.06 62.8172 330.351 62.5426 330.555 62.2017C330.763 61.8608 330.867 61.4891 330.867 61.0866V59.8011C330.787 59.8674 330.649 59.929 330.455 59.9858C330.266 60.0426 330.053 60.0923 329.816 60.1349C329.579 60.1776 329.345 60.2154 329.113 60.2486C328.881 60.2817 328.68 60.3101 328.509 60.3338C328.126 60.3859 327.782 60.4711 327.479 60.5895C327.176 60.7079 326.937 60.8736 326.762 61.0866C326.587 61.295 326.499 61.5649 326.499 61.8963C326.499 62.3698 326.672 62.7273 327.018 62.9688C327.363 63.2102 327.804 63.331 328.339 63.331ZM336.016 65V54.0909H338.509V55.9091H338.623C338.822 55.2794 339.163 54.794 339.646 54.4531C340.133 54.1075 340.69 53.9347 341.315 53.9347C341.457 53.9347 341.615 53.9418 341.79 53.956C341.97 53.9654 342.12 53.982 342.238 54.0057V56.3707C342.129 56.3329 341.956 56.2997 341.719 56.2713C341.487 56.2382 341.263 56.2216 341.045 56.2216C340.576 56.2216 340.155 56.3234 339.781 56.527C339.411 56.7259 339.12 57.0028 338.907 57.358C338.694 57.7131 338.587 58.1226 338.587 58.5866V65H336.016ZM346.29 61.5767L346.283 58.473H346.695L350.615 54.0909H353.619L348.797 59.4602H348.264L346.29 61.5767ZM343.946 65V50.4545H346.517V65H343.946ZM350.793 65L347.241 60.0355L348.974 58.2244L353.868 65H350.793ZM355.333 65V54.0909H357.904V65H355.333ZM356.625 52.5426C356.218 52.5426 355.868 52.4077 355.574 52.1378C355.281 51.8632 355.134 51.5341 355.134 51.1506C355.134 50.7623 355.281 50.4332 355.574 50.1634C355.868 49.8887 356.218 49.7514 356.625 49.7514C357.037 49.7514 357.388 49.8887 357.676 50.1634C357.97 50.4332 358.117 50.7623 358.117 51.1506C358.117 51.5341 357.97 51.8632 357.676 52.1378C357.388 52.4077 357.037 52.5426 356.625 52.5426ZM363.119 58.608V65H360.548V54.0909H363.005V55.9446H363.133C363.384 55.3338 363.784 54.8485 364.333 54.4886C364.887 54.1288 365.571 53.9489 366.386 53.9489C367.138 53.9489 367.794 54.1098 368.353 54.4318C368.916 54.7538 369.352 55.2202 369.66 55.831C369.972 56.4418 370.126 57.1828 370.121 58.054V65H367.55V58.4517C367.55 57.7225 367.361 57.152 366.982 56.7401C366.608 56.3281 366.09 56.1222 365.427 56.1222C364.977 56.1222 364.577 56.2216 364.227 56.4205C363.881 56.6146 363.609 56.8963 363.41 57.2656C363.216 57.6349 363.119 58.0824 363.119 58.608ZM377.479 69.3182C376.556 69.3182 375.763 69.1927 375.1 68.9418C374.437 68.6955 373.905 68.3641 373.502 67.9474C373.1 67.5308 372.82 67.0691 372.664 66.5625L374.979 66.0014C375.084 66.2145 375.235 66.4252 375.434 66.6335C375.633 66.8466 375.9 67.0218 376.237 67.1591C376.577 67.3011 377.006 67.3722 377.522 67.3722C378.251 67.3722 378.855 67.1946 379.333 66.8395C379.811 66.4891 380.05 65.9115 380.05 65.1065V63.0398H379.923C379.79 63.3049 379.596 63.5772 379.34 63.8565C379.089 64.1359 378.755 64.3703 378.339 64.5597C377.927 64.7491 377.408 64.8438 376.783 64.8438C375.945 64.8438 375.185 64.6473 374.504 64.2543C373.826 63.8565 373.287 63.2647 372.884 62.4787C372.487 61.688 372.288 60.6984 372.288 59.5099C372.288 58.312 372.487 57.3011 372.884 56.4773C373.287 55.6487 373.829 55.0213 374.511 54.5952C375.192 54.1643 375.952 53.9489 376.79 53.9489C377.43 53.9489 377.955 54.0578 378.367 54.2756C378.784 54.4886 379.115 54.7467 379.362 55.0497C379.608 55.348 379.795 55.6297 379.923 55.8949H380.065V54.0909H382.6V65.1776C382.6 66.1103 382.378 66.8821 381.933 67.4929C381.487 68.1037 380.879 68.5606 380.107 68.8636C379.335 69.1667 378.46 69.3182 377.479 69.3182ZM377.501 62.8267C378.045 62.8267 378.509 62.6941 378.893 62.429C379.276 62.1638 379.567 61.7827 379.766 61.2855C379.965 60.7884 380.065 60.1918 380.065 59.4957C380.065 58.8092 379.965 58.2079 379.766 57.6918C379.572 57.1757 379.283 56.7756 378.9 56.4915C378.521 56.2027 378.055 56.0582 377.501 56.0582C376.928 56.0582 376.45 56.2074 376.066 56.5057C375.683 56.804 375.394 57.2135 375.2 57.7344C375.005 58.2505 374.908 58.8376 374.908 59.4957C374.908 60.1634 375.005 60.7481 375.2 61.25C375.398 61.7472 375.69 62.1354 376.073 62.4148C376.461 62.6894 376.937 62.8267 377.501 62.8267Z" fill="#0071E3"/>
<g clip-path="url(#clip0_35_64)">
<path d="M336.933 27.3564C337.683 28.0852 338.56 28.0279 339.319 27.1844L347.338 18.3158L344.859 15.9082L335.702 23.6713C334.825 24.4165 334.774 25.26 335.525 25.997L336.933 27.3564ZM351.925 20.3057C352.288 20.6414 352.701 20.666 353.047 20.3303L355.585 17.8817C355.914 17.5624 355.888 17.1365 355.534 16.8008L354.927 16.203C354.598 15.8918 354.388 15.8426 354.033 15.8672L353.047 15.9819L352.414 15.3677L352.701 14.2131C352.844 13.648 352.625 13.0502 352.01 12.4524L350.315 10.8228C347.971 8.55445 343.653 8.30059 341.233 10.6426C340.829 11.0357 340.904 11.4779 341.166 11.7563C341.368 11.9447 341.68 12.043 341.975 11.9529C343.611 11.4779 345.036 11.3878 346.267 12.1003L345.618 13.7545C345.34 14.4506 345.492 14.9419 345.947 15.3923L347.827 17.2184C348.173 17.5542 348.536 17.6524 349.084 17.546L350.441 17.2758L351.065 17.8899L350.973 18.848C350.947 19.2084 350.981 19.4213 351.318 19.7242L351.925 20.3057Z" fill="white" fill-opacity="0.85"/>
</g>
<defs>
<clipPath id="clip0_35_64">
<rect width="21" height="19" fill="white" transform="translate(335 9)"/>
</clipPath>
</defs>
</svg>
