<svg width="690" height="71" viewBox="0 0 690 71" fill="none" xmlns="http://www.w3.org/2000/svg">
<path d="M0 19.5C0 17.567 1.567 16 3.5 16H686.5C688.433 16 690 17.567 690 19.5V19.5C690 21.433 688.433 23 686.5 23H3.50001C1.56701 23 0 21.433 0 19.5V19.5Z" fill="#0071E3"/>
<circle cx="344.5" cy="19.5" r="19.5" fill="#0071E3"/>
<path d="M309.692 66V51.4545H315.147C316.264 51.4545 317.202 51.6487 317.96 52.0369C318.722 52.4252 319.297 52.9697 319.685 53.6705C320.078 54.3665 320.275 55.1785 320.275 56.1065C320.275 57.0393 320.076 57.849 319.678 58.5355C319.285 59.2173 318.705 59.7453 317.938 60.1193C317.171 60.4886 316.229 60.6733 315.112 60.6733H311.227V58.4858H314.756C315.41 58.4858 315.945 58.3958 316.362 58.2159C316.778 58.0312 317.086 57.7637 317.285 57.4134C317.488 57.0582 317.59 56.6226 317.59 56.1065C317.59 55.5904 317.488 55.1501 317.285 54.7855C317.081 54.4162 316.771 54.1368 316.354 53.9474C315.938 53.7533 315.4 53.6562 314.742 53.6562H312.327V66H309.692ZM317.207 59.4091L320.808 66H317.867L314.33 59.4091H317.207ZM327.26 66.2131C326.166 66.2131 325.222 65.9858 324.426 65.5312C323.635 65.072 323.027 64.4233 322.601 63.5852C322.175 62.7424 321.962 61.7505 321.962 60.6094C321.962 59.4872 322.175 58.5024 322.601 57.6548C323.032 56.8026 323.633 56.1397 324.405 55.6662C325.177 55.188 326.083 54.9489 327.125 54.9489C327.797 54.9489 328.432 55.0578 329.028 55.2756C329.63 55.4886 330.16 55.8201 330.619 56.2699C331.083 56.7197 331.448 57.2926 331.713 57.9886C331.978 58.6799 332.111 59.5038 332.111 60.4602V61.2486H323.169V59.5156H329.646C329.642 59.0232 329.535 58.5852 329.327 58.2017C329.118 57.8134 328.827 57.508 328.453 57.2855C328.084 57.063 327.653 56.9517 327.161 56.9517C326.635 56.9517 326.173 57.0795 325.776 57.3352C325.378 57.5862 325.068 57.9176 324.845 58.3295C324.627 58.7367 324.516 59.1842 324.511 59.6719V61.1847C324.511 61.8191 324.627 62.3636 324.859 62.8182C325.091 63.268 325.416 63.6136 325.832 63.8551C326.249 64.0919 326.737 64.2102 327.295 64.2102C327.67 64.2102 328.008 64.1581 328.311 64.054C328.614 63.9451 328.877 63.7865 329.099 63.5781C329.322 63.3698 329.49 63.1117 329.604 62.804L332.004 63.0739C331.853 63.7083 331.564 64.2623 331.138 64.7358C330.716 65.2045 330.177 65.5691 329.518 65.8295C328.86 66.0852 328.107 66.2131 327.26 66.2131ZM342.908 57.9744L340.564 58.2301C340.498 57.9934 340.382 57.7708 340.216 57.5625C340.055 57.3542 339.837 57.1861 339.563 57.0582C339.288 56.9304 338.952 56.8665 338.554 56.8665C338.019 56.8665 337.569 56.9825 337.205 57.2145C336.845 57.4465 336.667 57.7472 336.672 58.1165C336.667 58.4337 336.783 58.6918 337.02 58.8906C337.262 59.0895 337.659 59.2528 338.213 59.3807L340.074 59.7784C341.106 60.0009 341.873 60.3537 342.375 60.8366C342.882 61.3196 343.138 61.9517 343.142 62.733C343.138 63.4195 342.936 64.0256 342.539 64.5511C342.146 65.072 341.599 65.4792 340.898 65.7727C340.197 66.0663 339.392 66.2131 338.483 66.2131C337.148 66.2131 336.073 65.9337 335.259 65.375C334.444 64.8116 333.959 64.0279 333.803 63.0241L336.31 62.7827C336.424 63.2751 336.665 63.6468 337.034 63.8977C337.404 64.1487 337.884 64.2741 338.476 64.2741C339.087 64.2741 339.577 64.1487 339.946 63.8977C340.32 63.6468 340.507 63.3366 340.507 62.9673C340.507 62.6548 340.387 62.3968 340.145 62.1932C339.908 61.9896 339.539 61.8333 339.037 61.7244L337.176 61.3338C336.13 61.116 335.356 60.7491 334.854 60.233C334.352 59.7121 334.104 59.054 334.108 58.2585C334.104 57.5862 334.286 57.0038 334.655 56.5114C335.029 56.0142 335.548 55.6307 336.211 55.3608C336.878 55.0862 337.648 54.9489 338.519 54.9489C339.797 54.9489 340.803 55.2211 341.537 55.7656C342.276 56.3101 342.733 57.0464 342.908 57.9744ZM352.216 61.4119V55.0909H354.787V66H352.294V64.0611H352.18C351.934 64.6719 351.529 65.1714 350.966 65.5597C350.407 65.9479 349.718 66.142 348.899 66.142C348.184 66.142 347.552 65.9834 347.002 65.6662C346.458 65.3442 346.032 64.8778 345.724 64.267C345.416 63.6515 345.262 62.9081 345.262 62.0369V55.0909H347.833V61.6392C347.833 62.3305 348.023 62.8797 348.402 63.2869C348.78 63.6941 349.278 63.8977 349.893 63.8977C350.272 63.8977 350.639 63.8054 350.994 63.6207C351.349 63.4361 351.64 63.1615 351.868 62.7969C352.1 62.4276 352.216 61.9659 352.216 61.4119ZM360.001 51.4545V66H357.43V51.4545H360.001ZM368.093 55.0909V57.0795H361.821V55.0909H368.093ZM363.37 52.4773H365.941V62.7188C365.941 63.0644 365.993 63.3295 366.097 63.5142C366.206 63.6941 366.348 63.8172 366.523 63.8835C366.698 63.9498 366.892 63.983 367.105 63.983C367.266 63.983 367.413 63.9711 367.546 63.9474C367.683 63.9238 367.787 63.9025 367.858 63.8835L368.292 65.8935C368.154 65.9408 367.958 65.9929 367.702 66.0497C367.451 66.1065 367.143 66.1397 366.779 66.1491C366.135 66.1681 365.555 66.071 365.039 65.858C364.523 65.6402 364.113 65.304 363.81 64.8494C363.512 64.3949 363.365 63.8267 363.37 63.1449V52.4773ZM378.709 57.9744L376.365 58.2301C376.299 57.9934 376.183 57.7708 376.017 57.5625C375.856 57.3542 375.638 57.1861 375.364 57.0582C375.089 56.9304 374.753 56.8665 374.355 56.8665C373.82 56.8665 373.37 56.9825 373.006 57.2145C372.646 57.4465 372.468 57.7472 372.473 58.1165C372.468 58.4337 372.584 58.6918 372.821 58.8906C373.063 59.0895 373.46 59.2528 374.014 59.3807L375.875 59.7784C376.907 60.0009 377.674 60.3537 378.176 60.8366C378.683 61.3196 378.938 61.9517 378.943 62.733C378.938 63.4195 378.737 64.0256 378.339 64.5511C377.946 65.072 377.4 65.4792 376.699 65.7727C375.998 66.0663 375.193 66.2131 374.284 66.2131C372.949 66.2131 371.874 65.9337 371.06 65.375C370.245 64.8116 369.76 64.0279 369.604 63.0241L372.111 62.7827C372.224 63.2751 372.466 63.6468 372.835 63.8977C373.205 64.1487 373.685 64.2741 374.277 64.2741C374.888 64.2741 375.378 64.1487 375.747 63.8977C376.121 63.6468 376.308 63.3366 376.308 62.9673C376.308 62.6548 376.188 62.3968 375.946 62.1932C375.709 61.9896 375.34 61.8333 374.838 61.7244L372.977 61.3338C371.931 61.116 371.157 60.7491 370.655 60.233C370.153 59.7121 369.904 59.054 369.909 58.2585C369.904 57.5862 370.087 57.0038 370.456 56.5114C370.83 56.0142 371.348 55.6307 372.011 55.3608C372.679 55.0862 373.448 54.9489 374.32 54.9489C375.598 54.9489 376.604 55.2211 377.338 55.7656C378.077 56.3101 378.534 57.0464 378.709 57.9744Z" fill="#0071E3"/>
<g clip-path="url(#clip0_318_50)">
<path d="M339.835 11.6377V12.5471C339.835 13.6384 340.609 14.4092 341.683 14.4092H347.123C348.197 14.4092 348.972 13.6384 348.972 12.5471V11.6377C348.972 11.5608 348.968 11.4855 348.96 11.4125H349.077C350.9 11.4125 351.806 12.3132 351.806 14.1321V27.271C351.806 29.0898 350.9 29.9906 349.077 29.9906H339.729C337.907 29.9906 337 29.0898 337 27.271V14.1321C337 12.3132 337.907 11.4125 339.729 11.4125H339.847C339.838 11.4855 339.835 11.5608 339.835 11.6377ZM339.799 24.4821C339.799 24.8979 340.151 25.2443 340.574 25.2443C340.996 25.2443 341.349 24.9065 341.349 24.4821C341.349 24.0664 340.996 23.72 340.574 23.72C340.151 23.72 339.799 24.0751 339.799 24.4821ZM343.004 23.9278C342.678 23.9278 342.423 24.179 342.423 24.4821C342.423 24.7852 342.687 25.0451 343.004 25.0451H348.444C348.752 25.0451 349.007 24.7852 349.007 24.4821C349.007 24.179 348.761 23.9278 348.444 23.9278H343.004ZM339.799 21.1389C339.799 21.5547 340.143 21.9011 340.574 21.9011C340.996 21.9011 341.349 21.5547 341.349 21.1389C341.349 20.7145 340.996 20.3854 340.574 20.3854C340.143 20.3854 339.799 20.7232 339.799 21.1389ZM343.004 20.5846C342.678 20.5846 342.423 20.8271 342.423 21.1389C342.423 21.4507 342.678 21.7019 343.004 21.7019H348.444C348.761 21.7019 349.007 21.4507 349.007 21.1389C349.007 20.8271 348.761 20.5846 348.444 20.5846H343.004ZM339.799 17.9776C339.799 18.3847 340.151 18.7398 340.574 18.7398C340.996 18.7398 341.349 18.3933 341.349 17.9776C341.349 17.5532 340.996 17.2154 340.574 17.2154C340.151 17.2154 339.799 17.5619 339.799 17.9776ZM343.004 17.406C342.687 17.406 342.423 17.6745 342.423 17.9776C342.423 18.2807 342.687 18.5319 343.004 18.5319H348.444C348.752 18.5319 349.007 18.2807 349.007 17.9776C349.007 17.6745 348.752 17.406 348.444 17.406H343.004Z" fill="white" fill-opacity="0.85"/>
<path d="M346.313 10.7802H347.123C347.634 10.7802 347.942 11.1006 347.942 11.6376V12.547C347.942 13.084 347.634 13.4045 347.123 13.4045H341.683C341.173 13.4045 340.865 13.084 340.865 12.547V11.6376C340.865 11.1006 341.173 10.7802 341.683 10.7802H342.493C342.555 9.80146 343.382 9.00464 344.403 9.00464C345.424 9.00464 346.252 9.80146 346.313 10.7802ZM343.637 10.8495C343.637 11.2565 343.981 11.603 344.403 11.603C344.826 11.603 345.169 11.2565 345.169 10.8495C345.169 10.4251 344.826 10.0873 344.403 10.0873C343.981 10.0873 343.637 10.4251 343.637 10.8495Z" fill="white" fill-opacity="0.85"/>
</g>
<defs>
<clipPath id="clip0_318_50">
<rect width="15" height="24" fill="white" transform="translate(337 8)"/>
</clipPath>
</defs>
</svg>
