<svg width="690" height="70" viewBox="0 0 690 70" fill="none" xmlns="http://www.w3.org/2000/svg">
<path d="M0 18.5C0 16.567 1.567 15 3.5 15H686.5C688.433 15 690 16.567 690 18.5V18.5C690 20.433 688.433 22 686.5 22H3.50001C1.56701 22 0 20.433 0 18.5V18.5Z" fill="#0071E3"/>
<circle cx="344.5" cy="19.5" r="19.5" fill="#0071E3"/>
<path d="M298.816 65V50.4545H308.134V52.6634H301.45V56.6122H307.494V58.821H301.45V65H298.816ZM314.449 65.2131C313.356 65.2131 312.411 64.9858 311.616 64.5312C310.825 64.072 310.216 63.4233 309.79 62.5852C309.364 61.7424 309.151 60.7505 309.151 59.6094C309.151 58.4872 309.364 57.5024 309.79 56.6548C310.221 55.8026 310.823 55.1397 311.594 54.6662C312.366 54.188 313.273 53.9489 314.314 53.9489C314.987 53.9489 315.621 54.0578 316.218 54.2756C316.819 54.4886 317.349 54.8201 317.809 55.2699C318.273 55.7197 318.637 56.2926 318.903 56.9886C319.168 57.6799 319.3 58.5038 319.3 59.4602V60.2486H310.358V58.5156H316.836C316.831 58.0232 316.724 57.5852 316.516 57.2017C316.308 56.8134 316.017 56.508 315.643 56.2855C315.273 56.063 314.842 55.9517 314.35 55.9517C313.824 55.9517 313.363 56.0795 312.965 56.3352C312.567 56.5862 312.257 56.9176 312.035 57.3295C311.817 57.7367 311.706 58.1842 311.701 58.6719V60.1847C311.701 60.8191 311.817 61.3636 312.049 61.8182C312.281 62.268 312.605 62.6136 313.022 62.8551C313.439 63.0919 313.926 63.2102 314.485 63.2102C314.859 63.2102 315.198 63.1581 315.501 63.054C315.804 62.9451 316.066 62.7865 316.289 62.5781C316.511 62.3698 316.68 62.1117 316.793 61.804L319.194 62.0739C319.042 62.7083 318.753 63.2623 318.327 63.7358C317.906 64.2045 317.366 64.5691 316.708 64.8295C316.05 65.0852 315.297 65.2131 314.449 65.2131ZM326.305 65.2131C325.211 65.2131 324.267 64.9858 323.471 64.5312C322.68 64.072 322.072 63.4233 321.646 62.5852C321.22 61.7424 321.007 60.7505 321.007 59.6094C321.007 58.4872 321.22 57.5024 321.646 56.6548C322.077 55.8026 322.678 55.1397 323.45 54.6662C324.222 54.188 325.128 53.9489 326.17 53.9489C326.842 53.9489 327.477 54.0578 328.073 54.2756C328.675 54.4886 329.205 54.8201 329.664 55.2699C330.128 55.7197 330.493 56.2926 330.758 56.9886C331.023 57.6799 331.156 58.5038 331.156 59.4602V60.2486H322.214V58.5156H328.691C328.686 58.0232 328.58 57.5852 328.372 57.2017C328.163 56.8134 327.872 56.508 327.498 56.2855C327.129 56.063 326.698 55.9517 326.205 55.9517C325.68 55.9517 325.218 56.0795 324.82 56.3352C324.423 56.5862 324.113 56.9176 323.89 57.3295C323.672 57.7367 323.561 58.1842 323.556 58.6719V60.1847C323.556 60.8191 323.672 61.3636 323.904 61.8182C324.136 62.268 324.461 62.6136 324.877 62.8551C325.294 63.0919 325.782 63.2102 326.34 63.2102C326.714 63.2102 327.053 63.1581 327.356 63.054C327.659 62.9451 327.922 62.7865 328.144 62.5781C328.367 62.3698 328.535 62.1117 328.649 61.804L331.049 62.0739C330.898 62.7083 330.609 63.2623 330.183 63.7358C329.761 64.2045 329.222 64.5691 328.563 64.8295C327.905 65.0852 327.152 65.2131 326.305 65.2131ZM337.379 65.1918C336.522 65.1918 335.755 64.9716 335.078 64.5312C334.401 64.0909 333.866 63.4517 333.473 62.6136C333.08 61.7756 332.883 60.7576 332.883 59.5597C332.883 58.3475 333.082 57.3248 333.48 56.4915C333.882 55.6534 334.425 55.0213 335.106 54.5952C335.788 54.1643 336.548 53.9489 337.386 53.9489C338.025 53.9489 338.551 54.0578 338.963 54.2756C339.375 54.4886 339.702 54.7467 339.943 55.0497C340.184 55.348 340.372 55.6297 340.504 55.8949H340.611V50.4545H343.189V65H340.66V63.2812H340.504C340.372 63.5464 340.18 63.8281 339.929 64.1264C339.678 64.42 339.346 64.6709 338.934 64.8793C338.523 65.0876 338.004 65.1918 337.379 65.1918ZM338.096 63.0824C338.641 63.0824 339.105 62.9356 339.488 62.642C339.872 62.3437 340.163 61.9295 340.362 61.3991C340.561 60.8688 340.66 60.2509 340.66 59.5455C340.66 58.84 340.561 58.2268 340.362 57.706C340.168 57.1851 339.879 56.7803 339.496 56.4915C339.117 56.2027 338.65 56.0582 338.096 56.0582C337.523 56.0582 337.045 56.2074 336.662 56.5057C336.278 56.804 335.989 57.2159 335.795 57.7415C335.601 58.267 335.504 58.8684 335.504 59.5455C335.504 60.2273 335.601 60.8357 335.795 61.3707C335.994 61.901 336.285 62.3201 336.669 62.6278C337.057 62.9309 337.533 63.0824 338.096 63.0824ZM346.042 65V50.4545H348.613V55.8949H348.72C348.852 55.6297 349.039 55.348 349.281 55.0497C349.522 54.7467 349.849 54.4886 350.261 54.2756C350.673 54.0578 351.198 53.9489 351.838 53.9489C352.68 53.9489 353.44 54.1643 354.117 54.5952C354.799 55.0213 355.339 55.6534 355.737 56.4915C356.139 57.3248 356.34 58.3475 356.34 59.5597C356.34 60.7576 356.144 61.7756 355.751 62.6136C355.358 63.4517 354.823 64.0909 354.146 64.5312C353.469 64.9716 352.702 65.1918 351.845 65.1918C351.22 65.1918 350.701 65.0876 350.289 64.8793C349.877 64.6709 349.546 64.42 349.295 64.1264C349.049 63.8281 348.857 63.5464 348.72 63.2812H348.57V65H346.042ZM348.563 59.5455C348.563 60.2509 348.663 60.8688 348.862 61.3991C349.065 61.9295 349.356 62.3437 349.735 62.642C350.119 62.9356 350.583 63.0824 351.127 63.0824C351.695 63.0824 352.171 62.9309 352.555 62.6278C352.938 62.3201 353.227 61.901 353.421 61.3707C353.62 60.8357 353.72 60.2273 353.72 59.5455C353.72 58.8684 353.623 58.267 353.428 57.7415C353.234 57.2159 352.945 56.804 352.562 56.5057C352.178 56.2074 351.7 56.0582 351.127 56.0582C350.578 56.0582 350.112 56.2027 349.728 56.4915C349.345 56.7803 349.053 57.1851 348.855 57.706C348.66 58.2268 348.563 58.84 348.563 59.5455ZM361.665 65.2202C360.974 65.2202 360.351 65.0971 359.797 64.8509C359.248 64.5999 358.813 64.2306 358.491 63.7429C358.173 63.2552 358.015 62.6539 358.015 61.9389C358.015 61.3234 358.128 60.8144 358.356 60.4119C358.583 60.0095 358.893 59.6875 359.286 59.446C359.679 59.2045 360.122 59.0223 360.614 58.8991C361.111 58.7713 361.625 58.679 362.155 58.6222C362.795 58.5559 363.313 58.4967 363.711 58.4446C364.108 58.3878 364.397 58.3026 364.577 58.1889C364.762 58.0705 364.854 57.8883 364.854 57.642V57.5994C364.854 57.0644 364.696 56.6501 364.378 56.3565C364.061 56.063 363.604 55.9162 363.008 55.9162C362.378 55.9162 361.878 56.0535 361.509 56.3281C361.144 56.6027 360.898 56.9271 360.77 57.3011L358.37 56.9602C358.559 56.2973 358.872 55.7434 359.307 55.2983C359.743 54.8485 360.276 54.5123 360.905 54.2898C361.535 54.0625 362.231 53.9489 362.993 53.9489C363.519 53.9489 364.042 54.0104 364.563 54.1335C365.084 54.2566 365.56 54.4602 365.991 54.7443C366.421 55.0237 366.767 55.4048 367.028 55.8878C367.293 56.3707 367.425 56.9744 367.425 57.6989V65H364.954V63.5014H364.868C364.712 63.8045 364.492 64.0885 364.208 64.3537C363.929 64.6141 363.576 64.8248 363.15 64.9858C362.728 65.142 362.233 65.2202 361.665 65.2202ZM362.333 63.331C362.849 63.331 363.296 63.2292 363.675 63.0256C364.054 62.8172 364.345 62.5426 364.549 62.2017C364.757 61.8608 364.861 61.4891 364.861 61.0866V59.8011C364.781 59.8674 364.644 59.929 364.449 59.9858C364.26 60.0426 364.047 60.0923 363.81 60.1349C363.573 60.1776 363.339 60.2154 363.107 60.2486C362.875 60.2817 362.674 60.3101 362.503 60.3338C362.12 60.3859 361.777 60.4711 361.474 60.5895C361.171 60.7079 360.931 60.8736 360.756 61.0866C360.581 61.295 360.493 61.5649 360.493 61.8963C360.493 62.3698 360.666 62.7273 361.012 62.9688C361.358 63.2102 361.798 63.331 362.333 63.331ZM374.769 65.2131C373.68 65.2131 372.745 64.974 371.964 64.4957C371.187 64.0175 370.588 63.357 370.167 62.5142C369.75 61.6667 369.542 60.6913 369.542 59.5881C369.542 58.4801 369.755 57.5024 370.181 56.6548C370.607 55.8026 371.208 55.1397 371.985 54.6662C372.766 54.188 373.689 53.9489 374.755 53.9489C375.64 53.9489 376.424 54.1122 377.106 54.4389C377.792 54.7609 378.339 55.2178 378.746 55.8097C379.153 56.3968 379.385 57.0833 379.442 57.8693H376.985C376.885 57.3437 376.649 56.9058 376.275 56.5554C375.905 56.2003 375.411 56.0227 374.79 56.0227C374.265 56.0227 373.803 56.1648 373.405 56.4489C373.008 56.7282 372.698 57.1307 372.475 57.6562C372.257 58.1818 372.148 58.8116 372.148 59.5455C372.148 60.2888 372.257 60.928 372.475 61.4631C372.693 61.9934 372.998 62.4029 373.391 62.6918C373.789 62.9759 374.255 63.1179 374.79 63.1179C375.169 63.1179 375.508 63.0469 375.806 62.9048C376.109 62.758 376.362 62.5473 376.566 62.2727C376.769 61.9981 376.909 61.6643 376.985 61.2713H379.442C379.381 62.0431 379.153 62.7273 378.76 63.3239C378.367 63.9157 377.832 64.3797 377.155 64.7159C376.478 65.0473 375.683 65.2131 374.769 65.2131ZM383.897 61.5767L383.89 58.473H384.302L388.222 54.0909H391.227L386.404 59.4602H385.872L383.897 61.5767ZM381.553 65V50.4545H384.124V65H381.553ZM388.4 65L384.849 60.0355L386.582 58.2244L391.475 65H388.4Z" fill="#0071E3"/>
<g clip-path="url(#clip0_298_2)">
<path d="M350.593 9.59695H339.208C339.245 8.85899 339.708 8.43469 340.476 8.43469H349.325C350.093 8.43469 350.556 8.85899 350.593 9.59695Z" fill="white" fill-opacity="0.85"/>
<path d="M352.438 12.1906C352.148 12.1442 351.841 12.1212 351.517 12.1212H338.285C337.961 12.1212 337.654 12.1442 337.364 12.1906C337.462 11.3182 338.048 10.8318 339.006 10.8318H350.805C351.763 10.8318 352.342 11.3182 352.438 12.1906Z" fill="white" fill-opacity="0.85"/>
<path d="M354.349 16.398V25.7233C354.349 27.5938 353.402 28.5381 351.517 28.5381H338.284C336.399 28.5381 335.452 27.5938 335.452 25.7233V16.398C335.452 14.5275 336.399 13.5831 338.284 13.5831H351.517C353.402 13.5831 354.349 14.5275 354.349 16.398ZM347.53 17.4604L343.678 23.6893L341.847 21.3103C341.622 21.0107 341.423 20.9199 341.162 20.9199C340.756 20.9199 340.44 21.2559 340.44 21.6736C340.44 21.8733 340.521 22.0821 340.657 22.2637L342.912 25.0604C343.155 25.3782 343.408 25.4963 343.715 25.4963C344.021 25.4963 344.283 25.351 344.463 25.0604L348.712 18.332C348.82 18.1504 348.937 17.9416 348.937 17.7328C348.937 17.3151 348.567 17.0427 348.17 17.0427C347.927 17.0427 347.692 17.1789 347.53 17.4604Z" fill="white" fill-opacity="0.85"/>
</g>
<defs>
<clipPath id="clip0_298_2">
<rect width="22" height="23" fill="white" transform="translate(334 7)"/>
</clipPath>
</defs>
</svg>
