<svg width="38" height="38" viewBox="0 0 38 38" fill="none" xmlns="http://www.w3.org/2000/svg">
<g clip-path="url(#clip0_284_224)">
<path d="M10.4987 37.5464C11.3352 37.5464 11.9155 37.1021 12.9569 36.1792L18.8464 30.9326H29.806C34.893 30.9326 37.6244 28.1128 37.6244 23.1055V10.0146C37.6244 5.00732 34.893 2.1875 29.806 2.1875H7.81851C2.73136 2.1875 0 4.99023 0 10.0146V23.1055C0 28.1299 2.73136 30.9326 7.81851 30.9326H8.63791V35.376C8.63791 36.6919 9.30368 37.5464 10.4987 37.5464ZM11.1985 34.4189V29.4629C11.1985 28.54 10.8401 28.1812 9.91824 28.1812H7.81851C4.37017 28.1812 2.74842 26.4209 2.74842 23.0884V10.0146C2.74842 6.68213 4.37017 4.93896 7.81851 4.93896H29.806C33.2372 4.93896 34.8761 6.68213 34.8761 10.0146V23.0884C34.8761 26.4209 33.2372 28.1812 29.806 28.1812H18.7439C17.7879 28.1812 17.31 28.3179 16.6613 28.9844L11.1985 34.4189Z" fill="#0071E3"/>
<path d="M10.0206 11.8433H27.3989C27.9452 11.8433 28.3719 11.416 28.3719 10.8521C28.3719 10.3223 27.9452 9.87793 27.3989 9.87793H10.0206C9.47439 9.87793 9.03055 10.3223 9.03055 10.8521C9.03055 11.416 9.47439 11.8433 10.0206 11.8433ZM10.0206 17.4146H27.3989C27.9452 17.4146 28.3719 16.9702 28.3719 16.4062C28.3719 15.8765 27.9452 15.4321 27.3989 15.4321H10.0206C9.47439 15.4321 9.03055 15.8765 9.03055 16.4062C9.03055 16.9702 9.47439 17.4146 10.0206 17.4146ZM10.0206 22.9688H21.3216C21.8679 22.9688 22.2947 22.5415 22.2947 21.9946C22.2947 21.4307 21.8679 20.9863 21.3216 20.9863H10.0206C9.47439 20.9863 9.03055 21.4307 9.03055 21.9946C9.03055 22.5415 9.47439 22.9688 10.0206 22.9688Z" fill="#0071E3"/>
</g>
<defs>
<clipPath id="clip0_284_224">
<rect width="38" height="37.5464" fill="white"/>
</clipPath>
</defs>
</svg>
