<svg width="38" height="32" viewBox="0 0 38 32" fill="none" xmlns="http://www.w3.org/2000/svg">
<g clip-path="url(#clip0_287_328)">
<path d="M11.4783 28.7312H36.0962C36.9361 28.7312 37.608 28.0812 37.608 27.2455C37.608 26.3912 36.9361 25.7411 36.0962 25.7411H11.4783C10.6386 25.7411 9.9666 26.3912 9.9666 27.2455C9.9666 28.0812 10.6386 28.7312 11.4783 28.7312Z" fill="#0071E3"/>
<path d="M3.26621 31.2943C5.48723 31.2943 6.79371 30.31 6.79371 28.7499C6.79371 27.7284 6.08448 27.0226 4.79666 26.9112V26.8555C5.72987 26.6883 6.47642 26.0569 6.47642 24.9797C6.47642 23.5683 5.09529 22.7882 3.24754 22.7882C1.79175 22.7882 0.205304 23.4753 0.205304 24.7011C0.205304 25.2212 0.578586 25.5926 1.15717 25.5926C1.56778 25.5926 1.75442 25.4254 2.01572 25.1469C2.44499 24.6826 2.78094 24.534 3.24754 24.534C3.82613 24.534 4.2554 24.8125 4.2554 25.3697C4.2554 25.8898 3.80747 26.1498 3.04224 26.1498H2.83693C2.31434 26.1498 1.97839 26.4097 1.97839 26.9484C1.97839 27.4498 2.29568 27.747 2.83693 27.747H3.07957C3.91946 27.747 4.36739 28.0256 4.36739 28.6013C4.36739 29.1028 3.90079 29.4742 3.26621 29.4742C2.61297 29.4742 2.14637 29.1028 1.79175 28.7499C1.56778 28.5456 1.38114 28.397 1.02652 28.397C0.429273 28.397 0 28.7499 0 29.3257C0 30.6071 1.75442 31.2943 3.26621 31.2943Z" fill="#0071E3"/>
<path d="M11.4783 17.5136H36.0962C36.9361 17.5136 37.608 16.845 37.608 16.0092C37.608 15.1735 36.9361 14.5234 36.0962 14.5234H11.4783C10.6386 14.5234 9.9666 15.1735 9.9666 16.0092C9.9666 16.845 10.6386 17.5136 11.4783 17.5136Z" fill="#0071E3"/>
<path d="M1.06385 19.7238H5.86051C6.36443 19.7238 6.75639 19.371 6.75639 18.8509C6.75639 18.2937 6.3831 17.9408 5.86051 17.9408H3.19156V17.8851L4.722 16.6594C5.99116 15.6193 6.49509 15.025 6.49509 13.9292C6.49509 12.4435 5.2446 11.4406 3.22888 11.4406C1.43713 11.4406 0.149311 12.3691 0.149311 13.5578C0.149311 14.1521 0.541256 14.4678 1.17583 14.4678C1.60511 14.4678 1.88507 14.3379 2.14637 13.9106C2.40766 13.4649 2.74361 13.2235 3.26621 13.2235C3.80747 13.2235 4.19941 13.5763 4.19941 14.0964C4.19941 14.5421 3.97544 14.9322 3.00491 15.6936L0.55992 17.6994C0.186639 17.9965 0.0373268 18.3308 0.0373268 18.7395C0.0373268 19.3152 0.447936 19.7238 1.06385 19.7238Z" fill="#0071E3"/>
<path d="M11.4783 6.27738H36.0962C36.9361 6.27738 37.608 5.62734 37.608 4.79159C37.608 3.93727 36.9361 3.28723 36.0962 3.28723H11.4783C10.6386 3.28723 9.9666 3.93727 9.9666 4.79159C9.9666 5.62734 10.6386 6.27738 11.4783 6.27738Z" fill="#0071E3"/>
<path d="M4.06877 8.52467C4.778 8.52467 5.28192 8.11608 5.28192 7.28033V1.28148C5.28192 0.501451 4.72201 0 3.90079 0C3.24754 0 2.83693 0.222867 2.37033 0.538596L1.04519 1.44864C0.671907 1.70865 0.466602 1.95009 0.466602 2.34011C0.466602 2.82298 0.839883 3.15729 1.26916 3.15729C1.51179 3.15729 1.62378 3.12014 1.94107 2.89727L2.79961 2.32153H2.83693V7.28033C2.83693 8.11608 3.3222 8.52467 4.06877 8.52467Z" fill="#0071E3"/>
</g>
<defs>
<clipPath id="clip0_287_328">
<rect width="38" height="32" fill="white"/>
</clipPath>
</defs>
</svg>
