<svg width="38" height="38" viewBox="0 0 38 38" fill="none" xmlns="http://www.w3.org/2000/svg">
<g clip-path="url(#clip0_284_215)">
<path d="M18.7959 34.9508C19.2041 34.9508 19.6124 34.9337 20.0206 34.8996L20.9732 36.694C21.1773 37.1041 21.5855 37.3092 22.0618 37.2238C22.5211 37.1383 22.8443 36.7965 22.8952 36.318L23.2014 34.3356C23.9839 34.1305 24.7493 33.84 25.4978 33.5153L26.9606 34.8141C27.3008 35.1217 27.7771 35.2243 28.2194 34.9679C28.6106 34.7458 28.7977 34.3014 28.6786 33.8229L28.2874 31.8917C28.9337 31.4132 29.5801 30.8834 30.1585 30.3195L31.9615 31.0714C32.4378 31.2594 32.8801 31.1398 33.2203 30.7467C33.4924 30.4049 33.5435 29.9264 33.2883 29.5163L32.2506 27.8244C32.693 27.1579 33.1011 26.4401 33.4754 25.6881L35.4485 25.7565C35.8908 25.7907 36.333 25.5514 36.4691 25.0729C36.6222 24.6286 36.4691 24.1842 36.1119 23.8937L34.5811 22.6632C34.7851 21.8771 34.9212 21.0568 34.9893 20.2023L36.8433 19.6041C37.3196 19.4503 37.6258 19.0915 37.6258 18.6129C37.6258 18.1173 37.3196 17.7755 36.8433 17.6217L34.9893 17.0236C34.9212 16.1691 34.7851 15.3659 34.5811 14.5626L36.1119 13.3151C36.4521 13.0416 36.6222 12.6144 36.4691 12.1701C36.333 11.6916 35.8908 11.4523 35.4485 11.4865L33.4754 11.5377C33.1011 10.7858 32.693 10.0851 32.2506 9.38442L33.2883 7.69253C33.5264 7.31655 33.4924 6.83804 33.2203 6.49624C32.8801 6.08608 32.4378 5.98354 31.9785 6.17153L30.1585 6.88931C29.5801 6.35952 28.9337 5.81265 28.2874 5.33413L28.6786 3.42007C28.7807 2.90737 28.6106 2.48013 28.2194 2.27505C27.7771 2.0187 27.3008 2.08706 26.9606 2.41177L25.4978 3.69351C24.7493 3.38589 23.9839 3.11245 23.2014 2.89028L22.8952 0.92495C22.8443 0.446435 22.5211 0.104638 22.0618 0.0191886C21.5855 -0.0662606 21.1603 0.138818 20.9732 0.531884L20.0206 2.32632C19.6124 2.29214 19.2041 2.27505 18.7959 2.27505C18.3706 2.27505 17.9794 2.29214 17.5541 2.32632L16.6186 0.531884C16.4145 0.138818 16.0062 -0.0662606 15.53 0.0191886C15.0707 0.104638 14.7816 0.446435 14.6965 0.92495L14.3903 2.87319C13.6079 3.11245 12.8424 3.38589 12.077 3.69351L10.6312 2.42886C10.274 2.08706 9.81469 2.0187 9.35542 2.27505C8.9812 2.48013 8.8111 2.90737 8.91316 3.42007L9.28737 5.33413C8.65801 5.81265 7.99463 6.35952 7.41629 6.88931L5.61325 6.17153C5.15398 5.98354 4.71173 6.08608 4.37153 6.49624C4.09937 6.83804 4.04834 7.31655 4.28648 7.69253L5.34109 9.38442C4.89884 10.0851 4.50761 10.7858 4.11638 11.5377L2.14324 11.4865C1.68397 11.4523 1.25873 11.6916 1.12265 12.1701C0.969562 12.6144 1.10564 13.0416 1.47986 13.3151L3.01074 14.5626C2.80662 15.3659 2.67055 16.1691 2.61952 17.0236L0.731423 17.6217C0.255148 17.7584 0 18.1173 0 18.6129C0 19.1085 0.255148 19.4503 0.731423 19.6041L2.61952 20.2023C2.67055 21.0568 2.80662 21.8771 3.01074 22.6632L1.47986 23.8937C1.10564 24.1842 0.969562 24.6286 1.12265 25.0729C1.25873 25.5514 1.68397 25.7907 2.14324 25.7565L4.11638 25.6881C4.50761 26.4401 4.89884 27.1579 5.34109 27.8244L4.30349 29.5163C4.06535 29.9264 4.08236 30.4049 4.37153 30.7467C4.71173 31.1398 5.15398 31.2594 5.63026 31.0714L7.41629 30.3195C7.99463 30.8834 8.65801 31.4132 9.28737 31.8917L8.91316 33.8229C8.82811 34.3014 8.9812 34.7458 9.35542 34.9679C9.81469 35.2243 10.274 35.1217 10.6312 34.8141L12.077 33.5153C12.8424 33.84 13.6079 34.1305 14.3903 34.3527L14.6965 36.318C14.7816 36.7965 15.0707 37.1383 15.53 37.2238C16.0062 37.3092 16.4145 37.1041 16.6186 36.694L17.5541 34.8996C17.9624 34.9337 18.3706 34.9508 18.7959 34.9508ZM18.7959 32.1994C11.2435 32.1994 5.46016 26.1837 5.46016 18.63C5.46016 11.0592 11.2435 5.02651 18.7959 5.02651C26.3483 5.02651 32.1656 11.0592 32.1656 18.63C32.1656 26.1837 26.3483 32.1994 18.7959 32.1994ZM15.8361 15.9982L17.8433 14.7165L12.162 4.92397L10.0698 6.10317L15.8361 15.9982ZM22.5891 19.775H33.9007V17.4166H22.5891V19.775ZM17.8773 22.5607L15.8872 21.2619L9.89974 31.0714L11.9749 32.3019L17.8773 22.5607ZM18.7619 23.1076C21.2283 23.1076 23.2184 21.1251 23.2184 18.6471C23.2184 16.1691 21.2283 14.1696 18.7619 14.1696C16.2955 14.1696 14.3222 16.1691 14.3222 18.6471C14.3222 21.1251 16.2955 23.1076 18.7619 23.1076ZM18.7619 20.5441C17.6902 20.5441 16.8567 19.7409 16.8567 18.6471C16.8567 17.5534 17.6902 16.716 18.7619 16.716C19.8504 16.716 20.6839 17.5534 20.6839 18.6471C20.6839 19.7409 19.8504 20.5441 18.7619 20.5441Z" fill="#0071E3"/>
</g>
<defs>
<clipPath id="clip0_284_215">
<rect width="38" height="37.243" fill="white"/>
</clipPath>
</defs>
</svg>
