<svg width="34" height="35" viewBox="0 0 34 35" fill="none" xmlns="http://www.w3.org/2000/svg">
<g clip-path="url(#clip0_318_9)">
<path d="M25.6441 3.95188H8.04932C8.10653 2.82889 8.82151 2.18323 10.0091 2.18323H23.6843C24.8719 2.18323 25.587 2.82889 25.6441 3.95188Z" fill="#0071E3"/>
<path d="M28.4956 7.89883C28.0472 7.82819 27.5717 7.79316 27.0717 7.79316H6.6215C6.12165 7.79316 5.64622 7.82816 5.198 7.89878C5.34977 6.5713 6.25601 5.83105 7.73671 5.83105H25.9704C27.4512 5.83105 28.3459 6.57132 28.4956 7.89883Z" fill="#0071E3"/>
<path d="M6.6216 32.7753H27.0718C29.9853 32.7753 31.449 31.3383 31.449 28.4919V14.3012C31.449 11.4548 29.9853 10.0177 27.0718 10.0177H6.6216C3.70811 10.0177 2.24438 11.4548 2.24438 14.3012V28.4919C2.24438 31.3383 3.70811 32.7753 6.6216 32.7753ZM6.66342 30.5506C5.2694 30.5506 4.48875 29.8045 4.48875 28.3675V14.4255C4.48875 12.9886 5.2694 12.2424 6.66342 12.2424H27.0439C28.41 12.2424 29.2046 12.9886 29.2046 14.4255V28.3675C29.2046 29.8045 28.41 30.5506 27.0439 30.5506H6.66342Z" fill="#0071E3"/>
<path d="M15.3342 27.9531C15.7942 27.9531 16.1845 27.7319 16.4494 27.3174L22.834 17.3687C22.9874 17.1062 23.1685 16.8022 23.1685 16.4844C23.1685 15.8764 22.6109 15.4757 22.0255 15.4757C21.663 15.4757 21.3145 15.683 21.0636 16.0975L15.2784 25.3L12.5322 21.7766C12.1976 21.3344 11.877 21.21 11.5006 21.21C10.9012 21.21 10.4272 21.6937 10.4272 22.3154C10.4272 22.6056 10.5527 22.9096 10.7479 23.1722L14.1353 27.3174C14.4977 27.7734 14.8602 27.9531 15.3342 27.9531Z" fill="#0071E3"/>
</g>
<defs>
<clipPath id="clip0_318_9">
<rect width="34" height="35" fill="white"/>
</clipPath>
</defs>
</svg>
