<svg width="746" height="69" viewBox="0 0 746 69" fill="none" xmlns="http://www.w3.org/2000/svg">
<path d="M493 15H670V22H493V15Z" fill="#0071E3"/>
<path d="M284 15H461V22H284V15Z" fill="#0071E3"/>
<path d="M75 15H252V22H75V15Z" fill="#0071E3"/>
<circle cx="686" cy="19" r="19" fill="#0071E3"/>
<path d="M680.37 23.3011V21.206L686.542 11.4545H688.289V14.4375H687.223L683.069 21.0213V21.1349H691.684V23.3011H680.37ZM687.309 26V22.6619L687.337 21.7244V11.4545H689.823V26H687.309Z" fill="white"/>
<path d="M637.817 49.4545H640.452V58.9574C640.452 59.9991 640.205 60.9152 639.713 61.706C639.225 62.4967 638.539 63.1146 637.653 63.5597C636.768 64 635.733 64.2202 634.55 64.2202C633.361 64.2202 632.324 64 631.439 63.5597C630.553 63.1146 629.867 62.4967 629.379 61.706C628.891 60.9152 628.648 59.9991 628.648 58.9574V49.4545H631.282V58.7372C631.282 59.3433 631.415 59.883 631.68 60.3565C631.95 60.83 632.329 61.2017 632.817 61.4716C633.304 61.7367 633.882 61.8693 634.55 61.8693C635.217 61.8693 635.795 61.7367 636.282 61.4716C636.775 61.2017 637.154 60.83 637.419 60.3565C637.684 59.883 637.817 59.3433 637.817 58.7372V49.4545ZM643.202 68.0909V53.0909H645.73V54.8949H645.879C646.012 54.6297 646.199 54.348 646.441 54.0497C646.682 53.7467 647.009 53.4886 647.421 53.2756C647.833 53.0578 648.358 52.9489 648.997 52.9489C649.84 52.9489 650.6 53.1643 651.277 53.5952C651.959 54.0213 652.499 54.6534 652.896 55.4915C653.299 56.3248 653.5 57.3475 653.5 58.5597C653.5 59.7576 653.304 60.7756 652.911 61.6136C652.518 62.4517 651.983 63.0909 651.306 63.5312C650.628 63.9716 649.861 64.1918 649.004 64.1918C648.379 64.1918 647.861 64.0876 647.449 63.8793C647.037 63.6709 646.706 63.42 646.455 63.1264C646.209 62.8281 646.017 62.5464 645.879 62.2812H645.773V68.0909H643.202ZM645.723 58.5455C645.723 59.2509 645.823 59.8688 646.021 60.3991C646.225 60.9295 646.516 61.3437 646.895 61.642C647.279 61.9356 647.743 62.0824 648.287 62.0824C648.855 62.0824 649.331 61.9309 649.715 61.6278C650.098 61.3201 650.387 60.901 650.581 60.3707C650.78 59.8357 650.879 59.2273 650.879 58.5455C650.879 57.8684 650.782 57.267 650.588 56.7415C650.394 56.2159 650.105 55.804 649.722 55.5057C649.338 55.2074 648.86 55.0582 648.287 55.0582C647.738 55.0582 647.271 55.2027 646.888 55.4915C646.504 55.7803 646.213 56.1851 646.014 56.706C645.82 57.2268 645.723 57.84 645.723 58.5455ZM658.273 49.4545V64H655.702V49.4545H658.273ZM665.675 64.2131C664.61 64.2131 663.687 63.9787 662.905 63.5099C662.124 63.0412 661.518 62.3854 661.087 61.5426C660.661 60.6998 660.448 59.715 660.448 58.5881C660.448 57.4612 660.661 56.474 661.087 55.6264C661.518 54.7789 662.124 54.1207 662.905 53.652C663.687 53.1832 664.61 52.9489 665.675 52.9489C666.741 52.9489 667.664 53.1832 668.445 53.652C669.226 54.1207 669.83 54.7789 670.256 55.6264C670.687 56.474 670.903 57.4612 670.903 58.5881C670.903 59.715 670.687 60.6998 670.256 61.5426C669.83 62.3854 669.226 63.0412 668.445 63.5099C667.664 63.9787 666.741 64.2131 665.675 64.2131ZM665.689 62.1534C666.267 62.1534 666.75 61.9948 667.138 61.6776C667.527 61.3556 667.815 60.9247 668.005 60.3849C668.199 59.8452 668.296 59.2438 668.296 58.581C668.296 57.9134 668.199 57.3097 668.005 56.7699C667.815 56.2254 667.527 55.7921 667.138 55.4702C666.75 55.1482 666.267 54.9872 665.689 54.9872C665.098 54.9872 664.605 55.1482 664.212 55.4702C663.824 55.7921 663.533 56.2254 663.339 56.7699C663.149 57.3097 663.055 57.9134 663.055 58.581C663.055 59.2438 663.149 59.8452 663.339 60.3849C663.533 60.9247 663.824 61.3556 664.212 61.6776C664.605 61.9948 665.098 62.1534 665.689 62.1534ZM676.224 64.2202C675.533 64.2202 674.91 64.0971 674.356 63.8509C673.807 63.5999 673.371 63.2306 673.049 62.7429C672.732 62.2552 672.573 61.6539 672.573 60.9389C672.573 60.3234 672.687 59.8144 672.914 59.4119C673.142 59.0095 673.452 58.6875 673.845 58.446C674.238 58.2045 674.68 58.0223 675.173 57.8991C675.67 57.7713 676.184 57.679 676.714 57.6222C677.353 57.5559 677.872 57.4967 678.269 57.4446C678.667 57.3878 678.956 57.3026 679.136 57.1889C679.32 57.0705 679.413 56.8883 679.413 56.642V56.5994C679.413 56.0644 679.254 55.6501 678.937 55.3565C678.62 55.063 678.163 54.9162 677.566 54.9162C676.936 54.9162 676.437 55.0535 676.068 55.3281C675.703 55.6027 675.457 55.9271 675.329 56.3011L672.928 55.9602C673.118 55.2973 673.43 54.7434 673.866 54.2983C674.302 53.8485 674.834 53.5123 675.464 53.2898C676.094 53.0625 676.79 52.9489 677.552 52.9489C678.078 52.9489 678.601 53.0104 679.122 53.1335C679.642 53.2566 680.118 53.4602 680.549 53.7443C680.98 54.0237 681.326 54.4048 681.586 54.8878C681.851 55.3707 681.984 55.9744 681.984 56.6989V64H679.512V62.5014H679.427C679.271 62.8045 679.051 63.0885 678.767 63.3537C678.487 63.6141 678.134 63.8248 677.708 63.9858C677.287 64.142 676.792 64.2202 676.224 64.2202ZM676.892 62.331C677.408 62.331 677.855 62.2292 678.234 62.0256C678.613 61.8172 678.904 61.5426 679.107 61.2017C679.316 60.8608 679.42 60.4891 679.42 60.0866V58.8011C679.339 58.8674 679.202 58.929 679.008 58.9858C678.819 59.0426 678.606 59.0923 678.369 59.1349C678.132 59.1776 677.898 59.2154 677.666 59.2486C677.434 59.2817 677.232 59.3101 677.062 59.3338C676.678 59.3859 676.335 59.4711 676.032 59.5895C675.729 59.7079 675.49 59.8736 675.315 60.0866C675.14 60.295 675.052 60.5649 675.052 60.8963C675.052 61.3698 675.225 61.7273 675.57 61.9688C675.916 62.2102 676.356 62.331 676.892 62.331ZM688.617 64.1918C687.76 64.1918 686.993 63.9716 686.316 63.5312C685.639 63.0909 685.104 62.4517 684.711 61.6136C684.318 60.7756 684.122 59.7576 684.122 58.5597C684.122 57.3475 684.32 56.3248 684.718 55.4915C685.121 54.6534 685.663 54.0213 686.345 53.5952C687.026 53.1643 687.786 52.9489 688.624 52.9489C689.264 52.9489 689.789 53.0578 690.201 53.2756C690.613 53.4886 690.94 53.7467 691.181 54.0497C691.423 54.348 691.61 54.6297 691.742 54.8949H691.849V49.4545H694.427V64H691.899V62.2812H691.742C691.61 62.5464 691.418 62.8281 691.167 63.1264C690.916 63.42 690.585 63.6709 690.173 63.8793C689.761 64.0876 689.242 64.1918 688.617 64.1918ZM689.335 62.0824C689.879 62.0824 690.343 61.9356 690.727 61.642C691.11 61.3437 691.401 60.9295 691.6 60.3991C691.799 59.8688 691.899 59.2509 691.899 58.5455C691.899 57.84 691.799 57.2268 691.6 56.706C691.406 56.1851 691.117 55.7803 690.734 55.4915C690.355 55.2027 689.889 55.0582 689.335 55.0582C688.762 55.0582 688.284 55.2074 687.9 55.5057C687.517 55.804 687.228 56.2159 687.034 56.7415C686.839 57.267 686.742 57.8684 686.742 58.5455C686.742 59.2273 686.839 59.8357 687.034 60.3707C687.232 60.901 687.524 61.3201 687.907 61.6278C688.295 61.9309 688.771 62.0824 689.335 62.0824ZM702.241 64V49.4545H711.559V51.6634H704.876V55.6122H710.92V57.821H704.876V64H702.241ZM713.846 64V53.0909H716.417V64H713.846ZM715.139 51.5426C714.732 51.5426 714.381 51.4077 714.088 51.1378C713.794 50.8632 713.648 50.5341 713.648 50.1506C713.648 49.7623 713.794 49.4332 714.088 49.1634C714.381 48.8887 714.732 48.7514 715.139 48.7514C715.551 48.7514 715.901 48.8887 716.19 49.1634C716.484 49.4332 716.631 49.7623 716.631 50.1506C716.631 50.5341 716.484 50.8632 716.19 51.1378C715.901 51.4077 715.551 51.5426 715.139 51.5426ZM721.632 49.4545V64H719.061V49.4545H721.632ZM729.106 64.2131C728.012 64.2131 727.067 63.9858 726.272 63.5312C725.481 63.072 724.873 62.4233 724.447 61.5852C724.02 60.7424 723.807 59.7505 723.807 58.6094C723.807 57.4872 724.02 56.5024 724.447 55.6548C724.877 54.8026 725.479 54.1397 726.251 53.6662C727.022 53.188 727.929 52.9489 728.971 52.9489C729.643 52.9489 730.278 53.0578 730.874 53.2756C731.475 53.4886 732.006 53.8201 732.465 54.2699C732.929 54.7197 733.294 55.2926 733.559 55.9886C733.824 56.6799 733.956 57.5038 733.956 58.4602V59.2486H725.015V57.5156H731.492C731.487 57.0232 731.381 56.5852 731.172 56.2017C730.964 55.8134 730.673 55.508 730.299 55.2855C729.93 55.063 729.499 54.9517 729.006 54.9517C728.481 54.9517 728.019 55.0795 727.621 55.3352C727.224 55.5862 726.913 55.9176 726.691 56.3295C726.473 56.7367 726.362 57.1842 726.357 57.6719V59.1847C726.357 59.8191 726.473 60.3636 726.705 60.8182C726.937 61.268 727.261 61.6136 727.678 61.8551C728.095 62.0919 728.582 62.2102 729.141 62.2102C729.515 62.2102 729.854 62.1581 730.157 62.054C730.46 61.9451 730.723 61.7865 730.945 61.5781C731.168 61.3698 731.336 61.1117 731.449 60.804L733.85 61.0739C733.698 61.7083 733.41 62.2623 732.983 62.7358C732.562 63.2045 732.022 63.5691 731.364 63.8295C730.706 64.0852 729.953 64.2131 729.106 64.2131ZM744.754 55.9744L742.41 56.2301C742.344 55.9934 742.228 55.7708 742.062 55.5625C741.901 55.3542 741.683 55.1861 741.409 55.0582C741.134 54.9304 740.798 54.8665 740.4 54.8665C739.865 54.8665 739.415 54.9825 739.051 55.2145C738.691 55.4465 738.513 55.7472 738.518 56.1165C738.513 56.4337 738.629 56.6918 738.866 56.8906C739.107 57.0895 739.505 57.2528 740.059 57.3807L741.92 57.7784C742.952 58.0009 743.719 58.3537 744.221 58.8366C744.728 59.3196 744.983 59.9517 744.988 60.733C744.983 61.4195 744.782 62.0256 744.384 62.5511C743.991 63.072 743.445 63.4792 742.744 63.7727C742.043 64.0663 741.238 64.2131 740.329 64.2131C738.994 64.2131 737.919 63.9337 737.105 63.375C736.29 62.8116 735.805 62.0279 735.649 61.0241L738.156 60.7827C738.269 61.2751 738.511 61.6468 738.88 61.8977C739.249 62.1487 739.73 62.2741 740.322 62.2741C740.933 62.2741 741.423 62.1487 741.792 61.8977C742.166 61.6468 742.353 61.3366 742.353 60.9673C742.353 60.6548 742.232 60.3968 741.991 60.1932C741.754 59.9896 741.385 59.8333 740.883 59.7244L739.022 59.3338C737.976 59.116 737.202 58.7491 736.7 58.233C736.198 57.7121 735.949 57.054 735.954 56.2585C735.949 55.5862 736.132 55.0038 736.501 54.5114C736.875 54.0142 737.393 53.6307 738.056 53.3608C738.724 53.0862 739.493 52.9489 740.365 52.9489C741.643 52.9489 742.649 53.2211 743.383 53.7656C744.122 54.3101 744.579 55.0464 744.754 55.9744Z" fill="black"/>
<circle cx="477" cy="19" r="19" fill="#0071E3"/>
<path d="M476.999 26.1989C475.976 26.1989 475.067 26.0237 474.272 25.6733C473.481 25.3229 472.856 24.8352 472.397 24.2102C471.938 23.5852 471.694 22.8632 471.665 22.044H474.336C474.359 22.437 474.49 22.7803 474.726 23.0739C474.963 23.3627 475.278 23.5876 475.671 23.7486C476.064 23.9096 476.504 23.9901 476.992 23.9901C477.513 23.9901 477.974 23.9001 478.377 23.7202C478.779 23.5355 479.094 23.2798 479.322 22.9531C479.549 22.6264 479.66 22.25 479.655 21.8239C479.66 21.3835 479.546 20.9953 479.314 20.6591C479.082 20.3229 478.746 20.0601 478.306 19.8707C477.87 19.6813 477.345 19.5866 476.729 19.5866H475.444V17.5554H476.729C477.236 17.5554 477.679 17.4678 478.057 17.2926C478.441 17.1174 478.742 16.8712 478.959 16.554C479.177 16.232 479.284 15.8603 479.279 15.4389C479.284 15.027 479.191 14.6695 479.002 14.3665C478.817 14.0587 478.555 13.8196 478.214 13.6491C477.877 13.4787 477.482 13.3935 477.028 13.3935C476.582 13.3935 476.171 13.474 475.792 13.6349C475.413 13.7959 475.108 14.0256 474.876 14.3239C474.644 14.6174 474.52 14.9678 474.506 15.375H471.971C471.99 14.5606 472.224 13.8456 472.674 13.2301C473.128 12.6098 473.734 12.1269 474.492 11.7812C475.25 11.4309 476.099 11.2557 477.042 11.2557C478.012 11.2557 478.855 11.438 479.57 11.8026C480.29 12.1624 480.846 12.6477 481.239 13.2585C481.632 13.8693 481.829 14.544 481.829 15.2827C481.833 16.1018 481.592 16.7884 481.104 17.3423C480.621 17.8963 479.987 18.2585 479.201 18.429V18.5426C480.224 18.6847 481.007 19.0634 481.552 19.679C482.101 20.2898 482.373 21.0497 482.368 21.9588C482.368 22.7732 482.136 23.5024 481.672 24.1463C481.213 24.7855 480.579 25.2874 479.769 25.652C478.964 26.0166 478.041 26.1989 476.999 26.1989Z" fill="white"/>
<path d="M404.923 63H402.673L406.77 51.3636H409.372L413.474 63H411.224L408.116 53.75H408.026L404.923 63ZM404.997 58.4375H411.134V60.1307H404.997V58.4375ZM417.889 63.1534C417.204 63.1534 416.59 62.9773 416.048 62.625C415.507 62.2727 415.079 61.7614 414.764 61.0909C414.45 60.4205 414.293 59.6061 414.293 58.6477C414.293 57.678 414.452 56.8598 414.77 56.1932C415.092 55.5227 415.526 55.017 416.071 54.6761C416.616 54.3314 417.224 54.1591 417.895 54.1591C418.406 54.1591 418.827 54.2462 419.156 54.4205C419.486 54.5909 419.747 54.7973 419.94 55.0398C420.134 55.2784 420.283 55.5038 420.389 55.7159H420.474V51.3636H422.537V63H420.514V61.625H420.389C420.283 61.8371 420.13 62.0625 419.929 62.3011C419.728 62.536 419.463 62.7367 419.134 62.9034C418.804 63.0701 418.389 63.1534 417.889 63.1534ZM418.463 61.4659C418.899 61.4659 419.27 61.3485 419.577 61.1136C419.884 60.875 420.116 60.5436 420.276 60.1193C420.435 59.6951 420.514 59.2008 420.514 58.6364C420.514 58.072 420.435 57.5814 420.276 57.1648C420.12 56.7481 419.889 56.4242 419.582 56.1932C419.279 55.9621 418.906 55.8466 418.463 55.8466C418.005 55.8466 417.622 55.9659 417.315 56.2045C417.009 56.4432 416.777 56.7727 416.622 57.1932C416.467 57.6136 416.389 58.0947 416.389 58.6364C416.389 59.1818 416.467 59.6686 416.622 60.0966C416.781 60.5208 417.014 60.8561 417.321 61.1023C417.632 61.3447 418.012 61.4659 418.463 61.4659ZM427.967 63.1534C427.282 63.1534 426.668 62.9773 426.126 62.625C425.585 62.2727 425.157 61.7614 424.842 61.0909C424.528 60.4205 424.371 59.6061 424.371 58.6477C424.371 57.678 424.53 56.8598 424.848 56.1932C425.17 55.5227 425.604 55.017 426.149 54.6761C426.695 54.3314 427.303 54.1591 427.973 54.1591C428.484 54.1591 428.905 54.2462 429.234 54.4205C429.564 54.5909 429.825 54.7973 430.018 55.0398C430.212 55.2784 430.361 55.5038 430.467 55.7159H430.553V51.3636H432.615V63H430.592V61.625H430.467C430.361 61.8371 430.208 62.0625 430.007 62.3011C429.806 62.536 429.541 62.7367 429.212 62.9034C428.882 63.0701 428.467 63.1534 427.967 63.1534ZM428.541 61.4659C428.977 61.4659 429.348 61.3485 429.655 61.1136C429.962 60.875 430.195 60.5436 430.354 60.1193C430.513 59.6951 430.592 59.2008 430.592 58.6364C430.592 58.072 430.513 57.5814 430.354 57.1648C430.198 56.7481 429.967 56.4242 429.661 56.1932C429.357 55.9621 428.984 55.8466 428.541 55.8466C428.083 55.8466 427.7 55.9659 427.393 56.2045C427.087 56.4432 426.856 56.7727 426.7 57.1932C426.545 57.6136 426.467 58.0947 426.467 58.6364C426.467 59.1818 426.545 59.6686 426.7 60.0966C426.859 60.5208 427.092 60.8561 427.399 61.1023C427.71 61.3447 428.09 61.4659 428.541 61.4659ZM434.807 63V54.2727H436.864V63H434.807ZM435.841 53.0341C435.515 53.0341 435.235 52.9261 435 52.7102C434.765 52.4905 434.648 52.2273 434.648 51.9205C434.648 51.6098 434.765 51.3466 435 51.1307C435.235 50.911 435.515 50.8011 435.841 50.8011C436.17 50.8011 436.451 50.911 436.682 51.1307C436.917 51.3466 437.034 51.6098 437.034 51.9205C437.034 52.2273 436.917 52.4905 436.682 52.7102C436.451 52.9261 436.17 53.0341 435.841 53.0341ZM443.337 54.2727V55.8636H438.32V54.2727H443.337ZM439.558 52.1818H441.615V60.375C441.615 60.6515 441.657 60.8636 441.74 61.0114C441.827 61.1553 441.941 61.2538 442.081 61.3068C442.221 61.3598 442.376 61.3864 442.547 61.3864C442.676 61.3864 442.793 61.3769 442.899 61.358C443.009 61.339 443.092 61.322 443.149 61.3068L443.496 62.9148C443.386 62.9527 443.229 62.9943 443.024 63.0398C442.823 63.0852 442.577 63.1117 442.286 63.1193C441.77 63.1345 441.306 63.0568 440.893 62.8864C440.481 62.7121 440.153 62.4432 439.911 62.0795C439.672 61.7159 439.554 61.2614 439.558 60.7159V52.1818ZM445.057 63V54.2727H447.114V63H445.057ZM446.091 53.0341C445.765 53.0341 445.485 52.9261 445.25 52.7102C445.015 52.4905 444.898 52.2273 444.898 51.9205C444.898 51.6098 445.015 51.3466 445.25 51.1307C445.485 50.911 445.765 50.8011 446.091 50.8011C446.42 50.8011 446.701 50.911 446.932 51.1307C447.167 51.3466 447.284 51.6098 447.284 51.9205C447.284 52.2273 447.167 52.4905 446.932 52.7102C446.701 52.9261 446.42 53.0341 446.091 53.0341ZM453.036 63.1705C452.183 63.1705 451.445 62.983 450.82 62.608C450.195 62.233 449.71 61.7083 449.365 61.0341C449.024 60.3598 448.854 59.572 448.854 58.6705C448.854 57.7689 449.024 56.9792 449.365 56.3011C449.71 55.6231 450.195 55.0966 450.82 54.7216C451.445 54.3466 452.183 54.1591 453.036 54.1591C453.888 54.1591 454.626 54.3466 455.251 54.7216C455.876 55.0966 456.359 55.6231 456.7 56.3011C457.045 56.9792 457.217 57.7689 457.217 58.6705C457.217 59.572 457.045 60.3598 456.7 61.0341C456.359 61.7083 455.876 62.233 455.251 62.608C454.626 62.983 453.888 63.1705 453.036 63.1705ZM453.047 61.5227C453.509 61.5227 453.895 61.3958 454.206 61.142C454.517 60.8845 454.748 60.5398 454.899 60.108C455.054 59.6761 455.132 59.1951 455.132 58.6648C455.132 58.1307 455.054 57.6477 454.899 57.2159C454.748 56.7803 454.517 56.4337 454.206 56.1761C453.895 55.9186 453.509 55.7898 453.047 55.7898C452.573 55.7898 452.179 55.9186 451.865 56.1761C451.554 56.4337 451.321 56.7803 451.166 57.2159C451.015 57.6477 450.939 58.1307 450.939 58.6648C450.939 59.1951 451.015 59.6761 451.166 60.108C451.321 60.5398 451.554 60.8845 451.865 61.142C452.179 61.3958 452.573 61.5227 453.047 61.5227ZM461.02 57.8864V63H458.963V54.2727H460.929V55.7557H461.031C461.232 55.267 461.552 54.8788 461.991 54.5909C462.435 54.303 462.982 54.1591 463.634 54.1591C464.236 54.1591 464.76 54.2879 465.207 54.5455C465.658 54.803 466.007 55.1761 466.253 55.6648C466.503 56.1534 466.626 56.7462 466.622 57.4432V63H464.565V57.7614C464.565 57.178 464.414 56.7216 464.111 56.392C463.812 56.0625 463.397 55.8977 462.866 55.8977C462.507 55.8977 462.187 55.9773 461.906 56.1364C461.63 56.2917 461.412 56.517 461.253 56.8125C461.098 57.108 461.02 57.4659 461.02 57.8864ZM471.224 63.1761C470.671 63.1761 470.173 63.0777 469.73 62.8807C469.291 62.6799 468.942 62.3845 468.685 61.9943C468.431 61.6042 468.304 61.1231 468.304 60.5511C468.304 60.0587 468.395 59.6515 468.577 59.3295C468.759 59.0076 469.007 58.75 469.321 58.5568C469.635 58.3636 469.99 58.2178 470.384 58.1193C470.781 58.017 471.192 57.9432 471.616 57.8977C472.128 57.8447 472.543 57.7973 472.861 57.7557C473.179 57.7102 473.41 57.642 473.554 57.5511C473.702 57.4564 473.776 57.3106 473.776 57.1136V57.0795C473.776 56.6515 473.649 56.3201 473.395 56.0852C473.141 55.8504 472.776 55.733 472.298 55.733C471.795 55.733 471.395 55.8428 471.099 56.0625C470.808 56.2822 470.611 56.5417 470.509 56.8409L468.588 56.5682C468.74 56.0379 468.99 55.5947 469.338 55.2386C469.687 54.8788 470.113 54.6098 470.616 54.4318C471.12 54.25 471.677 54.1591 472.287 54.1591C472.707 54.1591 473.126 54.2083 473.543 54.3068C473.959 54.4053 474.34 54.5682 474.685 54.7955C475.029 55.0189 475.306 55.3239 475.514 55.7102C475.726 56.0966 475.832 56.5795 475.832 57.1591V63H473.855V61.8011H473.787C473.662 62.0436 473.486 62.2708 473.259 62.483C473.035 62.6913 472.753 62.8598 472.412 62.9886C472.075 63.1136 471.679 63.1761 471.224 63.1761ZM471.759 61.6648C472.171 61.6648 472.529 61.5833 472.832 61.4205C473.135 61.2538 473.368 61.0341 473.531 60.7614C473.698 60.4886 473.781 60.1913 473.781 59.8693V58.8409C473.717 58.8939 473.607 58.9432 473.452 58.9886C473.3 59.0341 473.13 59.0739 472.94 59.108C472.751 59.142 472.563 59.1723 472.378 59.1989C472.192 59.2254 472.031 59.2481 471.895 59.267C471.588 59.3087 471.313 59.3769 471.071 59.4716C470.829 59.5663 470.637 59.6989 470.497 59.8693C470.357 60.036 470.287 60.2519 470.287 60.517C470.287 60.8958 470.425 61.1818 470.702 61.375C470.978 61.5682 471.33 61.6648 471.759 61.6648ZM479.957 51.3636V63H477.901V51.3636H479.957ZM492.456 54.5625C492.403 54.0663 492.179 53.6799 491.786 53.4034C491.395 53.1269 490.888 52.9886 490.263 52.9886C489.823 52.9886 489.446 53.0549 489.132 53.1875C488.818 53.3201 488.577 53.5 488.411 53.7273C488.244 53.9545 488.159 54.214 488.155 54.5057C488.155 54.7481 488.21 54.9583 488.32 55.1364C488.433 55.3144 488.587 55.4659 488.78 55.5909C488.973 55.7121 489.187 55.8144 489.422 55.8977C489.657 55.9811 489.893 56.0511 490.132 56.108L491.223 56.3807C491.662 56.483 492.085 56.6212 492.49 56.7955C492.899 56.9697 493.265 57.1894 493.587 57.4545C493.912 57.7197 494.17 58.0398 494.359 58.4148C494.549 58.7898 494.643 59.2292 494.643 59.733C494.643 60.4148 494.469 61.0152 494.121 61.5341C493.772 62.0492 493.268 62.4527 492.609 62.7443C491.954 63.0322 491.161 63.1761 490.229 63.1761C489.323 63.1761 488.537 63.036 487.871 62.7557C487.208 62.4754 486.689 62.0663 486.314 61.5284C485.943 60.9905 485.742 60.3352 485.712 59.5625H487.786C487.816 59.9678 487.941 60.3049 488.161 60.5739C488.38 60.8428 488.666 61.0436 489.018 61.1761C489.375 61.3087 489.772 61.375 490.212 61.375C490.67 61.375 491.071 61.3068 491.416 61.1705C491.765 61.0303 492.037 60.8371 492.234 60.5909C492.431 60.3409 492.532 60.0492 492.536 59.7159C492.532 59.4129 492.443 59.1629 492.268 58.9659C492.094 58.7652 491.85 58.5985 491.536 58.4659C491.225 58.3295 490.861 58.2083 490.445 58.1023L489.121 57.7614C488.162 57.5152 487.405 57.142 486.848 56.642C486.295 56.1383 486.018 55.4697 486.018 54.6364C486.018 53.9508 486.204 53.3504 486.575 52.8352C486.95 52.3201 487.46 51.9205 488.104 51.6364C488.748 51.3485 489.477 51.2045 490.291 51.2045C491.117 51.2045 491.84 51.3485 492.462 51.6364C493.087 51.9205 493.577 52.3163 493.933 52.8239C494.289 53.3277 494.473 53.9072 494.484 54.5625H492.456ZM500.295 63.1705C499.42 63.1705 498.665 62.9886 498.028 62.625C497.396 62.2576 496.909 61.7386 496.568 61.0682C496.227 60.3939 496.057 59.6004 496.057 58.6875C496.057 57.7898 496.227 57.0019 496.568 56.3239C496.913 55.642 497.394 55.1117 498.011 54.733C498.629 54.3504 499.354 54.1591 500.188 54.1591C500.725 54.1591 501.233 54.2462 501.71 54.4205C502.191 54.5909 502.616 54.8561 502.983 55.2159C503.354 55.5758 503.646 56.0341 503.858 56.5909C504.07 57.1439 504.176 57.803 504.176 58.5682V59.1989H497.023V57.8125H502.205C502.201 57.4186 502.116 57.0682 501.949 56.7614C501.782 56.4508 501.549 56.2064 501.25 56.0284C500.955 55.8504 500.61 55.7614 500.216 55.7614C499.795 55.7614 499.426 55.8636 499.108 56.0682C498.79 56.2689 498.542 56.5341 498.364 56.8636C498.189 57.1894 498.1 57.5473 498.097 57.9375V59.1477C498.097 59.6553 498.189 60.0909 498.375 60.4545C498.561 60.8144 498.82 61.0909 499.153 61.2841C499.487 61.4735 499.877 61.5682 500.324 61.5682C500.623 61.5682 500.894 61.5265 501.136 61.4432C501.379 61.3561 501.589 61.2292 501.767 61.0625C501.945 60.8958 502.08 60.6894 502.17 60.4432L504.091 60.6591C503.97 61.1667 503.739 61.6098 503.398 61.9886C503.061 62.3636 502.629 62.6553 502.102 62.8636C501.576 63.0682 500.973 63.1705 500.295 63.1705ZM510.274 54.2727V55.8636H505.257V54.2727H510.274ZM506.496 52.1818H508.553V60.375C508.553 60.6515 508.594 60.8636 508.678 61.0114C508.765 61.1553 508.878 61.2538 509.018 61.3068C509.159 61.3598 509.314 61.3864 509.484 61.3864C509.613 61.3864 509.731 61.3769 509.837 61.358C509.946 61.339 510.03 61.322 510.087 61.3068L510.433 62.9148C510.323 62.9527 510.166 62.9943 509.962 63.0398C509.761 63.0852 509.515 63.1117 509.223 63.1193C508.708 63.1345 508.244 63.0568 507.831 62.8864C507.418 62.7121 507.09 62.4432 506.848 62.0795C506.609 61.7159 506.492 61.2614 506.496 60.7159V52.1818ZM516.352 54.2727V55.8636H511.335V54.2727H516.352ZM512.574 52.1818H514.631V60.375C514.631 60.6515 514.672 60.8636 514.756 61.0114C514.843 61.1553 514.956 61.2538 515.097 61.3068C515.237 61.3598 515.392 61.3864 515.562 61.3864C515.691 61.3864 515.809 61.3769 515.915 61.358C516.025 61.339 516.108 61.322 516.165 61.3068L516.511 62.9148C516.402 62.9527 516.244 62.9943 516.04 63.0398C515.839 63.0852 515.593 63.1117 515.301 63.1193C514.786 63.1345 514.322 63.0568 513.909 62.8864C513.496 62.7121 513.169 62.4432 512.926 62.0795C512.688 61.7159 512.57 61.2614 512.574 60.7159V52.1818ZM518.072 63V54.2727H520.129V63H518.072ZM519.107 53.0341C518.781 53.0341 518.5 52.9261 518.266 52.7102C518.031 52.4905 517.913 52.2273 517.913 51.9205C517.913 51.6098 518.031 51.3466 518.266 51.1307C518.5 50.911 518.781 50.8011 519.107 50.8011C519.436 50.8011 519.716 50.911 519.947 51.1307C520.182 51.3466 520.3 51.6098 520.3 51.9205C520.3 52.2273 520.182 52.4905 519.947 52.7102C519.716 52.9261 519.436 53.0341 519.107 53.0341ZM524.301 57.8864V63H522.244V54.2727H524.21V55.7557H524.312C524.513 55.267 524.833 54.8788 525.273 54.5909C525.716 54.303 526.263 54.1591 526.915 54.1591C527.517 54.1591 528.042 54.2879 528.489 54.5455C528.939 54.803 529.288 55.1761 529.534 55.6648C529.784 56.1534 529.907 56.7462 529.903 57.4432V63H527.847V57.7614C527.847 57.178 527.695 56.7216 527.392 56.392C527.093 56.0625 526.678 55.8977 526.148 55.8977C525.788 55.8977 525.468 55.9773 525.188 56.1364C524.911 56.2917 524.693 56.517 524.534 56.8125C524.379 57.108 524.301 57.4659 524.301 57.8864ZM535.79 66.4545C535.051 66.4545 534.417 66.3542 533.886 66.1534C533.356 65.9564 532.93 65.6913 532.608 65.358C532.286 65.0246 532.062 64.6553 531.938 64.25L533.79 63.8011C533.873 63.9716 533.994 64.1402 534.153 64.3068C534.313 64.4773 534.527 64.6174 534.795 64.7273C535.068 64.8409 535.411 64.8977 535.824 64.8977C536.407 64.8977 536.89 64.7557 537.273 64.4716C537.655 64.1913 537.847 63.7292 537.847 63.0852V61.4318H537.744C537.638 61.6439 537.483 61.8617 537.278 62.0852C537.078 62.3087 536.811 62.4962 536.477 62.6477C536.148 62.7992 535.733 62.875 535.233 62.875C534.562 62.875 533.955 62.7178 533.409 62.4034C532.867 62.0852 532.436 61.6117 532.114 60.983C531.795 60.3504 531.636 59.5587 531.636 58.608C531.636 57.6496 531.795 56.8409 532.114 56.1818C532.436 55.5189 532.869 55.017 533.415 54.6761C533.96 54.3314 534.568 54.1591 535.239 54.1591C535.75 54.1591 536.17 54.2462 536.5 54.4205C536.833 54.5909 537.098 54.7973 537.295 55.0398C537.492 55.2784 537.642 55.5038 537.744 55.7159H537.858V54.2727H539.886V63.142C539.886 63.8883 539.708 64.5057 539.352 64.9943C538.996 65.483 538.509 65.8485 537.892 66.0909C537.275 66.3333 536.574 66.4545 535.79 66.4545ZM535.807 61.2614C536.242 61.2614 536.614 61.1553 536.92 60.9432C537.227 60.7311 537.46 60.4261 537.619 60.0284C537.778 59.6307 537.858 59.1534 537.858 58.5966C537.858 58.0473 537.778 57.5663 537.619 57.1534C537.464 56.7405 537.233 56.4205 536.926 56.1932C536.623 55.9621 536.25 55.8466 535.807 55.8466C535.348 55.8466 534.966 55.9659 534.659 56.2045C534.352 56.4432 534.121 56.7708 533.966 57.1875C533.811 57.6004 533.733 58.0701 533.733 58.5966C533.733 59.1307 533.811 59.5985 533.966 60C534.125 60.3977 534.358 60.7083 534.665 60.9318C534.975 61.1515 535.356 61.2614 535.807 61.2614ZM548.892 56.5795L547.017 56.7841C546.964 56.5947 546.871 56.4167 546.739 56.25C546.61 56.0833 546.436 55.9489 546.216 55.8466C545.996 55.7443 545.727 55.6932 545.409 55.6932C544.981 55.6932 544.621 55.786 544.33 55.9716C544.042 56.1572 543.9 56.3977 543.903 56.6932C543.9 56.947 543.992 57.1534 544.182 57.3125C544.375 57.4716 544.693 57.6023 545.136 57.7045L546.625 58.0227C547.451 58.2008 548.064 58.483 548.466 58.8693C548.871 59.2557 549.076 59.7614 549.08 60.3864C549.076 60.9356 548.915 61.4205 548.597 61.8409C548.282 62.2576 547.845 62.5833 547.284 62.8182C546.723 63.053 546.08 63.1705 545.352 63.1705C544.284 63.1705 543.424 62.947 542.773 62.5C542.121 62.0492 541.733 61.4223 541.608 60.6193L543.614 60.4261C543.705 60.8201 543.898 61.1174 544.193 61.3182C544.489 61.5189 544.873 61.6193 545.347 61.6193C545.835 61.6193 546.227 61.5189 546.523 61.3182C546.822 61.1174 546.972 60.8693 546.972 60.5739C546.972 60.3239 546.875 60.1174 546.682 59.9545C546.492 59.7917 546.197 59.6667 545.795 59.5795L544.307 59.267C543.47 59.0928 542.85 58.7992 542.449 58.3864C542.047 57.9697 541.848 57.4432 541.852 56.8068C541.848 56.2689 541.994 55.803 542.29 55.4091C542.589 55.0114 543.004 54.7045 543.534 54.4886C544.068 54.2689 544.684 54.1591 545.381 54.1591C546.403 54.1591 547.208 54.3769 547.795 54.8125C548.386 55.2481 548.752 55.8371 548.892 56.5795Z" fill="#0071E3"/>
<circle cx="268" cy="19" r="19" fill="#0071E3"/>
<path d="M263.582 26V24.0966L268.631 19.1463C269.114 18.6586 269.517 18.2254 269.839 17.8466C270.161 17.4678 270.402 17.1009 270.563 16.7457C270.724 16.3906 270.805 16.0118 270.805 15.6094C270.805 15.1501 270.701 14.7571 270.492 14.4304C270.284 14.099 269.997 13.8433 269.633 13.6634C269.268 13.4834 268.854 13.3935 268.39 13.3935C267.912 13.3935 267.493 13.4929 267.133 13.6918C266.773 13.8859 266.494 14.1629 266.295 14.5227C266.101 14.8826 266.004 15.3111 266.004 15.8082H263.496C263.496 14.8849 263.707 14.0824 264.129 13.4006C264.55 12.7187 265.13 12.1908 265.869 11.8168C266.612 11.4427 267.464 11.2557 268.425 11.2557C269.401 11.2557 270.258 11.438 270.996 11.8026C271.735 12.1671 272.308 12.6667 272.715 13.3011C273.127 13.9356 273.333 14.66 273.333 15.4744C273.333 16.0189 273.229 16.554 273.021 17.0795C272.812 17.6051 272.445 18.1875 271.92 18.8267C271.399 19.4659 270.667 20.2401 269.725 21.1491L267.218 23.6989V23.7983H273.553V26H263.582Z" fill="white"/>
<path d="M201.785 53.1307V51.3636H211.069V53.1307H207.472V63H205.381V53.1307H201.785ZM215.366 63.1705C214.491 63.1705 213.735 62.9886 213.099 62.625C212.466 62.2576 211.979 61.7386 211.638 61.0682C211.298 60.3939 211.127 59.6004 211.127 58.6875C211.127 57.7898 211.298 57.0019 211.638 56.3239C211.983 55.642 212.464 55.1117 213.082 54.733C213.699 54.3504 214.424 54.1591 215.258 54.1591C215.796 54.1591 216.303 54.2462 216.781 54.4205C217.262 54.5909 217.686 54.8561 218.053 55.2159C218.424 55.5758 218.716 56.0341 218.928 56.5909C219.14 57.1439 219.246 57.803 219.246 58.5682V59.1989H212.093V57.8125H217.275C217.271 57.4186 217.186 57.0682 217.019 56.7614C216.853 56.4508 216.62 56.2064 216.32 56.0284C216.025 55.8504 215.68 55.7614 215.286 55.7614C214.866 55.7614 214.496 55.8636 214.178 56.0682C213.86 56.2689 213.612 56.5341 213.434 56.8636C213.26 57.1894 213.171 57.5473 213.167 57.9375V59.1477C213.167 59.6553 213.26 60.0909 213.445 60.4545C213.631 60.8144 213.89 61.0909 214.224 61.2841C214.557 61.4735 214.947 61.5682 215.394 61.5682C215.693 61.5682 215.964 61.5265 216.207 61.4432C216.449 61.3561 216.659 61.2292 216.837 61.0625C217.015 60.8958 217.15 60.6894 217.241 60.4432L219.161 60.6591C219.04 61.1667 218.809 61.6098 218.468 61.9886C218.131 62.3636 217.699 62.6553 217.173 62.8636C216.646 63.0682 216.044 63.1705 215.366 63.1705ZM227.884 56.5795L226.009 56.7841C225.956 56.5947 225.863 56.4167 225.731 56.25C225.602 56.0833 225.428 55.9489 225.208 55.8466C224.988 55.7443 224.719 55.6932 224.401 55.6932C223.973 55.6932 223.613 55.786 223.322 55.9716C223.034 56.1572 222.892 56.3977 222.896 56.6932C222.892 56.947 222.985 57.1534 223.174 57.3125C223.367 57.4716 223.685 57.6023 224.129 57.7045L225.617 58.0227C226.443 58.2008 227.057 58.483 227.458 58.8693C227.863 59.2557 228.068 59.7614 228.072 60.3864C228.068 60.9356 227.907 61.4205 227.589 61.8409C227.274 62.2576 226.837 62.5833 226.276 62.8182C225.716 63.053 225.072 63.1705 224.344 63.1705C223.276 63.1705 222.416 62.947 221.765 62.5C221.113 62.0492 220.725 61.4223 220.6 60.6193L222.606 60.4261C222.697 60.8201 222.89 61.1174 223.185 61.3182C223.481 61.5189 223.865 61.6193 224.339 61.6193C224.827 61.6193 225.219 61.5189 225.515 61.3182C225.814 61.1174 225.964 60.8693 225.964 60.5739C225.964 60.3239 225.867 60.1174 225.674 59.9545C225.485 59.7917 225.189 59.6667 224.788 59.5795L223.299 59.267C222.462 59.0928 221.843 58.7992 221.441 58.3864C221.04 57.9697 220.841 57.4432 220.844 56.8068C220.841 56.2689 220.987 55.803 221.282 55.4091C221.581 55.0114 221.996 54.7045 222.526 54.4886C223.06 54.2689 223.676 54.1591 224.373 54.1591C225.396 54.1591 226.201 54.3769 226.788 54.8125C227.379 55.2481 227.744 55.8371 227.884 56.5795ZM234.126 54.2727V55.8636H229.109V54.2727H234.126ZM230.347 52.1818H232.404V60.375C232.404 60.6515 232.446 60.8636 232.529 61.0114C232.616 61.1553 232.73 61.2538 232.87 61.3068C233.01 61.3598 233.165 61.3864 233.336 61.3864C233.465 61.3864 233.582 61.3769 233.688 61.358C233.798 61.339 233.881 61.322 233.938 61.3068L234.285 62.9148C234.175 62.9527 234.018 62.9943 233.813 63.0398C233.612 63.0852 233.366 63.1117 233.075 63.1193C232.559 63.1345 232.095 63.0568 231.683 62.8864C231.27 62.7121 230.942 62.4432 230.7 62.0795C230.461 61.7159 230.344 61.2614 230.347 60.7159V52.1818ZM249.866 55.2898H247.741C247.68 54.9413 247.568 54.6326 247.406 54.3636C247.243 54.0909 247.04 53.8598 246.798 53.6705C246.555 53.4811 246.279 53.339 245.968 53.2443C245.661 53.1458 245.33 53.0966 244.974 53.0966C244.341 53.0966 243.781 53.2557 243.292 53.5739C242.803 53.8883 242.421 54.3504 242.144 54.9602C241.868 55.5663 241.729 56.3068 241.729 57.1818C241.729 58.072 241.868 58.822 242.144 59.4318C242.424 60.0379 242.807 60.4962 243.292 60.8068C243.781 61.1136 244.339 61.267 244.968 61.267C245.317 61.267 245.642 61.2216 245.945 61.1307C246.252 61.036 246.527 60.8977 246.769 60.7159C247.015 60.5341 247.222 60.3106 247.388 60.0455C247.559 59.7803 247.676 59.4773 247.741 59.1364L249.866 59.1477C249.786 59.7008 249.614 60.2197 249.349 60.7045C249.087 61.1894 248.745 61.6174 248.32 61.9886C247.896 62.3561 247.4 62.6439 246.832 62.8523C246.263 63.0568 245.633 63.1591 244.94 63.1591C243.917 63.1591 243.004 62.9223 242.201 62.4489C241.398 61.9754 240.765 61.2917 240.303 60.3977C239.841 59.5038 239.61 58.4318 239.61 57.1818C239.61 55.928 239.843 54.8561 240.309 53.9659C240.775 53.072 241.409 52.3883 242.212 51.9148C243.015 51.4413 243.924 51.2045 244.94 51.2045C245.587 51.2045 246.19 51.2955 246.746 51.4773C247.303 51.6591 247.799 51.9261 248.235 52.2784C248.671 52.6269 249.029 53.0549 249.309 53.5625C249.593 54.0663 249.779 54.642 249.866 55.2898ZM254.217 63.1761C253.664 63.1761 253.165 63.0777 252.722 62.8807C252.283 62.6799 251.934 62.3845 251.677 61.9943C251.423 61.6042 251.296 61.1231 251.296 60.5511C251.296 60.0587 251.387 59.6515 251.569 59.3295C251.751 59.0076 251.999 58.75 252.313 58.5568C252.628 58.3636 252.982 58.2178 253.376 58.1193C253.773 58.017 254.184 57.9432 254.609 57.8977C255.12 57.8447 255.535 57.7973 255.853 57.7557C256.171 57.7102 256.402 57.642 256.546 57.5511C256.694 57.4564 256.768 57.3106 256.768 57.1136V57.0795C256.768 56.6515 256.641 56.3201 256.387 56.0852C256.133 55.8504 255.768 55.733 255.29 55.733C254.787 55.733 254.387 55.8428 254.092 56.0625C253.8 56.2822 253.603 56.5417 253.501 56.8409L251.58 56.5682C251.732 56.0379 251.982 55.5947 252.33 55.2386C252.679 54.8788 253.105 54.6098 253.609 54.4318C254.112 54.25 254.669 54.1591 255.279 54.1591C255.7 54.1591 256.118 54.2083 256.535 54.3068C256.951 54.4053 257.332 54.5682 257.677 54.7955C258.022 55.0189 258.298 55.3239 258.506 55.7102C258.719 56.0966 258.825 56.5795 258.825 57.1591V63H256.847V61.8011H256.779C256.654 62.0436 256.478 62.2708 256.251 62.483C256.027 62.6913 255.745 62.8598 255.404 62.9886C255.067 63.1136 254.671 63.1761 254.217 63.1761ZM254.751 61.6648C255.164 61.6648 255.522 61.5833 255.825 61.4205C256.128 61.2538 256.361 61.0341 256.523 60.7614C256.69 60.4886 256.773 60.1913 256.773 59.8693V58.8409C256.709 58.8939 256.599 58.9432 256.444 58.9886C256.292 59.0341 256.122 59.0739 255.933 59.108C255.743 59.142 255.556 59.1723 255.37 59.1989C255.184 59.2254 255.023 59.2481 254.887 59.267C254.58 59.3087 254.306 59.3769 254.063 59.4716C253.821 59.5663 253.629 59.6989 253.489 59.8693C253.349 60.036 253.279 60.2519 253.279 60.517C253.279 60.8958 253.417 61.1818 253.694 61.375C253.97 61.5682 254.323 61.6648 254.751 61.6648ZM267.79 56.5795L265.915 56.7841C265.862 56.5947 265.77 56.4167 265.637 56.25C265.508 56.0833 265.334 55.9489 265.114 55.8466C264.895 55.7443 264.626 55.6932 264.308 55.6932C263.879 55.6932 263.52 55.786 263.228 55.9716C262.94 56.1572 262.798 56.3977 262.802 56.6932C262.798 56.947 262.891 57.1534 263.08 57.3125C263.273 57.4716 263.592 57.6023 264.035 57.7045L265.523 58.0227C266.349 58.2008 266.963 58.483 267.364 58.8693C267.77 59.2557 267.974 59.7614 267.978 60.3864C267.974 60.9356 267.813 61.4205 267.495 61.8409C267.181 62.2576 266.743 62.5833 266.183 62.8182C265.622 63.053 264.978 63.1705 264.251 63.1705C263.183 63.1705 262.323 62.947 261.671 62.5C261.02 62.0492 260.631 61.4223 260.506 60.6193L262.512 60.4261C262.603 60.8201 262.796 61.1174 263.092 61.3182C263.387 61.5189 263.772 61.6193 264.245 61.6193C264.734 61.6193 265.126 61.5189 265.421 61.3182C265.72 61.1174 265.87 60.8693 265.87 60.5739C265.87 60.3239 265.773 60.1174 265.58 59.9545C265.391 59.7917 265.095 59.6667 264.694 59.5795L263.205 59.267C262.368 59.0928 261.749 58.7992 261.347 58.3864C260.946 57.9697 260.747 57.4432 260.751 56.8068C260.747 56.2689 260.893 55.803 261.188 55.4091C261.487 55.0114 261.902 54.7045 262.433 54.4886C262.967 54.2689 263.582 54.1591 264.279 54.1591C265.302 54.1591 266.107 54.3769 266.694 54.8125C267.285 55.2481 267.65 55.8371 267.79 56.5795ZM273.538 63.1705C272.663 63.1705 271.907 62.9886 271.271 62.625C270.638 62.2576 270.151 61.7386 269.81 61.0682C269.469 60.3939 269.299 59.6004 269.299 58.6875C269.299 57.7898 269.469 57.0019 269.81 56.3239C270.155 55.642 270.636 55.1117 271.254 54.733C271.871 54.3504 272.596 54.1591 273.43 54.1591C273.968 54.1591 274.475 54.2462 274.952 54.4205C275.433 54.5909 275.858 54.8561 276.225 55.2159C276.596 55.5758 276.888 56.0341 277.1 56.5909C277.312 57.1439 277.418 57.803 277.418 58.5682V59.1989H270.265V57.8125H275.447C275.443 57.4186 275.358 57.0682 275.191 56.7614C275.024 56.4508 274.791 56.2064 274.492 56.0284C274.197 55.8504 273.852 55.7614 273.458 55.7614C273.038 55.7614 272.668 55.8636 272.35 56.0682C272.032 56.2689 271.784 56.5341 271.606 56.8636C271.432 57.1894 271.343 57.5473 271.339 57.9375V59.1477C271.339 59.6553 271.432 60.0909 271.617 60.4545C271.803 60.8144 272.062 61.0909 272.396 61.2841C272.729 61.4735 273.119 61.5682 273.566 61.5682C273.865 61.5682 274.136 61.5265 274.379 61.4432C274.621 61.3561 274.831 61.2292 275.009 61.0625C275.187 60.8958 275.322 60.6894 275.413 60.4432L277.333 60.6591C277.212 61.1667 276.981 61.6098 276.64 61.9886C276.303 62.3636 275.871 62.6553 275.344 62.8636C274.818 63.0682 274.216 63.1705 273.538 63.1705ZM287.161 63H283.218V51.3636H287.241C288.396 51.3636 289.388 51.5966 290.218 52.0625C291.051 52.5246 291.692 53.1894 292.138 54.0568C292.585 54.9242 292.809 55.9621 292.809 57.1705C292.809 58.3826 292.584 59.4242 292.133 60.2955C291.686 61.1667 291.04 61.8352 290.195 62.3011C289.354 62.767 288.343 63 287.161 63ZM285.326 61.1761H287.059C287.87 61.1761 288.546 61.0284 289.087 60.733C289.629 60.4337 290.036 59.9886 290.309 59.3977C290.582 58.803 290.718 58.0606 290.718 57.1705C290.718 56.2803 290.582 55.5417 290.309 54.9545C290.036 54.3636 289.633 53.9223 289.099 53.6307C288.568 53.3352 287.909 53.1875 287.121 53.1875H285.326V61.1761ZM298.585 63.1705C297.71 63.1705 296.954 62.9886 296.317 62.625C295.685 62.2576 295.198 61.7386 294.857 61.0682C294.516 60.3939 294.346 59.6004 294.346 58.6875C294.346 57.7898 294.516 57.0019 294.857 56.3239C295.202 55.642 295.683 55.1117 296.3 54.733C296.918 54.3504 297.643 54.1591 298.477 54.1591C299.014 54.1591 299.522 54.2462 299.999 54.4205C300.48 54.5909 300.905 54.8561 301.272 55.2159C301.643 55.5758 301.935 56.0341 302.147 56.5909C302.359 57.1439 302.465 57.803 302.465 58.5682V59.1989H295.312V57.8125H300.494C300.49 57.4186 300.405 57.0682 300.238 56.7614C300.071 56.4508 299.838 56.2064 299.539 56.0284C299.244 55.8504 298.899 55.7614 298.505 55.7614C298.085 55.7614 297.715 55.8636 297.397 56.0682C297.079 56.2689 296.831 56.5341 296.653 56.8636C296.478 57.1894 296.389 57.5473 296.386 57.9375V59.1477C296.386 59.6553 296.478 60.0909 296.664 60.4545C296.85 60.8144 297.109 61.0909 297.442 61.2841C297.776 61.4735 298.166 61.5682 298.613 61.5682C298.912 61.5682 299.183 61.5265 299.425 61.4432C299.668 61.3561 299.878 61.2292 300.056 61.0625C300.234 60.8958 300.369 60.6894 300.46 60.4432L302.38 60.6591C302.259 61.1667 302.028 61.6098 301.687 61.9886C301.35 62.3636 300.918 62.6553 300.391 62.8636C299.865 63.0682 299.263 63.1705 298.585 63.1705ZM311.103 56.5795L309.228 56.7841C309.175 56.5947 309.082 56.4167 308.95 56.25C308.821 56.0833 308.647 55.9489 308.427 55.8466C308.207 55.7443 307.938 55.6932 307.62 55.6932C307.192 55.6932 306.832 55.786 306.54 55.9716C306.253 56.1572 306.111 56.3977 306.114 56.6932C306.111 56.947 306.203 57.1534 306.393 57.3125C306.586 57.4716 306.904 57.6023 307.347 57.7045L308.836 58.0227C309.662 58.2008 310.275 58.483 310.677 58.8693C311.082 59.2557 311.287 59.7614 311.29 60.3864C311.287 60.9356 311.126 61.4205 310.808 61.8409C310.493 62.2576 310.056 62.5833 309.495 62.8182C308.934 63.053 308.29 63.1705 307.563 63.1705C306.495 63.1705 305.635 62.947 304.984 62.5C304.332 62.0492 303.944 61.4223 303.819 60.6193L305.825 60.4261C305.915 60.8201 306.109 61.1174 306.404 61.3182C306.7 61.5189 307.084 61.6193 307.558 61.6193C308.046 61.6193 308.438 61.5189 308.734 61.3182C309.033 61.1174 309.183 60.8693 309.183 60.5739C309.183 60.3239 309.086 60.1174 308.893 59.9545C308.703 59.7917 308.408 59.6667 308.006 59.5795L306.518 59.267C305.681 59.0928 305.061 58.7992 304.66 58.3864C304.258 57.9697 304.059 57.4432 304.063 56.8068C304.059 56.2689 304.205 55.803 304.501 55.4091C304.8 55.0114 305.215 54.7045 305.745 54.4886C306.279 54.2689 306.895 54.1591 307.592 54.1591C308.614 54.1591 309.419 54.3769 310.006 54.8125C310.597 55.2481 310.963 55.8371 311.103 56.5795ZM312.987 63V54.2727H315.043V63H312.987ZM314.021 53.0341C313.695 53.0341 313.415 52.9261 313.18 52.7102C312.945 52.4905 312.827 52.2273 312.827 51.9205C312.827 51.6098 312.945 51.3466 313.18 51.1307C313.415 50.911 313.695 50.8011 314.021 50.8011C314.35 50.8011 314.63 50.911 314.862 51.1307C315.096 51.3466 315.214 51.6098 315.214 51.9205C315.214 52.2273 315.096 52.4905 314.862 52.7102C314.63 52.9261 314.35 53.0341 314.021 53.0341ZM320.954 66.4545C320.215 66.4545 319.581 66.3542 319.05 66.1534C318.52 65.9564 318.094 65.6913 317.772 65.358C317.45 65.0246 317.227 64.6553 317.102 64.25L318.954 63.8011C319.037 63.9716 319.158 64.1402 319.317 64.3068C319.477 64.4773 319.691 64.6174 319.96 64.7273C320.232 64.8409 320.575 64.8977 320.988 64.8977C321.571 64.8977 322.054 64.7557 322.437 64.4716C322.819 64.1913 323.011 63.7292 323.011 63.0852V61.4318H322.908C322.802 61.6439 322.647 61.8617 322.442 62.0852C322.242 62.3087 321.975 62.4962 321.641 62.6477C321.312 62.7992 320.897 62.875 320.397 62.875C319.727 62.875 319.119 62.7178 318.573 62.4034C318.031 62.0852 317.6 61.6117 317.278 60.983C316.96 60.3504 316.8 59.5587 316.8 58.608C316.8 57.6496 316.96 56.8409 317.278 56.1818C317.6 55.5189 318.033 55.017 318.579 54.6761C319.124 54.3314 319.732 54.1591 320.403 54.1591C320.914 54.1591 321.335 54.2462 321.664 54.4205C321.997 54.5909 322.263 54.7973 322.46 55.0398C322.656 55.2784 322.806 55.5038 322.908 55.7159H323.022V54.2727H325.05V63.142C325.05 63.8883 324.872 64.5057 324.516 64.9943C324.16 65.483 323.674 65.8485 323.056 66.0909C322.439 66.3333 321.738 66.4545 320.954 66.4545ZM320.971 61.2614C321.406 61.2614 321.778 61.1553 322.085 60.9432C322.391 60.7311 322.624 60.4261 322.783 60.0284C322.942 59.6307 323.022 59.1534 323.022 58.5966C323.022 58.0473 322.942 57.5663 322.783 57.1534C322.628 56.7405 322.397 56.4205 322.09 56.1932C321.787 55.9621 321.414 55.8466 320.971 55.8466C320.513 55.8466 320.13 55.9659 319.823 56.2045C319.516 56.4432 319.285 56.7708 319.13 57.1875C318.975 57.6004 318.897 58.0701 318.897 58.5966C318.897 59.1307 318.975 59.5985 319.13 60C319.289 60.3977 319.522 60.7083 319.829 60.9318C320.139 61.1515 320.52 61.2614 320.971 61.2614ZM329.215 57.8864V63H327.158V54.2727H329.124V55.7557H329.227C329.427 55.267 329.747 54.8788 330.187 54.5909C330.63 54.303 331.177 54.1591 331.829 54.1591C332.431 54.1591 332.956 54.2879 333.403 54.5455C333.853 54.803 334.202 55.1761 334.448 55.6648C334.698 56.1534 334.821 56.7462 334.817 57.4432V63H332.761V57.7614C332.761 57.178 332.609 56.7216 332.306 56.392C332.007 56.0625 331.592 55.8977 331.062 55.8977C330.702 55.8977 330.382 55.9773 330.102 56.1364C329.825 56.2917 329.607 56.517 329.448 56.8125C329.293 57.108 329.215 57.4659 329.215 57.8864Z" fill="#0071E3"/>
<circle cx="59" cy="19" r="19" fill="#0071E3"/>
<path d="M61.4041 11.4545V26H58.7692V14.0185H58.6839L55.282 16.1918V13.777L58.897 11.4545H61.4041Z" fill="white"/>
<path d="M1.29616 52.3636H3.87571L7.33026 60.7955H7.46662L10.9212 52.3636H13.5007V64H11.478V56.0057H11.37L8.15412 63.9659H6.64276L3.42685 55.9886H3.31889V64H1.29616V52.3636ZM18.2166 64.1761C17.6636 64.1761 17.1655 64.0777 16.7223 63.8807C16.2829 63.6799 15.9344 63.3845 15.6768 62.9943C15.4231 62.6042 15.2962 62.1231 15.2962 61.5511C15.2962 61.0587 15.3871 60.6515 15.5689 60.3295C15.7507 60.0076 15.9988 59.75 16.3132 59.5568C16.6276 59.3636 16.9818 59.2178 17.3757 59.1193C17.7734 59.017 18.1844 58.9432 18.6087 58.8977C19.12 58.8447 19.5348 58.7973 19.853 58.7557C20.1712 58.7102 20.4022 58.642 20.5462 58.5511C20.6939 58.4564 20.7678 58.3106 20.7678 58.1136V58.0795C20.7678 57.6515 20.6409 57.3201 20.3871 57.0852C20.1333 56.8504 19.7678 56.733 19.2905 56.733C18.7867 56.733 18.3871 56.8428 18.0916 57.0625C17.8 57.2822 17.603 57.5417 17.5007 57.8409L15.5803 57.5682C15.7318 57.0379 15.9818 56.5947 16.3303 56.2386C16.6787 55.8788 17.1049 55.6098 17.6087 55.4318C18.1125 55.25 18.6693 55.1591 19.2791 55.1591C19.6996 55.1591 20.1181 55.2083 20.5348 55.3068C20.9515 55.4053 21.3321 55.5682 21.6768 55.7955C22.0215 56.0189 22.2981 56.3239 22.5064 56.7102C22.7185 57.0966 22.8246 57.5795 22.8246 58.1591V64H20.8473V62.8011H20.7791C20.6541 63.0436 20.478 63.2708 20.2507 63.483C20.0272 63.6913 19.745 63.8598 19.4041 63.9886C19.067 64.1136 18.6712 64.1761 18.2166 64.1761ZM18.7507 62.6648C19.1636 62.6648 19.5215 62.5833 19.8246 62.4205C20.1276 62.2538 20.3606 62.0341 20.5234 61.7614C20.6901 61.4886 20.7734 61.1913 20.7734 60.8693V59.8409C20.709 59.8939 20.5992 59.9432 20.4439 59.9886C20.2924 60.0341 20.1219 60.0739 19.9325 60.108C19.7431 60.142 19.5556 60.1723 19.37 60.1989C19.1844 60.2254 19.0234 60.2481 18.8871 60.267C18.5803 60.3087 18.3056 60.3769 18.0632 60.4716C17.8208 60.5663 17.6295 60.6989 17.4893 60.8693C17.3492 61.036 17.2791 61.2519 17.2791 61.517C17.2791 61.8958 17.4174 62.1818 17.6939 62.375C17.9704 62.5682 18.3227 62.6648 18.7507 62.6648ZM24.8928 64V55.2727H26.8871V56.7273H26.978C27.1371 56.2235 27.4098 55.8352 27.7962 55.5625C28.1863 55.286 28.6314 55.1477 29.1314 55.1477C29.245 55.1477 29.3719 55.1534 29.5121 55.1648C29.656 55.1723 29.7753 55.1856 29.87 55.2045V57.0966C29.7829 57.0663 29.6446 57.0398 29.4553 57.017C29.2696 56.9905 29.0897 56.9773 28.9155 56.9773C28.5405 56.9773 28.2034 57.0587 27.9041 57.2216C27.6087 57.3807 27.3757 57.6023 27.2053 57.8864C27.0348 58.1705 26.9496 58.4981 26.9496 58.8693V64H24.8928ZM33.1115 61.2614L33.1058 58.7784H33.4354L36.5717 55.2727H38.9751L35.1172 59.5682H34.6911L33.1115 61.2614ZM31.2365 64V52.3636H33.2933V64H31.2365ZM36.7138 64L33.8729 60.0284L35.2592 58.5795L39.174 64H36.7138ZM40.3459 64V55.2727H42.4027V64H40.3459ZM41.38 54.0341C41.0542 54.0341 40.7739 53.9261 40.5391 53.7102C40.3042 53.4905 40.1868 53.2273 40.1868 52.9205C40.1868 52.6098 40.3042 52.3466 40.5391 52.1307C40.7739 51.911 41.0542 51.8011 41.38 51.8011C41.7095 51.8011 41.9898 51.911 42.2209 52.1307C42.4557 52.3466 42.5732 52.6098 42.5732 52.9205C42.5732 53.2273 42.4557 53.4905 42.2209 53.7102C41.9898 53.9261 41.7095 54.0341 41.38 54.0341ZM46.5746 58.8864V64H44.5178V55.2727H46.4837V56.7557H46.5859C46.7867 56.267 47.1068 55.8788 47.5462 55.5909C47.9893 55.303 48.5367 55.1591 49.1882 55.1591C49.7905 55.1591 50.3151 55.2879 50.7621 55.5455C51.2128 55.803 51.5613 56.1761 51.8075 56.6648C52.0575 57.1534 52.1806 57.7462 52.1768 58.4432V64H50.12V58.7614C50.12 58.178 49.9685 57.7216 49.6655 57.392C49.3662 57.0625 48.9515 56.8977 48.4212 56.8977C48.0613 56.8977 47.7412 56.9773 47.4609 57.1364C47.1844 57.2917 46.9666 57.517 46.8075 57.8125C46.6522 58.108 46.5746 58.4659 46.5746 58.8864ZM58.0632 67.4545C57.3246 67.4545 56.6901 67.3542 56.1598 67.1534C55.6295 66.9564 55.2034 66.6913 54.8814 66.358C54.5594 66.0246 54.3359 65.6553 54.2109 65.25L56.0632 64.8011C56.1465 64.9716 56.2678 65.1402 56.4268 65.3068C56.5859 65.4773 56.8 65.6174 57.0689 65.7273C57.3416 65.8409 57.6844 65.8977 58.0973 65.8977C58.6806 65.8977 59.1636 65.7557 59.5462 65.4716C59.9287 65.1913 60.12 64.7292 60.12 64.0852V62.4318H60.0178C59.9117 62.6439 59.7564 62.8617 59.5518 63.0852C59.3511 63.3087 59.084 63.4962 58.7507 63.6477C58.4212 63.7992 58.0064 63.875 57.5064 63.875C56.8359 63.875 56.228 63.7178 55.6825 63.4034C55.1409 63.0852 54.709 62.6117 54.3871 61.983C54.0689 61.3504 53.9098 60.5587 53.9098 59.608C53.9098 58.6496 54.0689 57.8409 54.3871 57.1818C54.709 56.5189 55.1428 56.017 55.6882 55.6761C56.2337 55.3314 56.8416 55.1591 57.5121 55.1591C58.0234 55.1591 58.4439 55.2462 58.7734 55.4205C59.1068 55.5909 59.3719 55.7973 59.5689 56.0398C59.7659 56.2784 59.9155 56.5038 60.0178 56.7159H60.1314V55.2727H62.1598V64.142C62.1598 64.8883 61.9818 65.5057 61.6257 65.9943C61.2696 66.483 60.7829 66.8485 60.1655 67.0909C59.5481 67.3333 58.8473 67.4545 58.0632 67.4545ZM58.0803 62.2614C58.5159 62.2614 58.8871 62.1553 59.1939 61.9432C59.5007 61.7311 59.7337 61.4261 59.8928 61.0284C60.0518 60.6307 60.1314 60.1534 60.1314 59.5966C60.1314 59.0473 60.0518 58.5663 59.8928 58.1534C59.7375 57.7405 59.5064 57.4205 59.1996 57.1932C58.8965 56.9621 58.5234 56.8466 58.0803 56.8466C57.6219 56.8466 57.2393 56.9659 56.9325 57.2045C56.6257 57.4432 56.3946 57.7708 56.2393 58.1875C56.084 58.6004 56.0064 59.0701 56.0064 59.5966C56.0064 60.1307 56.084 60.5985 56.2393 61C56.3984 61.3977 56.6314 61.7083 56.9382 61.9318C57.2488 62.1515 57.6295 62.2614 58.0803 62.2614ZM68.3274 64V52.3636H72.782C73.6229 52.3636 74.3217 52.4962 74.8786 52.7614C75.4392 53.0227 75.8577 53.3807 76.1342 53.8352C76.4145 54.2898 76.5547 54.8049 76.5547 55.3807C76.5547 55.8542 76.4638 56.2595 76.282 56.5966C76.1001 56.9299 75.8558 57.2008 75.549 57.4091C75.2422 57.6174 74.8994 57.767 74.5206 57.858V57.9716C74.9335 57.9943 75.3293 58.1212 75.7081 58.3523C76.0907 58.5795 76.4032 58.9015 76.6456 59.3182C76.888 59.7348 77.0092 60.2386 77.0092 60.8295C77.0092 61.4318 76.8634 61.9735 76.5717 62.4545C76.2801 62.9318 75.8407 63.3087 75.2536 63.5852C74.6664 63.8617 73.9278 64 73.0376 64H68.3274ZM70.4354 62.2386H72.7024C73.4676 62.2386 74.0187 62.0928 74.3558 61.8011C74.6967 61.5057 74.8672 61.1269 74.8672 60.6648C74.8672 60.3201 74.782 60.0095 74.6115 59.733C74.4411 59.4527 74.1986 59.233 73.8842 59.0739C73.5698 58.911 73.1948 58.8295 72.7592 58.8295H70.4354V62.2386ZM70.4354 57.3125H72.5206C72.8842 57.3125 73.2119 57.2462 73.5036 57.1136C73.7952 56.9773 74.0244 56.786 74.1911 56.5398C74.3615 56.2898 74.4467 55.9943 74.4467 55.6534C74.4467 55.2027 74.2876 54.8314 73.9695 54.5398C73.6551 54.2481 73.1873 54.1023 72.5661 54.1023H70.4354V57.3125ZM81.2635 64.1761C80.7105 64.1761 80.2124 64.0777 79.7692 63.8807C79.3298 63.6799 78.9813 63.3845 78.7237 62.9943C78.4699 62.6042 78.343 62.1231 78.343 61.5511C78.343 61.0587 78.4339 60.6515 78.6158 60.3295C78.7976 60.0076 79.0457 59.75 79.3601 59.5568C79.6745 59.3636 80.0286 59.2178 80.4226 59.1193C80.8203 59.017 81.2313 58.9432 81.6555 58.8977C82.1669 58.8447 82.5817 58.7973 82.8999 58.7557C83.218 58.7102 83.4491 58.642 83.593 58.5511C83.7408 58.4564 83.8146 58.3106 83.8146 58.1136V58.0795C83.8146 57.6515 83.6877 57.3201 83.4339 57.0852C83.1802 56.8504 82.8146 56.733 82.3374 56.733C81.8336 56.733 81.4339 56.8428 81.1385 57.0625C80.8468 57.2822 80.6499 57.5417 80.5476 57.8409L78.6271 57.5682C78.7786 57.0379 79.0286 56.5947 79.3771 56.2386C79.7256 55.8788 80.1518 55.6098 80.6555 55.4318C81.1593 55.25 81.7161 55.1591 82.326 55.1591C82.7464 55.1591 83.165 55.2083 83.5817 55.3068C83.9983 55.4053 84.379 55.5682 84.7237 55.7955C85.0684 56.0189 85.3449 56.3239 85.5533 56.7102C85.7654 57.0966 85.8714 57.5795 85.8714 58.1591V64H83.8942V62.8011H83.826C83.701 63.0436 83.5249 63.2708 83.2976 63.483C83.0741 63.6913 82.7919 63.8598 82.451 63.9886C82.1139 64.1136 81.718 64.1761 81.2635 64.1761ZM81.7976 62.6648C82.2105 62.6648 82.5684 62.5833 82.8714 62.4205C83.1745 62.2538 83.4074 62.0341 83.5703 61.7614C83.737 61.4886 83.8203 61.1913 83.8203 60.8693V59.8409C83.7559 59.8939 83.6461 59.9432 83.4908 59.9886C83.3393 60.0341 83.1688 60.0739 82.9794 60.108C82.79 60.142 82.6025 60.1723 82.4169 60.1989C82.2313 60.2254 82.0703 60.2481 81.9339 60.267C81.6271 60.3087 81.3525 60.3769 81.1101 60.4716C80.8677 60.5663 80.6764 60.6989 80.5362 60.8693C80.3961 61.036 80.326 61.2519 80.326 61.517C80.326 61.8958 80.4643 62.1818 80.7408 62.375C81.0173 62.5682 81.3696 62.6648 81.7976 62.6648ZM94.8374 57.5795L92.9624 57.7841C92.9093 57.5947 92.8165 57.4167 92.6839 57.25C92.5552 57.0833 92.3809 56.9489 92.1612 56.8466C91.9415 56.7443 91.6726 56.6932 91.3544 56.6932C90.9264 56.6932 90.5665 56.786 90.2749 56.9716C89.987 57.1572 89.8449 57.3977 89.8487 57.6932C89.8449 57.947 89.9377 58.1534 90.1271 58.3125C90.3203 58.4716 90.6385 58.6023 91.0817 58.7045L92.5703 59.0227C93.3961 59.2008 94.0097 59.483 94.4112 59.8693C94.8165 60.2557 95.0211 60.7614 95.0249 61.3864C95.0211 61.9356 94.8601 62.4205 94.5419 62.8409C94.2275 63.2576 93.79 63.5833 93.2294 63.8182C92.6688 64.053 92.0249 64.1705 91.2976 64.1705C90.2294 64.1705 89.3696 63.947 88.718 63.5C88.0665 63.0492 87.6783 62.4223 87.5533 61.6193L89.5589 61.4261C89.6499 61.8201 89.843 62.1174 90.1385 62.3182C90.4339 62.5189 90.8184 62.6193 91.2919 62.6193C91.7805 62.6193 92.1726 62.5189 92.468 62.3182C92.7673 62.1174 92.9169 61.8693 92.9169 61.5739C92.9169 61.3239 92.8203 61.1174 92.6271 60.9545C92.4377 60.7917 92.1423 60.6667 91.7408 60.5795L90.2521 60.267C89.415 60.0928 88.7957 59.7992 88.3942 59.3864C87.9927 58.9697 87.7938 58.4432 87.7976 57.8068C87.7938 57.2689 87.9396 56.803 88.2351 56.4091C88.5343 56.0114 88.9491 55.7045 89.4794 55.4886C90.0135 55.2689 90.629 55.1591 91.326 55.1591C92.3487 55.1591 93.1536 55.3769 93.7408 55.8125C94.3317 56.2481 94.6972 56.8371 94.8374 57.5795ZM96.7209 64V55.2727H98.7777V64H96.7209ZM97.755 54.0341C97.4292 54.0341 97.1489 53.9261 96.9141 53.7102C96.6792 53.4905 96.5618 53.2273 96.5618 52.9205C96.5618 52.6098 96.6792 52.3466 96.9141 52.1307C97.1489 51.911 97.4292 51.8011 97.755 51.8011C98.0845 51.8011 98.3648 51.911 98.5959 52.1307C98.8307 52.3466 98.9482 52.6098 98.9482 52.9205C98.9482 53.2273 98.8307 53.4905 98.5959 53.7102C98.3648 53.9261 98.0845 54.0341 97.755 54.0341ZM104.7 64.1705C103.828 64.1705 103.08 63.9792 102.455 63.5966C101.834 63.214 101.355 62.6856 101.018 62.0114C100.684 61.3333 100.518 60.553 100.518 59.6705C100.518 58.7841 100.688 58.0019 101.029 57.3239C101.37 56.642 101.851 56.1117 102.472 55.733C103.097 55.3504 103.836 55.1591 104.688 55.1591C105.397 55.1591 106.023 55.2898 106.569 55.5511C107.118 55.8087 107.556 56.1742 107.881 56.6477C108.207 57.1174 108.393 57.6667 108.438 58.2955H106.472C106.393 57.875 106.203 57.5246 105.904 57.2443C105.609 56.9602 105.213 56.8182 104.717 56.8182C104.296 56.8182 103.927 56.9318 103.609 57.1591C103.29 57.3826 103.042 57.7045 102.864 58.125C102.69 58.5455 102.603 59.0492 102.603 59.6364C102.603 60.2311 102.69 60.7424 102.864 61.1705C103.039 61.5947 103.283 61.9223 103.597 62.1534C103.915 62.3807 104.289 62.4943 104.717 62.4943C105.02 62.4943 105.29 62.4375 105.529 62.3239C105.772 62.2064 105.974 62.0379 106.137 61.8182C106.3 61.5985 106.412 61.3314 106.472 61.017H108.438C108.389 61.6345 108.207 62.1818 107.893 62.6591C107.578 63.1326 107.15 63.5038 106.609 63.7727C106.067 64.0379 105.431 64.1705 104.7 64.1705ZM117.025 57.5795L115.15 57.7841C115.097 57.5947 115.004 57.4167 114.871 57.25C114.743 57.0833 114.568 56.9489 114.349 56.8466C114.129 56.7443 113.86 56.6932 113.542 56.6932C113.114 56.6932 112.754 56.786 112.462 56.9716C112.174 57.1572 112.032 57.3977 112.036 57.6932C112.032 57.947 112.125 58.1534 112.315 58.3125C112.508 58.4716 112.826 58.6023 113.269 58.7045L114.758 59.0227C115.584 59.2008 116.197 59.483 116.599 59.8693C117.004 60.2557 117.209 60.7614 117.212 61.3864C117.209 61.9356 117.048 62.4205 116.729 62.8409C116.415 63.2576 115.978 63.5833 115.417 63.8182C114.856 64.053 114.212 64.1705 113.485 64.1705C112.417 64.1705 111.557 63.947 110.906 63.5C110.254 63.0492 109.866 62.4223 109.741 61.6193L111.746 61.4261C111.837 61.8201 112.031 62.1174 112.326 62.3182C112.621 62.5189 113.006 62.6193 113.479 62.6193C113.968 62.6193 114.36 62.5189 114.656 62.3182C114.955 62.1174 115.104 61.8693 115.104 61.5739C115.104 61.3239 115.008 61.1174 114.815 60.9545C114.625 60.7917 114.33 60.6667 113.928 60.5795L112.44 60.267C111.603 60.0928 110.983 59.7992 110.582 59.3864C110.18 58.9697 109.981 58.4432 109.985 57.8068C109.981 57.2689 110.127 56.803 110.423 56.4091C110.722 56.0114 111.137 55.7045 111.667 55.4886C112.201 55.2689 112.817 55.1591 113.513 55.1591C114.536 55.1591 115.341 55.3769 115.928 55.8125C116.519 56.2481 116.885 56.8371 117.025 57.5795Z" fill="#0071E3"/>
</svg>
