<svg width="569" height="69" viewBox="0 0 569 69" fill="none" xmlns="http://www.w3.org/2000/svg">
<path d="M284 15H461V22H284V15Z" fill="#0071E3"/>
<path d="M75 15H252V22H75V15Z" fill="#0071E3"/>
<circle cx="477" cy="19" r="19" fill="#0071E3"/>
<path d="M476.999 26.1989C475.976 26.1989 475.067 26.0237 474.272 25.6733C473.481 25.3229 472.856 24.8352 472.397 24.2102C471.938 23.5852 471.694 22.8632 471.665 22.044H474.336C474.359 22.437 474.49 22.7803 474.726 23.0739C474.963 23.3627 475.278 23.5876 475.671 23.7486C476.064 23.9096 476.504 23.9901 476.992 23.9901C477.513 23.9901 477.974 23.9001 478.377 23.7202C478.779 23.5355 479.094 23.2798 479.322 22.9531C479.549 22.6264 479.66 22.25 479.655 21.8239C479.66 21.3835 479.546 20.9953 479.314 20.6591C479.082 20.3229 478.746 20.0601 478.306 19.8707C477.87 19.6813 477.345 19.5866 476.729 19.5866H475.444V17.5554H476.729C477.236 17.5554 477.679 17.4678 478.057 17.2926C478.441 17.1174 478.742 16.8712 478.959 16.554C479.177 16.232 479.284 15.8603 479.279 15.4389C479.284 15.027 479.191 14.6695 479.002 14.3665C478.817 14.0587 478.555 13.8196 478.214 13.6491C477.877 13.4787 477.482 13.3935 477.028 13.3935C476.582 13.3935 476.171 13.474 475.792 13.6349C475.413 13.7959 475.108 14.0256 474.876 14.3239C474.644 14.6174 474.52 14.9678 474.506 15.375H471.971C471.99 14.5606 472.224 13.8456 472.674 13.2301C473.128 12.6098 473.734 12.1269 474.492 11.7812C475.25 11.4309 476.099 11.2557 477.042 11.2557C478.012 11.2557 478.855 11.438 479.57 11.8026C480.29 12.1624 480.846 12.6477 481.239 13.2585C481.632 13.8693 481.829 14.544 481.829 15.2827C481.833 16.1018 481.592 16.7884 481.104 17.3423C480.621 17.8963 479.987 18.2585 479.201 18.429V18.5426C480.224 18.6847 481.007 19.0634 481.552 19.679C482.101 20.2898 482.373 21.0497 482.368 21.9588C482.368 22.7732 482.136 23.5024 481.672 24.1463C481.213 24.7855 480.579 25.2874 479.769 25.652C478.964 26.0166 478.041 26.1989 476.999 26.1989Z" fill="white"/>
<path d="M387.654 64H384.842L389.962 49.4545H393.215L398.343 64H395.531L391.646 52.4375H391.532L387.654 64ZM387.746 58.2969H395.417V60.4134H387.746V58.2969ZM403.862 64.1918C403.004 64.1918 402.237 63.9716 401.56 63.5312C400.883 63.0909 400.348 62.4517 399.955 61.6136C399.562 60.7756 399.366 59.7576 399.366 58.5597C399.366 57.3475 399.565 56.3248 399.962 55.4915C400.365 54.6534 400.907 54.0213 401.589 53.5952C402.271 53.1643 403.031 52.9489 403.869 52.9489C404.508 52.9489 405.033 53.0578 405.445 53.2756C405.857 53.4886 406.184 53.7467 406.425 54.0497C406.667 54.348 406.854 54.6297 406.987 54.8949H407.093V49.4545H409.671V64H407.143V62.2812H406.987C406.854 62.5464 406.662 62.8281 406.411 63.1264C406.16 63.42 405.829 63.6709 405.417 63.8793C405.005 64.0876 404.487 64.1918 403.862 64.1918ZM404.579 62.0824C405.123 62.0824 405.587 61.9356 405.971 61.642C406.354 61.3437 406.646 60.9295 406.844 60.3991C407.043 59.8688 407.143 59.2509 407.143 58.5455C407.143 57.84 407.043 57.2268 406.844 56.706C406.65 56.1851 406.362 55.7803 405.978 55.4915C405.599 55.2027 405.133 55.0582 404.579 55.0582C404.006 55.0582 403.528 55.2074 403.144 55.5057C402.761 55.804 402.472 56.2159 402.278 56.7415C402.084 57.267 401.987 57.8684 401.987 58.5455C401.987 59.2273 402.084 59.8357 402.278 60.3707C402.477 60.901 402.768 61.3201 403.151 61.6278C403.54 61.9309 404.015 62.0824 404.579 62.0824ZM416.459 64.1918C415.602 64.1918 414.835 63.9716 414.158 63.5312C413.481 63.0909 412.946 62.4517 412.553 61.6136C412.16 60.7756 411.963 59.7576 411.963 58.5597C411.963 57.3475 412.162 56.3248 412.56 55.4915C412.962 54.6534 413.505 54.0213 414.186 53.5952C414.868 53.1643 415.628 52.9489 416.466 52.9489C417.105 52.9489 417.631 53.0578 418.043 53.2756C418.455 53.4886 418.782 53.7467 419.023 54.0497C419.265 54.348 419.452 54.6297 419.584 54.8949H419.691V49.4545H422.269V64H419.74V62.2812H419.584C419.452 62.5464 419.26 62.8281 419.009 63.1264C418.758 63.42 418.426 63.6709 418.015 63.8793C417.603 64.0876 417.084 64.1918 416.459 64.1918ZM417.176 62.0824C417.721 62.0824 418.185 61.9356 418.569 61.642C418.952 61.3437 419.243 60.9295 419.442 60.3991C419.641 59.8688 419.74 59.2509 419.74 58.5455C419.74 57.84 419.641 57.2268 419.442 56.706C419.248 56.1851 418.959 55.7803 418.576 55.4915C418.197 55.2027 417.73 55.0582 417.176 55.0582C416.604 55.0582 416.125 55.2074 415.742 55.5057C415.358 55.804 415.069 56.2159 414.875 56.7415C414.681 57.267 414.584 57.8684 414.584 58.5455C414.584 59.2273 414.681 59.8357 414.875 60.3707C415.074 60.901 415.365 61.3201 415.749 61.6278C416.137 61.9309 416.613 62.0824 417.176 62.0824ZM425.009 64V53.0909H427.58V64H425.009ZM426.301 51.5426C425.894 51.5426 425.544 51.4077 425.25 51.1378C424.956 50.8632 424.81 50.5341 424.81 50.1506C424.81 49.7623 424.956 49.4332 425.25 49.1634C425.544 48.8887 425.894 48.7514 426.301 48.7514C426.713 48.7514 427.063 48.8887 427.352 49.1634C427.646 49.4332 427.793 49.7623 427.793 50.1506C427.793 50.5341 427.646 50.8632 427.352 51.1378C427.063 51.4077 426.713 51.5426 426.301 51.5426ZM435.671 53.0909V55.0795H429.4V53.0909H435.671ZM430.948 50.4773H433.519V60.7188C433.519 61.0644 433.571 61.3295 433.675 61.5142C433.784 61.6941 433.926 61.8172 434.101 61.8835C434.276 61.9498 434.471 61.983 434.684 61.983C434.845 61.983 434.991 61.9711 435.124 61.9474C435.261 61.9238 435.365 61.9025 435.436 61.8835L435.87 63.8935C435.732 63.9408 435.536 63.9929 435.28 64.0497C435.029 64.1065 434.721 64.1397 434.357 64.1491C433.713 64.1681 433.133 64.071 432.617 63.858C432.101 63.6402 431.691 63.304 431.388 62.8494C431.09 62.3949 430.943 61.8267 430.948 61.1449V50.4773ZM437.821 64V53.0909H440.392V64H437.821ZM439.114 51.5426C438.706 51.5426 438.356 51.4077 438.062 51.1378C437.769 50.8632 437.622 50.5341 437.622 50.1506C437.622 49.7623 437.769 49.4332 438.062 49.1634C438.356 48.8887 438.706 48.7514 439.114 48.7514C439.526 48.7514 439.876 48.8887 440.165 49.1634C440.458 49.4332 440.605 49.7623 440.605 50.1506C440.605 50.5341 440.458 50.8632 440.165 51.1378C439.876 51.4077 439.526 51.5426 439.114 51.5426ZM447.794 64.2131C446.729 64.2131 445.806 63.9787 445.025 63.5099C444.243 63.0412 443.637 62.3854 443.206 61.5426C442.78 60.6998 442.567 59.715 442.567 58.5881C442.567 57.4612 442.78 56.474 443.206 55.6264C443.637 54.7789 444.243 54.1207 445.025 53.652C445.806 53.1832 446.729 52.9489 447.794 52.9489C448.86 52.9489 449.783 53.1832 450.564 53.652C451.346 54.1207 451.949 54.7789 452.375 55.6264C452.806 56.474 453.022 57.4612 453.022 58.5881C453.022 59.715 452.806 60.6998 452.375 61.5426C451.949 62.3854 451.346 63.0412 450.564 63.5099C449.783 63.9787 448.86 64.2131 447.794 64.2131ZM447.809 62.1534C448.386 62.1534 448.869 61.9948 449.257 61.6776C449.646 61.3556 449.935 60.9247 450.124 60.3849C450.318 59.8452 450.415 59.2438 450.415 58.581C450.415 57.9134 450.318 57.3097 450.124 56.7699C449.935 56.2254 449.646 55.7921 449.257 55.4702C448.869 55.1482 448.386 54.9872 447.809 54.9872C447.217 54.9872 446.724 55.1482 446.331 55.4702C445.943 55.7921 445.652 56.2254 445.458 56.7699C445.268 57.3097 445.174 57.9134 445.174 58.581C445.174 59.2438 445.268 59.8452 445.458 60.3849C445.652 60.9247 445.943 61.3556 446.331 61.6776C446.724 61.9948 447.217 62.1534 447.809 62.1534ZM457.775 57.608V64H455.204V53.0909H457.661V54.9446H457.789C458.04 54.3338 458.44 53.8485 458.989 53.4886C459.543 53.1288 460.228 52.9489 461.042 52.9489C461.795 52.9489 462.451 53.1098 463.009 53.4318C463.573 53.7538 464.008 54.2202 464.316 54.831C464.629 55.4418 464.782 56.1828 464.778 57.054V64H462.207V57.4517C462.207 56.7225 462.017 56.152 461.638 55.7401C461.264 55.3281 460.746 55.1222 460.083 55.1222C459.633 55.1222 459.233 55.2216 458.883 55.4205C458.537 55.6146 458.265 55.8963 458.066 56.2656C457.872 56.6349 457.775 57.0824 457.775 57.608ZM470.531 64.2202C469.839 64.2202 469.217 64.0971 468.663 63.8509C468.113 63.5999 467.678 63.2306 467.356 62.7429C467.039 62.2552 466.88 61.6539 466.88 60.9389C466.88 60.3234 466.994 59.8144 467.221 59.4119C467.448 59.0095 467.758 58.6875 468.151 58.446C468.544 58.2045 468.987 58.0223 469.479 57.8991C469.977 57.7713 470.49 57.679 471.021 57.6222C471.66 57.5559 472.178 57.4967 472.576 57.4446C472.974 57.3878 473.263 57.3026 473.442 57.1889C473.627 57.0705 473.719 56.8883 473.719 56.642V56.5994C473.719 56.0644 473.561 55.6501 473.244 55.3565C472.926 55.063 472.469 54.9162 471.873 54.9162C471.243 54.9162 470.744 55.0535 470.374 55.3281C470.01 55.6027 469.763 55.9271 469.636 56.3011L467.235 55.9602C467.424 55.2973 467.737 54.7434 468.173 54.2983C468.608 53.8485 469.141 53.5123 469.771 53.2898C470.4 53.0625 471.096 52.9489 471.859 52.9489C472.384 52.9489 472.907 53.0104 473.428 53.1335C473.949 53.2566 474.425 53.4602 474.856 53.7443C475.287 54.0237 475.632 54.4048 475.893 54.8878C476.158 55.3707 476.29 55.9744 476.29 56.6989V64H473.819V62.5014H473.734C473.577 62.8045 473.357 63.0885 473.073 63.3537C472.794 63.6141 472.441 63.8248 472.015 63.9858C471.594 64.142 471.099 64.2202 470.531 64.2202ZM471.198 62.331C471.714 62.331 472.162 62.2292 472.54 62.0256C472.919 61.8172 473.21 61.5426 473.414 61.2017C473.622 60.8608 473.727 60.4891 473.727 60.0866V58.8011C473.646 58.8674 473.509 58.929 473.315 58.9858C473.125 59.0426 472.912 59.0923 472.675 59.1349C472.439 59.1776 472.204 59.2154 471.972 59.2486C471.74 59.2817 471.539 59.3101 471.369 59.3338C470.985 59.3859 470.642 59.4711 470.339 59.5895C470.036 59.7079 469.797 59.8736 469.621 60.0866C469.446 60.295 469.359 60.5649 469.359 60.8963C469.359 61.3698 469.531 61.7273 469.877 61.9688C470.223 62.2102 470.663 62.331 471.198 62.331ZM481.447 49.4545V64H478.876V49.4545H481.447ZM497.07 53.4531C497.004 52.8329 496.724 52.3499 496.232 52.0043C495.744 51.6586 495.11 51.4858 494.328 51.4858C493.779 51.4858 493.308 51.5687 492.915 51.7344C492.522 51.9001 492.221 52.125 492.013 52.4091C491.805 52.6932 491.698 53.0175 491.694 53.3821C491.694 53.6851 491.762 53.9479 491.9 54.1705C492.042 54.393 492.233 54.5824 492.475 54.7386C492.716 54.8902 492.984 55.018 493.277 55.1222C493.571 55.2263 493.867 55.3139 494.165 55.3849L495.529 55.7259C496.078 55.8537 496.606 56.0265 497.113 56.2443C497.624 56.4621 498.081 56.7367 498.483 57.0682C498.891 57.3996 499.212 57.7997 499.449 58.2685C499.686 58.7372 499.804 59.2865 499.804 59.9162C499.804 60.7685 499.587 61.5189 499.151 62.1676C498.715 62.8116 498.086 63.3158 497.262 63.6804C496.443 64.0402 495.451 64.2202 494.286 64.2202C493.154 64.2202 492.172 64.045 491.338 63.6946C490.51 63.3442 489.861 62.8329 489.392 62.1605C488.928 61.4882 488.677 60.669 488.64 59.7031H491.232C491.27 60.2098 491.426 60.6312 491.701 60.9673C491.975 61.3035 492.333 61.5545 492.773 61.7202C493.218 61.8859 493.715 61.9688 494.265 61.9688C494.837 61.9688 495.339 61.8835 495.77 61.7131C496.206 61.5379 496.547 61.2964 496.793 60.9886C497.039 60.6761 497.165 60.3116 497.169 59.8949C497.165 59.5161 497.053 59.2036 496.836 58.9574C496.618 58.7064 496.312 58.4981 495.919 58.3324C495.531 58.1619 495.077 58.0104 494.556 57.8778L492.901 57.4517C491.703 57.1439 490.756 56.6776 490.06 56.0526C489.369 55.4228 489.023 54.5871 489.023 53.5455C489.023 52.6884 489.255 51.938 489.719 51.294C490.188 50.6501 490.825 50.1506 491.63 49.7955C492.435 49.4356 493.346 49.2557 494.364 49.2557C495.396 49.2557 496.301 49.4356 497.077 49.7955C497.858 50.1506 498.471 50.6454 498.917 51.2798C499.362 51.9096 499.591 52.634 499.605 53.4531H497.07ZM506.869 64.2131C505.776 64.2131 504.831 63.9858 504.036 63.5312C503.245 63.072 502.636 62.4233 502.21 61.5852C501.784 60.7424 501.571 59.7505 501.571 58.6094C501.571 57.4872 501.784 56.5024 502.21 55.6548C502.641 54.8026 503.242 54.1397 504.014 53.6662C504.786 53.188 505.693 52.9489 506.734 52.9489C507.407 52.9489 508.041 53.0578 508.638 53.2756C509.239 53.4886 509.769 53.8201 510.229 54.2699C510.693 54.7197 511.057 55.2926 511.322 55.9886C511.588 56.6799 511.72 57.5038 511.72 58.4602V59.2486H502.778V57.5156H509.256C509.251 57.0232 509.144 56.5852 508.936 56.2017C508.728 55.8134 508.437 55.508 508.062 55.2855C507.693 55.063 507.262 54.9517 506.77 54.9517C506.244 54.9517 505.783 55.0795 505.385 55.3352C504.987 55.5862 504.677 55.9176 504.455 56.3295C504.237 56.7367 504.125 57.1842 504.121 57.6719V59.1847C504.121 59.8191 504.237 60.3636 504.469 60.8182C504.701 61.268 505.025 61.6136 505.442 61.8551C505.858 62.0919 506.346 62.2102 506.905 62.2102C507.279 62.2102 507.617 62.1581 507.92 62.054C508.223 61.9451 508.486 61.7865 508.709 61.5781C508.931 61.3698 509.099 61.1117 509.213 60.804L511.614 61.0739C511.462 61.7083 511.173 62.2623 510.747 62.7358C510.326 63.2045 509.786 63.5691 509.128 63.8295C508.47 64.0852 507.717 64.2131 506.869 64.2131ZM519.343 53.0909V55.0795H513.071V53.0909H519.343ZM514.62 50.4773H517.191V60.7188C517.191 61.0644 517.243 61.3295 517.347 61.5142C517.456 61.6941 517.598 61.8172 517.773 61.8835C517.948 61.9498 518.142 61.983 518.355 61.983C518.516 61.983 518.663 61.9711 518.796 61.9474C518.933 61.9238 519.037 61.9025 519.108 61.8835L519.542 63.8935C519.404 63.9408 519.208 63.9929 518.952 64.0497C518.701 64.1065 518.393 64.1397 518.029 64.1491C517.385 64.1681 516.805 64.071 516.289 63.858C515.773 63.6402 515.363 63.304 515.06 62.8494C514.762 62.3949 514.615 61.8267 514.62 61.1449V50.4773ZM526.94 53.0909V55.0795H520.669V53.0909H526.94ZM522.217 50.4773H524.788V60.7188C524.788 61.0644 524.84 61.3295 524.945 61.5142C525.054 61.6941 525.196 61.8172 525.371 61.8835C525.546 61.9498 525.74 61.983 525.953 61.983C526.114 61.983 526.261 61.9711 526.393 61.9474C526.531 61.9238 526.635 61.9025 526.706 61.8835L527.139 63.8935C527.002 63.9408 526.805 63.9929 526.55 64.0497C526.299 64.1065 525.991 64.1397 525.626 64.1491C524.982 64.1681 524.402 64.071 523.886 63.858C523.37 63.6402 522.961 63.304 522.658 62.8494C522.359 62.3949 522.213 61.8267 522.217 61.1449V50.4773ZM529.091 64V53.0909H531.662V64H529.091ZM530.383 51.5426C529.976 51.5426 529.626 51.4077 529.332 51.1378C529.038 50.8632 528.892 50.5341 528.892 50.1506C528.892 49.7623 529.038 49.4332 529.332 49.1634C529.626 48.8887 529.976 48.7514 530.383 48.7514C530.795 48.7514 531.145 48.8887 531.434 49.1634C531.728 49.4332 531.875 49.7623 531.875 50.1506C531.875 50.5341 531.728 50.8632 531.434 51.1378C531.145 51.4077 530.795 51.5426 530.383 51.5426ZM536.876 57.608V64H534.305V53.0909H536.763V54.9446H536.891C537.142 54.3338 537.542 53.8485 538.091 53.4886C538.645 53.1288 539.329 52.9489 540.143 52.9489C540.896 52.9489 541.552 53.1098 542.111 53.4318C542.674 53.7538 543.11 54.2202 543.418 54.831C543.73 55.4418 543.884 56.1828 543.879 57.054V64H541.308V57.4517C541.308 56.7225 541.119 56.152 540.74 55.7401C540.366 55.3281 539.848 55.1222 539.185 55.1222C538.735 55.1222 538.335 55.2216 537.984 55.4205C537.639 55.6146 537.366 55.8963 537.168 56.2656C536.973 56.6349 536.876 57.0824 536.876 57.608ZM551.237 68.3182C550.314 68.3182 549.521 68.1927 548.858 67.9418C548.195 67.6955 547.662 67.3641 547.26 66.9474C546.857 66.5308 546.578 66.0691 546.422 65.5625L548.737 65.0014C548.841 65.2145 548.993 65.4252 549.192 65.6335C549.391 65.8466 549.658 66.0218 549.994 66.1591C550.335 66.3011 550.764 66.3722 551.28 66.3722C552.009 66.3722 552.613 66.1946 553.091 65.8395C553.569 65.4891 553.808 64.9115 553.808 64.1065V62.0398H553.68C553.548 62.3049 553.354 62.5772 553.098 62.8565C552.847 63.1359 552.513 63.3703 552.097 63.5597C551.685 63.7491 551.166 63.8438 550.541 63.8438C549.703 63.8438 548.943 63.6473 548.261 63.2543C547.584 62.8565 547.045 62.2647 546.642 61.4787C546.244 60.688 546.045 59.6984 546.045 58.5099C546.045 57.312 546.244 56.3011 546.642 55.4773C547.045 54.6487 547.587 54.0213 548.268 53.5952C548.95 53.1643 549.71 52.9489 550.548 52.9489C551.188 52.9489 551.713 53.0578 552.125 53.2756C552.542 53.4886 552.873 53.7467 553.119 54.0497C553.366 54.348 553.553 54.6297 553.68 54.8949H553.822V53.0909H556.358V64.1776C556.358 65.1103 556.135 65.8821 555.69 66.4929C555.245 67.1037 554.637 67.5606 553.865 67.8636C553.093 68.1667 552.217 68.3182 551.237 68.3182ZM551.259 61.8267C551.803 61.8267 552.267 61.6941 552.651 61.429C553.034 61.1638 553.325 60.7827 553.524 60.2855C553.723 59.7884 553.822 59.1918 553.822 58.4957C553.822 57.8092 553.723 57.2079 553.524 56.6918C553.33 56.1757 553.041 55.7756 552.658 55.4915C552.279 55.2027 551.813 55.0582 551.259 55.0582C550.686 55.0582 550.207 55.2074 549.824 55.5057C549.44 55.804 549.152 56.2135 548.957 56.7344C548.763 57.2505 548.666 57.8376 548.666 58.4957C548.666 59.1634 548.763 59.7481 548.957 60.25C549.156 60.7472 549.447 61.1354 549.831 61.4148C550.219 61.6894 550.695 61.8267 551.259 61.8267ZM567.615 55.9744L565.271 56.2301C565.205 55.9934 565.089 55.7708 564.923 55.5625C564.762 55.3542 564.545 55.1861 564.27 55.0582C563.995 54.9304 563.659 54.8665 563.261 54.8665C562.726 54.8665 562.277 54.9825 561.912 55.2145C561.552 55.4465 561.375 55.7472 561.379 56.1165C561.375 56.4337 561.491 56.6918 561.727 56.8906C561.969 57.0895 562.366 57.2528 562.92 57.3807L564.781 57.7784C565.813 58.0009 566.58 58.3537 567.082 58.8366C567.589 59.3196 567.845 59.9517 567.849 60.733C567.845 61.4195 567.643 62.0256 567.246 62.5511C566.853 63.072 566.306 63.4792 565.605 63.7727C564.904 64.0663 564.099 64.2131 563.19 64.2131C561.855 64.2131 560.78 63.9337 559.966 63.375C559.152 62.8116 558.666 62.0279 558.51 61.0241L561.017 60.7827C561.131 61.2751 561.372 61.6468 561.741 61.8977C562.111 62.1487 562.591 62.2741 563.183 62.2741C563.794 62.2741 564.284 62.1487 564.653 61.8977C565.027 61.6468 565.214 61.3366 565.214 60.9673C565.214 60.6548 565.094 60.3968 564.852 60.1932C564.616 59.9896 564.246 59.8333 563.744 59.7244L561.884 59.3338C560.837 59.116 560.063 58.7491 559.561 58.233C559.059 57.7121 558.811 57.054 558.815 56.2585C558.811 55.5862 558.993 55.0038 559.362 54.5114C559.736 54.0142 560.255 53.6307 560.918 53.3608C561.585 53.0862 562.355 52.9489 563.226 52.9489C564.504 52.9489 565.51 53.2211 566.244 53.7656C566.983 54.3101 567.44 55.0464 567.615 55.9744Z" fill="black"/>
<circle cx="268" cy="19" r="19" fill="#0071E3"/>
<path d="M263.582 26V24.0966L268.631 19.1463C269.114 18.6586 269.517 18.2254 269.839 17.8466C270.161 17.4678 270.402 17.1009 270.563 16.7457C270.724 16.3906 270.805 16.0118 270.805 15.6094C270.805 15.1501 270.701 14.7571 270.492 14.4304C270.284 14.099 269.997 13.8433 269.633 13.6634C269.268 13.4834 268.854 13.3935 268.39 13.3935C267.912 13.3935 267.493 13.4929 267.133 13.6918C266.773 13.8859 266.494 14.1629 266.295 14.5227C266.101 14.8826 266.004 15.3111 266.004 15.8082H263.496C263.496 14.8849 263.707 14.0824 264.129 13.4006C264.55 12.7187 265.13 12.1908 265.869 11.8168C266.612 11.4427 267.464 11.2557 268.425 11.2557C269.401 11.2557 270.258 11.438 270.996 11.8026C271.735 12.1671 272.308 12.6667 272.715 13.3011C273.127 13.9356 273.333 14.66 273.333 15.4744C273.333 16.0189 273.229 16.554 273.021 17.0795C272.812 17.6051 272.445 18.1875 271.92 18.8267C271.399 19.4659 270.667 20.2401 269.725 21.1491L267.218 23.6989V23.7983H273.553V26H263.582Z" fill="white"/>
<path d="M205.955 52.7475V51.0909H214.658V52.7475H211.287V62H209.326V52.7475H205.955ZM218.687 62.1598C217.866 62.1598 217.158 61.9893 216.561 61.6484C215.968 61.304 215.512 60.8175 215.192 60.1889C214.873 59.5568 214.713 58.8129 214.713 57.957C214.713 57.1154 214.873 56.3768 215.192 55.7411C215.515 55.1019 215.966 54.6048 216.545 54.2496C217.124 53.891 217.804 53.7116 218.585 53.7116C219.09 53.7116 219.566 53.7933 220.013 53.9567C220.464 54.1165 220.862 54.3651 221.206 54.7024C221.554 55.0398 221.828 55.4695 222.027 55.9915C222.225 56.5099 222.325 57.1278 222.325 57.8452V58.4364H215.618V57.1367H220.476C220.473 56.7674 220.393 56.4389 220.237 56.1513C220.08 55.8601 219.862 55.631 219.582 55.4641C219.305 55.2972 218.981 55.2138 218.612 55.2138C218.218 55.2138 217.872 55.3097 217.573 55.5014C217.275 55.6896 217.042 55.9382 216.876 56.2472C216.712 56.5526 216.629 56.8881 216.625 57.2539V58.3885C216.625 58.8643 216.712 59.2727 216.886 59.6136C217.06 59.951 217.303 60.2102 217.616 60.3913C217.928 60.5689 218.294 60.6577 218.713 60.6577C218.994 60.6577 219.248 60.6186 219.475 60.5405C219.702 60.4588 219.899 60.3398 220.066 60.1836C220.233 60.0273 220.359 59.8338 220.444 59.603L222.245 59.8054C222.131 60.2812 221.915 60.6967 221.595 61.0518C221.279 61.4034 220.874 61.6768 220.381 61.8722C219.887 62.0639 219.322 62.1598 218.687 62.1598ZM230.423 55.9808L228.665 56.1726C228.615 55.995 228.528 55.8281 228.404 55.6719C228.283 55.5156 228.12 55.3896 227.914 55.2937C227.708 55.1978 227.456 55.1499 227.157 55.1499C226.756 55.1499 226.419 55.2369 226.145 55.4109C225.875 55.5849 225.742 55.8104 225.746 56.0874C225.742 56.3253 225.829 56.5188 226.007 56.668C226.188 56.8171 226.486 56.9396 226.902 57.0355L228.297 57.3338C229.072 57.5007 229.647 57.7653 230.023 58.1275C230.403 58.4897 230.595 58.9638 230.599 59.5497C230.595 60.0646 230.444 60.5192 230.146 60.9134C229.851 61.304 229.441 61.6094 228.915 61.8295C228.39 62.0497 227.786 62.1598 227.104 62.1598C226.103 62.1598 225.297 61.9503 224.686 61.5312C224.075 61.1087 223.711 60.521 223.594 59.7681L225.474 59.587C225.559 59.9563 225.741 60.2351 226.018 60.4233C226.295 60.6115 226.655 60.7056 227.099 60.7056C227.557 60.7056 227.924 60.6115 228.201 60.4233C228.482 60.2351 228.622 60.0025 228.622 59.7255C228.622 59.4911 228.532 59.2976 228.351 59.1449C228.173 58.9922 227.896 58.875 227.52 58.7933L226.124 58.5004C225.339 58.337 224.759 58.0618 224.382 57.6747C224.006 57.2841 223.819 56.7905 223.823 56.1939C223.819 55.6896 223.956 55.2528 224.233 54.8835C224.514 54.5107 224.902 54.223 225.4 54.0206C225.9 53.8146 226.477 53.7116 227.131 53.7116C228.09 53.7116 228.844 53.9158 229.395 54.3242C229.949 54.7326 230.291 55.2848 230.423 55.9808ZM236.274 53.8182V55.3097H231.571V53.8182H236.274ZM232.732 51.858H234.66V59.5391C234.66 59.7983 234.699 59.9972 234.777 60.1357C234.859 60.2706 234.966 60.3629 235.097 60.4126C235.228 60.4624 235.374 60.4872 235.534 60.4872C235.654 60.4872 235.765 60.4783 235.864 60.4606C235.967 60.4428 236.045 60.4268 236.098 60.4126L236.423 61.9201C236.32 61.9556 236.173 61.9947 235.981 62.0373C235.793 62.0799 235.562 62.1048 235.289 62.1119C234.806 62.1261 234.371 62.0533 233.984 61.8935C233.597 61.7301 233.289 61.478 233.062 61.1371C232.838 60.7962 232.728 60.37 232.732 59.8587V51.858ZM251.03 54.7717H249.038C248.981 54.445 248.877 54.1555 248.724 53.9034C248.571 53.6477 248.381 53.4311 248.154 53.2536C247.927 53.076 247.667 52.9428 247.376 52.854C247.089 52.7617 246.778 52.7156 246.444 52.7156C245.851 52.7156 245.326 52.8647 244.867 53.163C244.409 53.4577 244.051 53.891 243.791 54.4627C243.532 55.0309 243.403 55.7251 243.403 56.5455C243.403 57.38 243.532 58.0831 243.791 58.6548C244.054 59.223 244.413 59.6527 244.867 59.9439C245.326 60.2315 245.849 60.3754 246.439 60.3754C246.765 60.3754 247.071 60.3327 247.355 60.2475C247.643 60.1587 247.9 60.0291 248.127 59.8587C248.358 59.6882 248.552 59.4787 248.708 59.2301C248.868 58.9815 248.978 58.6974 249.038 58.3778L251.03 58.3885C250.956 58.907 250.794 59.3935 250.546 59.848C250.301 60.3026 249.979 60.7038 249.582 61.0518C249.184 61.3963 248.719 61.6662 248.186 61.8615C247.653 62.0533 247.062 62.1491 246.412 62.1491C245.453 62.1491 244.598 61.9272 243.845 61.4833C243.092 61.0394 242.499 60.3984 242.066 59.5604C241.632 58.7223 241.416 57.7173 241.416 56.5455C241.416 55.37 241.634 54.3651 242.071 53.5305C242.508 52.6925 243.102 52.0515 243.855 51.6076C244.608 51.1637 245.46 50.9418 246.412 50.9418C247.019 50.9418 247.584 51.027 248.106 51.1974C248.628 51.3679 249.093 51.6183 249.502 51.9485C249.91 52.2752 250.246 52.6765 250.508 53.1523C250.775 53.6246 250.949 54.1644 251.03 54.7717ZM255.109 62.1651C254.591 62.1651 254.124 62.0728 253.708 61.8881C253.296 61.6999 252.97 61.4229 252.728 61.0572C252.49 60.6914 252.371 60.2404 252.371 59.7042C252.371 59.2425 252.457 58.8608 252.627 58.5589C252.798 58.2571 253.03 58.0156 253.325 57.8345C253.62 57.6534 253.952 57.5167 254.321 57.4244C254.694 57.3285 255.079 57.2592 255.477 57.2166C255.956 57.1669 256.345 57.1225 256.643 57.0835C256.942 57.0408 257.158 56.9769 257.293 56.8917C257.432 56.8029 257.501 56.6662 257.501 56.4815V56.4496C257.501 56.0483 257.382 55.7376 257.144 55.5174C256.906 55.2972 256.564 55.1871 256.116 55.1871C255.644 55.1871 255.269 55.2901 254.992 55.4961C254.719 55.7021 254.534 55.9453 254.438 56.2259L252.638 55.9702C252.78 55.473 253.014 55.0575 253.341 54.7237C253.668 54.3864 254.067 54.1342 254.539 53.9673C255.012 53.7969 255.534 53.7116 256.105 53.7116C256.5 53.7116 256.892 53.7578 257.283 53.8501C257.673 53.9425 258.03 54.0952 258.353 54.3082C258.676 54.5178 258.936 54.8036 259.131 55.1658C259.33 55.5281 259.429 55.9808 259.429 56.5241V62H257.576V60.8761H257.512C257.394 61.1033 257.229 61.3164 257.016 61.5153C256.807 61.7106 256.542 61.8686 256.223 61.9893C255.907 62.1065 255.535 62.1651 255.109 62.1651ZM255.61 60.7482C255.997 60.7482 256.333 60.6719 256.617 60.5192C256.901 60.3629 257.119 60.157 257.272 59.9013C257.428 59.6456 257.506 59.3668 257.506 59.065V58.1009C257.446 58.1506 257.343 58.1967 257.197 58.2393C257.055 58.282 256.896 58.3192 256.718 58.3512C256.54 58.3832 256.365 58.4116 256.191 58.4364C256.017 58.4613 255.866 58.4826 255.738 58.5004C255.45 58.5394 255.193 58.6033 254.966 58.6921C254.738 58.7809 254.559 58.9052 254.428 59.065C254.296 59.2212 254.23 59.4237 254.23 59.6722C254.23 60.0273 254.36 60.2955 254.619 60.4766C254.879 60.6577 255.209 60.7482 255.61 60.7482ZM267.835 55.9808L266.077 56.1726C266.027 55.995 265.94 55.8281 265.816 55.6719C265.695 55.5156 265.532 55.3896 265.326 55.2937C265.12 55.1978 264.868 55.1499 264.57 55.1499C264.168 55.1499 263.831 55.2369 263.557 55.4109C263.288 55.5849 263.154 55.8104 263.158 56.0874C263.154 56.3253 263.241 56.5188 263.419 56.668C263.6 56.8171 263.898 56.9396 264.314 57.0355L265.709 57.3338C266.484 57.5007 267.059 57.7653 267.435 58.1275C267.815 58.4897 268.007 58.9638 268.011 59.5497C268.007 60.0646 267.856 60.5192 267.558 60.9134C267.263 61.304 266.853 61.6094 266.327 61.8295C265.802 62.0497 265.198 62.1598 264.516 62.1598C263.515 62.1598 262.709 61.9503 262.098 61.5312C261.487 61.1087 261.123 60.521 261.006 59.7681L262.886 59.587C262.972 59.9563 263.153 60.2351 263.43 60.4233C263.707 60.6115 264.067 60.7056 264.511 60.7056C264.969 60.7056 265.337 60.6115 265.614 60.4233C265.894 60.2351 266.034 60.0025 266.034 59.7255C266.034 59.4911 265.944 59.2976 265.763 59.1449C265.585 58.9922 265.308 58.875 264.932 58.7933L263.536 58.5004C262.751 58.337 262.171 58.0618 261.794 57.6747C261.418 57.2841 261.231 56.7905 261.235 56.1939C261.231 55.6896 261.368 55.2528 261.645 54.8835C261.926 54.5107 262.315 54.223 262.812 54.0206C263.312 53.8146 263.89 53.7116 264.543 53.7116C265.502 53.7116 266.256 53.9158 266.807 54.3242C267.361 54.7326 267.703 55.2848 267.835 55.9808ZM273.223 62.1598C272.402 62.1598 271.694 61.9893 271.097 61.6484C270.504 61.304 270.048 60.8175 269.728 60.1889C269.409 59.5568 269.249 58.8129 269.249 57.957C269.249 57.1154 269.409 56.3768 269.728 55.7411C270.052 55.1019 270.503 54.6048 271.081 54.2496C271.66 53.891 272.34 53.7116 273.122 53.7116C273.626 53.7116 274.102 53.7933 274.549 53.9567C275 54.1165 275.398 54.3651 275.742 54.7024C276.09 55.0398 276.364 55.4695 276.563 55.9915C276.761 56.5099 276.861 57.1278 276.861 57.8452V58.4364H270.155V57.1367H275.013C275.009 56.7674 274.929 56.4389 274.773 56.1513C274.617 55.8601 274.398 55.631 274.118 55.4641C273.841 55.2972 273.518 55.2138 273.148 55.2138C272.754 55.2138 272.408 55.3097 272.11 55.5014C271.811 55.6896 271.579 55.9382 271.412 56.2472C271.248 56.5526 271.165 56.8881 271.161 57.2539V58.3885C271.161 58.8643 271.248 59.2727 271.422 59.6136C271.596 59.951 271.84 60.2102 272.152 60.3913C272.465 60.5689 272.83 60.6577 273.249 60.6577C273.53 60.6577 273.784 60.6186 274.011 60.5405C274.238 60.4588 274.436 60.3398 274.602 60.1836C274.769 60.0273 274.895 59.8338 274.981 59.603L276.781 59.8054C276.667 60.2812 276.451 60.6967 276.131 61.0518C275.815 61.4034 275.41 61.6768 274.917 61.8722C274.423 62.0639 273.858 62.1598 273.223 62.1598ZM285.995 62H282.298V51.0909H286.069C287.153 51.0909 288.083 51.3093 288.861 51.7461C289.642 52.1793 290.242 52.8026 290.661 53.6158C291.08 54.429 291.29 55.402 291.29 56.5348C291.29 57.6712 291.078 58.6477 290.656 59.4645C290.237 60.2812 289.631 60.908 288.839 61.3448C288.051 61.7816 287.103 62 285.995 62ZM284.274 60.2901H285.899C286.659 60.2901 287.293 60.1516 287.801 59.8746C288.308 59.5941 288.69 59.1768 288.946 58.6229C289.202 58.0653 289.329 57.3693 289.329 56.5348C289.329 55.7003 289.202 55.0078 288.946 54.4574C288.69 53.9034 288.312 53.4897 287.811 53.2163C287.314 52.9393 286.696 52.8008 285.958 52.8008H284.274V60.2901ZM296.704 62.1598C295.884 62.1598 295.175 61.9893 294.579 61.6484C293.986 61.304 293.53 60.8175 293.21 60.1889C292.89 59.5568 292.731 58.8129 292.731 57.957C292.731 57.1154 292.89 56.3768 293.21 55.7411C293.533 55.1019 293.984 54.6048 294.563 54.2496C295.142 53.891 295.822 53.7116 296.603 53.7116C297.107 53.7116 297.583 53.7933 298.031 53.9567C298.482 54.1165 298.879 54.3651 299.224 54.7024C299.572 55.0398 299.845 55.4695 300.044 55.9915C300.243 56.5099 300.342 57.1278 300.342 57.8452V58.4364H293.636V57.1367H298.494C298.49 56.7674 298.411 56.4389 298.254 56.1513C298.098 55.8601 297.88 55.631 297.599 55.4641C297.322 55.2972 296.999 55.2138 296.63 55.2138C296.235 55.2138 295.889 55.3097 295.591 55.5014C295.293 55.6896 295.06 55.9382 294.893 56.2472C294.73 56.5526 294.646 56.8881 294.643 57.2539V58.3885C294.643 58.8643 294.73 59.2727 294.904 59.6136C295.078 59.951 295.321 60.2102 295.634 60.3913C295.946 60.5689 296.312 60.6577 296.731 60.6577C297.011 60.6577 297.265 60.6186 297.493 60.5405C297.72 60.4588 297.917 60.3398 298.084 60.1836C298.251 60.0273 298.377 59.8338 298.462 59.603L300.262 59.8054C300.149 60.2812 299.932 60.6967 299.613 61.0518C299.297 61.4034 298.892 61.6768 298.398 61.8722C297.905 62.0639 297.34 62.1598 296.704 62.1598ZM308.44 55.9808L306.682 56.1726C306.633 55.995 306.546 55.8281 306.421 55.6719C306.301 55.5156 306.137 55.3896 305.931 55.2937C305.725 55.1978 305.473 55.1499 305.175 55.1499C304.774 55.1499 304.436 55.2369 304.163 55.4109C303.893 55.5849 303.76 55.8104 303.763 56.0874C303.76 56.3253 303.847 56.5188 304.024 56.668C304.206 56.8171 304.504 56.9396 304.919 57.0355L306.315 57.3338C307.089 57.5007 307.664 57.7653 308.041 58.1275C308.421 58.4897 308.613 58.9638 308.616 59.5497C308.613 60.0646 308.462 60.5192 308.163 60.9134C307.869 61.304 307.458 61.6094 306.933 61.8295C306.407 62.0497 305.804 62.1598 305.122 62.1598C304.12 62.1598 303.314 61.9503 302.703 61.5312C302.093 61.1087 301.729 60.521 301.611 59.7681L303.492 59.587C303.577 59.9563 303.758 60.2351 304.035 60.4233C304.312 60.6115 304.673 60.7056 305.116 60.7056C305.575 60.7056 305.942 60.6115 306.219 60.4233C306.5 60.2351 306.64 60.0025 306.64 59.7255C306.64 59.4911 306.549 59.2976 306.368 59.1449C306.191 58.9922 305.914 58.875 305.537 58.7933L304.142 58.5004C303.357 58.337 302.776 58.0618 302.4 57.6747C302.023 57.2841 301.837 56.7905 301.841 56.1939C301.837 55.6896 301.974 55.2528 302.251 54.8835C302.531 54.5107 302.92 54.223 303.417 54.0206C303.918 53.8146 304.495 53.7116 305.148 53.7116C306.107 53.7116 306.862 53.9158 307.412 54.3242C307.966 54.7326 308.309 55.2848 308.44 55.9808ZM310.206 62V53.8182H312.134V62H310.206ZM311.176 52.657C310.87 52.657 310.607 52.5558 310.387 52.3533C310.167 52.1474 310.057 51.9006 310.057 51.6129C310.057 51.3217 310.167 51.0749 310.387 50.8725C310.607 50.6665 310.87 50.5636 311.176 50.5636C311.485 50.5636 311.747 50.6665 311.964 50.8725C312.184 51.0749 312.294 51.3217 312.294 51.6129C312.294 51.9006 312.184 52.1474 311.964 52.3533C311.747 52.5558 311.485 52.657 311.176 52.657ZM317.675 65.2386C316.983 65.2386 316.388 65.1445 315.891 64.9563C315.394 64.7717 314.994 64.5231 314.693 64.2106C314.391 63.8981 314.181 63.5518 314.064 63.1719L315.8 62.7511C315.879 62.9109 315.992 63.0689 316.141 63.2251C316.291 63.3849 316.491 63.5163 316.743 63.6193C316.999 63.7259 317.32 63.7791 317.707 63.7791C318.254 63.7791 318.707 63.646 319.066 63.3796C319.424 63.1168 319.604 62.6836 319.604 62.0799V60.5298H319.508C319.408 60.7287 319.263 60.9329 319.071 61.1424C318.883 61.3519 318.633 61.5277 318.32 61.6697C318.011 61.8118 317.622 61.8828 317.153 61.8828C316.525 61.8828 315.955 61.7354 315.444 61.4407C314.936 61.1424 314.531 60.6985 314.229 60.109C313.931 59.516 313.782 58.7738 313.782 57.8825C313.782 56.984 313.931 56.2259 314.229 55.608C314.531 54.9865 314.938 54.516 315.449 54.1964C315.96 53.8732 316.53 53.7116 317.159 53.7116C317.638 53.7116 318.032 53.7933 318.341 53.9567C318.654 54.1165 318.902 54.31 319.087 54.5373C319.272 54.761 319.412 54.9723 319.508 55.1712H319.614V53.8182H321.516V62.1332C321.516 62.8327 321.349 63.4116 321.015 63.8697C320.682 64.3278 320.225 64.6705 319.646 64.8977C319.068 65.125 318.411 65.2386 317.675 65.2386ZM317.691 60.37C318.1 60.37 318.448 60.2706 318.735 60.0717C319.023 59.8729 319.242 59.587 319.391 59.2141C319.54 58.8413 319.614 58.3938 319.614 57.8718C319.614 57.3569 319.54 56.9059 319.391 56.5188C319.245 56.1317 319.028 55.8317 318.741 55.6186C318.457 55.402 318.107 55.2937 317.691 55.2937C317.262 55.2937 316.903 55.4055 316.615 55.6293C316.328 55.853 316.111 56.1602 315.966 56.5508C315.82 56.9379 315.747 57.3782 315.747 57.8718C315.747 58.3725 315.82 58.8111 315.966 59.1875C316.115 59.5604 316.333 59.8516 316.621 60.0611C316.912 60.267 317.269 60.37 317.691 60.37ZM325.42 57.206V62H323.492V53.8182H325.335V55.2085H325.431C325.619 54.7504 325.919 54.3864 326.331 54.1165C326.747 53.8466 327.26 53.7116 327.871 53.7116C328.435 53.7116 328.927 53.8324 329.346 54.0739C329.769 54.3153 330.096 54.6651 330.326 55.1232C330.561 55.5813 330.676 56.1371 330.673 56.7905V62H328.744V57.0888C328.744 56.5419 328.602 56.114 328.318 55.805C328.038 55.4961 327.649 55.3416 327.152 55.3416C326.814 55.3416 326.514 55.4162 326.251 55.5653C325.992 55.7109 325.788 55.9222 325.639 56.1992C325.493 56.4762 325.42 56.8118 325.42 57.206Z" fill="#0071E3"/>
<circle cx="59" cy="19" r="19" fill="#0071E3"/>
<path d="M61.4041 11.4545V26H58.7692V14.0185H58.6839L55.282 16.1918V13.777L58.897 11.4545H61.4041Z" fill="white"/>
<path d="M1.29616 52.3636H3.87571L7.33026 60.7955H7.46662L10.9212 52.3636H13.5007V64H11.478V56.0057H11.37L8.15412 63.9659H6.64276L3.42685 55.9886H3.31889V64H1.29616V52.3636ZM18.2166 64.1761C17.6636 64.1761 17.1655 64.0777 16.7223 63.8807C16.2829 63.6799 15.9344 63.3845 15.6768 62.9943C15.4231 62.6042 15.2962 62.1231 15.2962 61.5511C15.2962 61.0587 15.3871 60.6515 15.5689 60.3295C15.7507 60.0076 15.9988 59.75 16.3132 59.5568C16.6276 59.3636 16.9818 59.2178 17.3757 59.1193C17.7734 59.017 18.1844 58.9432 18.6087 58.8977C19.12 58.8447 19.5348 58.7973 19.853 58.7557C20.1712 58.7102 20.4022 58.642 20.5462 58.5511C20.6939 58.4564 20.7678 58.3106 20.7678 58.1136V58.0795C20.7678 57.6515 20.6409 57.3201 20.3871 57.0852C20.1333 56.8504 19.7678 56.733 19.2905 56.733C18.7867 56.733 18.3871 56.8428 18.0916 57.0625C17.8 57.2822 17.603 57.5417 17.5007 57.8409L15.5803 57.5682C15.7318 57.0379 15.9818 56.5947 16.3303 56.2386C16.6787 55.8788 17.1049 55.6098 17.6087 55.4318C18.1125 55.25 18.6693 55.1591 19.2791 55.1591C19.6996 55.1591 20.1181 55.2083 20.5348 55.3068C20.9515 55.4053 21.3321 55.5682 21.6768 55.7955C22.0215 56.0189 22.2981 56.3239 22.5064 56.7102C22.7185 57.0966 22.8246 57.5795 22.8246 58.1591V64H20.8473V62.8011H20.7791C20.6541 63.0436 20.478 63.2708 20.2507 63.483C20.0272 63.6913 19.745 63.8598 19.4041 63.9886C19.067 64.1136 18.6712 64.1761 18.2166 64.1761ZM18.7507 62.6648C19.1636 62.6648 19.5215 62.5833 19.8246 62.4205C20.1276 62.2538 20.3606 62.0341 20.5234 61.7614C20.6901 61.4886 20.7734 61.1913 20.7734 60.8693V59.8409C20.709 59.8939 20.5992 59.9432 20.4439 59.9886C20.2924 60.0341 20.1219 60.0739 19.9325 60.108C19.7431 60.142 19.5556 60.1723 19.37 60.1989C19.1844 60.2254 19.0234 60.2481 18.8871 60.267C18.5803 60.3087 18.3056 60.3769 18.0632 60.4716C17.8208 60.5663 17.6295 60.6989 17.4893 60.8693C17.3492 61.036 17.2791 61.2519 17.2791 61.517C17.2791 61.8958 17.4174 62.1818 17.6939 62.375C17.9704 62.5682 18.3227 62.6648 18.7507 62.6648ZM24.8928 64V55.2727H26.8871V56.7273H26.978C27.1371 56.2235 27.4098 55.8352 27.7962 55.5625C28.1863 55.286 28.6314 55.1477 29.1314 55.1477C29.245 55.1477 29.3719 55.1534 29.5121 55.1648C29.656 55.1723 29.7753 55.1856 29.87 55.2045V57.0966C29.7829 57.0663 29.6446 57.0398 29.4553 57.017C29.2696 56.9905 29.0897 56.9773 28.9155 56.9773C28.5405 56.9773 28.2034 57.0587 27.9041 57.2216C27.6087 57.3807 27.3757 57.6023 27.2053 57.8864C27.0348 58.1705 26.9496 58.4981 26.9496 58.8693V64H24.8928ZM33.1115 61.2614L33.1058 58.7784H33.4354L36.5717 55.2727H38.9751L35.1172 59.5682H34.6911L33.1115 61.2614ZM31.2365 64V52.3636H33.2933V64H31.2365ZM36.7138 64L33.8729 60.0284L35.2592 58.5795L39.174 64H36.7138ZM40.3459 64V55.2727H42.4027V64H40.3459ZM41.38 54.0341C41.0542 54.0341 40.7739 53.9261 40.5391 53.7102C40.3042 53.4905 40.1868 53.2273 40.1868 52.9205C40.1868 52.6098 40.3042 52.3466 40.5391 52.1307C40.7739 51.911 41.0542 51.8011 41.38 51.8011C41.7095 51.8011 41.9898 51.911 42.2209 52.1307C42.4557 52.3466 42.5732 52.6098 42.5732 52.9205C42.5732 53.2273 42.4557 53.4905 42.2209 53.7102C41.9898 53.9261 41.7095 54.0341 41.38 54.0341ZM46.5746 58.8864V64H44.5178V55.2727H46.4837V56.7557H46.5859C46.7867 56.267 47.1068 55.8788 47.5462 55.5909C47.9893 55.303 48.5367 55.1591 49.1882 55.1591C49.7905 55.1591 50.3151 55.2879 50.7621 55.5455C51.2128 55.803 51.5613 56.1761 51.8075 56.6648C52.0575 57.1534 52.1806 57.7462 52.1768 58.4432V64H50.12V58.7614C50.12 58.178 49.9685 57.7216 49.6655 57.392C49.3662 57.0625 48.9515 56.8977 48.4212 56.8977C48.0613 56.8977 47.7412 56.9773 47.4609 57.1364C47.1844 57.2917 46.9666 57.517 46.8075 57.8125C46.6522 58.108 46.5746 58.4659 46.5746 58.8864ZM58.0632 67.4545C57.3246 67.4545 56.6901 67.3542 56.1598 67.1534C55.6295 66.9564 55.2034 66.6913 54.8814 66.358C54.5594 66.0246 54.3359 65.6553 54.2109 65.25L56.0632 64.8011C56.1465 64.9716 56.2678 65.1402 56.4268 65.3068C56.5859 65.4773 56.8 65.6174 57.0689 65.7273C57.3416 65.8409 57.6844 65.8977 58.0973 65.8977C58.6806 65.8977 59.1636 65.7557 59.5462 65.4716C59.9287 65.1913 60.12 64.7292 60.12 64.0852V62.4318H60.0178C59.9117 62.6439 59.7564 62.8617 59.5518 63.0852C59.3511 63.3087 59.084 63.4962 58.7507 63.6477C58.4212 63.7992 58.0064 63.875 57.5064 63.875C56.8359 63.875 56.228 63.7178 55.6825 63.4034C55.1409 63.0852 54.709 62.6117 54.3871 61.983C54.0689 61.3504 53.9098 60.5587 53.9098 59.608C53.9098 58.6496 54.0689 57.8409 54.3871 57.1818C54.709 56.5189 55.1428 56.017 55.6882 55.6761C56.2337 55.3314 56.8416 55.1591 57.5121 55.1591C58.0234 55.1591 58.4439 55.2462 58.7734 55.4205C59.1068 55.5909 59.3719 55.7973 59.5689 56.0398C59.7659 56.2784 59.9155 56.5038 60.0178 56.7159H60.1314V55.2727H62.1598V64.142C62.1598 64.8883 61.9818 65.5057 61.6257 65.9943C61.2696 66.483 60.7829 66.8485 60.1655 67.0909C59.5481 67.3333 58.8473 67.4545 58.0632 67.4545ZM58.0803 62.2614C58.5159 62.2614 58.8871 62.1553 59.1939 61.9432C59.5007 61.7311 59.7337 61.4261 59.8928 61.0284C60.0518 60.6307 60.1314 60.1534 60.1314 59.5966C60.1314 59.0473 60.0518 58.5663 59.8928 58.1534C59.7375 57.7405 59.5064 57.4205 59.1996 57.1932C58.8965 56.9621 58.5234 56.8466 58.0803 56.8466C57.6219 56.8466 57.2393 56.9659 56.9325 57.2045C56.6257 57.4432 56.3946 57.7708 56.2393 58.1875C56.084 58.6004 56.0064 59.0701 56.0064 59.5966C56.0064 60.1307 56.084 60.5985 56.2393 61C56.3984 61.3977 56.6314 61.7083 56.9382 61.9318C57.2488 62.1515 57.6295 62.2614 58.0803 62.2614ZM68.3274 64V52.3636H72.782C73.6229 52.3636 74.3217 52.4962 74.8786 52.7614C75.4392 53.0227 75.8577 53.3807 76.1342 53.8352C76.4145 54.2898 76.5547 54.8049 76.5547 55.3807C76.5547 55.8542 76.4638 56.2595 76.282 56.5966C76.1001 56.9299 75.8558 57.2008 75.549 57.4091C75.2422 57.6174 74.8994 57.767 74.5206 57.858V57.9716C74.9335 57.9943 75.3293 58.1212 75.7081 58.3523C76.0907 58.5795 76.4032 58.9015 76.6456 59.3182C76.888 59.7348 77.0092 60.2386 77.0092 60.8295C77.0092 61.4318 76.8634 61.9735 76.5717 62.4545C76.2801 62.9318 75.8407 63.3087 75.2536 63.5852C74.6664 63.8617 73.9278 64 73.0376 64H68.3274ZM70.4354 62.2386H72.7024C73.4676 62.2386 74.0187 62.0928 74.3558 61.8011C74.6967 61.5057 74.8672 61.1269 74.8672 60.6648C74.8672 60.3201 74.782 60.0095 74.6115 59.733C74.4411 59.4527 74.1986 59.233 73.8842 59.0739C73.5698 58.911 73.1948 58.8295 72.7592 58.8295H70.4354V62.2386ZM70.4354 57.3125H72.5206C72.8842 57.3125 73.2119 57.2462 73.5036 57.1136C73.7952 56.9773 74.0244 56.786 74.1911 56.5398C74.3615 56.2898 74.4467 55.9943 74.4467 55.6534C74.4467 55.2027 74.2876 54.8314 73.9695 54.5398C73.6551 54.2481 73.1873 54.1023 72.5661 54.1023H70.4354V57.3125ZM81.2635 64.1761C80.7105 64.1761 80.2124 64.0777 79.7692 63.8807C79.3298 63.6799 78.9813 63.3845 78.7237 62.9943C78.4699 62.6042 78.343 62.1231 78.343 61.5511C78.343 61.0587 78.4339 60.6515 78.6158 60.3295C78.7976 60.0076 79.0457 59.75 79.3601 59.5568C79.6745 59.3636 80.0286 59.2178 80.4226 59.1193C80.8203 59.017 81.2313 58.9432 81.6555 58.8977C82.1669 58.8447 82.5817 58.7973 82.8999 58.7557C83.218 58.7102 83.4491 58.642 83.593 58.5511C83.7408 58.4564 83.8146 58.3106 83.8146 58.1136V58.0795C83.8146 57.6515 83.6877 57.3201 83.4339 57.0852C83.1802 56.8504 82.8146 56.733 82.3374 56.733C81.8336 56.733 81.4339 56.8428 81.1385 57.0625C80.8468 57.2822 80.6499 57.5417 80.5476 57.8409L78.6271 57.5682C78.7786 57.0379 79.0286 56.5947 79.3771 56.2386C79.7256 55.8788 80.1518 55.6098 80.6555 55.4318C81.1593 55.25 81.7161 55.1591 82.326 55.1591C82.7464 55.1591 83.165 55.2083 83.5817 55.3068C83.9983 55.4053 84.379 55.5682 84.7237 55.7955C85.0684 56.0189 85.3449 56.3239 85.5533 56.7102C85.7654 57.0966 85.8714 57.5795 85.8714 58.1591V64H83.8942V62.8011H83.826C83.701 63.0436 83.5249 63.2708 83.2976 63.483C83.0741 63.6913 82.7919 63.8598 82.451 63.9886C82.1139 64.1136 81.718 64.1761 81.2635 64.1761ZM81.7976 62.6648C82.2105 62.6648 82.5684 62.5833 82.8714 62.4205C83.1745 62.2538 83.4074 62.0341 83.5703 61.7614C83.737 61.4886 83.8203 61.1913 83.8203 60.8693V59.8409C83.7559 59.8939 83.6461 59.9432 83.4908 59.9886C83.3393 60.0341 83.1688 60.0739 82.9794 60.108C82.79 60.142 82.6025 60.1723 82.4169 60.1989C82.2313 60.2254 82.0703 60.2481 81.9339 60.267C81.6271 60.3087 81.3525 60.3769 81.1101 60.4716C80.8677 60.5663 80.6764 60.6989 80.5362 60.8693C80.3961 61.036 80.326 61.2519 80.326 61.517C80.326 61.8958 80.4643 62.1818 80.7408 62.375C81.0173 62.5682 81.3696 62.6648 81.7976 62.6648ZM94.8374 57.5795L92.9624 57.7841C92.9093 57.5947 92.8165 57.4167 92.6839 57.25C92.5552 57.0833 92.3809 56.9489 92.1612 56.8466C91.9415 56.7443 91.6726 56.6932 91.3544 56.6932C90.9264 56.6932 90.5665 56.786 90.2749 56.9716C89.987 57.1572 89.8449 57.3977 89.8487 57.6932C89.8449 57.947 89.9377 58.1534 90.1271 58.3125C90.3203 58.4716 90.6385 58.6023 91.0817 58.7045L92.5703 59.0227C93.3961 59.2008 94.0097 59.483 94.4112 59.8693C94.8165 60.2557 95.0211 60.7614 95.0249 61.3864C95.0211 61.9356 94.8601 62.4205 94.5419 62.8409C94.2275 63.2576 93.79 63.5833 93.2294 63.8182C92.6688 64.053 92.0249 64.1705 91.2976 64.1705C90.2294 64.1705 89.3696 63.947 88.718 63.5C88.0665 63.0492 87.6783 62.4223 87.5533 61.6193L89.5589 61.4261C89.6499 61.8201 89.843 62.1174 90.1385 62.3182C90.4339 62.5189 90.8184 62.6193 91.2919 62.6193C91.7805 62.6193 92.1726 62.5189 92.468 62.3182C92.7673 62.1174 92.9169 61.8693 92.9169 61.5739C92.9169 61.3239 92.8203 61.1174 92.6271 60.9545C92.4377 60.7917 92.1423 60.6667 91.7408 60.5795L90.2521 60.267C89.415 60.0928 88.7957 59.7992 88.3942 59.3864C87.9927 58.9697 87.7938 58.4432 87.7976 57.8068C87.7938 57.2689 87.9396 56.803 88.2351 56.4091C88.5343 56.0114 88.9491 55.7045 89.4794 55.4886C90.0135 55.2689 90.629 55.1591 91.326 55.1591C92.3487 55.1591 93.1536 55.3769 93.7408 55.8125C94.3317 56.2481 94.6972 56.8371 94.8374 57.5795ZM96.7209 64V55.2727H98.7777V64H96.7209ZM97.755 54.0341C97.4292 54.0341 97.1489 53.9261 96.9141 53.7102C96.6792 53.4905 96.5618 53.2273 96.5618 52.9205C96.5618 52.6098 96.6792 52.3466 96.9141 52.1307C97.1489 51.911 97.4292 51.8011 97.755 51.8011C98.0845 51.8011 98.3648 51.911 98.5959 52.1307C98.8307 52.3466 98.9482 52.6098 98.9482 52.9205C98.9482 53.2273 98.8307 53.4905 98.5959 53.7102C98.3648 53.9261 98.0845 54.0341 97.755 54.0341ZM104.7 64.1705C103.828 64.1705 103.08 63.9792 102.455 63.5966C101.834 63.214 101.355 62.6856 101.018 62.0114C100.684 61.3333 100.518 60.553 100.518 59.6705C100.518 58.7841 100.688 58.0019 101.029 57.3239C101.37 56.642 101.851 56.1117 102.472 55.733C103.097 55.3504 103.836 55.1591 104.688 55.1591C105.397 55.1591 106.023 55.2898 106.569 55.5511C107.118 55.8087 107.556 56.1742 107.881 56.6477C108.207 57.1174 108.393 57.6667 108.438 58.2955H106.472C106.393 57.875 106.203 57.5246 105.904 57.2443C105.609 56.9602 105.213 56.8182 104.717 56.8182C104.296 56.8182 103.927 56.9318 103.609 57.1591C103.29 57.3826 103.042 57.7045 102.864 58.125C102.69 58.5455 102.603 59.0492 102.603 59.6364C102.603 60.2311 102.69 60.7424 102.864 61.1705C103.039 61.5947 103.283 61.9223 103.597 62.1534C103.915 62.3807 104.289 62.4943 104.717 62.4943C105.02 62.4943 105.29 62.4375 105.529 62.3239C105.772 62.2064 105.974 62.0379 106.137 61.8182C106.3 61.5985 106.412 61.3314 106.472 61.017H108.438C108.389 61.6345 108.207 62.1818 107.893 62.6591C107.578 63.1326 107.15 63.5038 106.609 63.7727C106.067 64.0379 105.431 64.1705 104.7 64.1705ZM117.025 57.5795L115.15 57.7841C115.097 57.5947 115.004 57.4167 114.871 57.25C114.743 57.0833 114.568 56.9489 114.349 56.8466C114.129 56.7443 113.86 56.6932 113.542 56.6932C113.114 56.6932 112.754 56.786 112.462 56.9716C112.174 57.1572 112.032 57.3977 112.036 57.6932C112.032 57.947 112.125 58.1534 112.315 58.3125C112.508 58.4716 112.826 58.6023 113.269 58.7045L114.758 59.0227C115.584 59.2008 116.197 59.483 116.599 59.8693C117.004 60.2557 117.209 60.7614 117.212 61.3864C117.209 61.9356 117.048 62.4205 116.729 62.8409C116.415 63.2576 115.978 63.5833 115.417 63.8182C114.856 64.053 114.212 64.1705 113.485 64.1705C112.417 64.1705 111.557 63.947 110.906 63.5C110.254 63.0492 109.866 62.4223 109.741 61.6193L111.746 61.4261C111.837 61.8201 112.031 62.1174 112.326 62.3182C112.621 62.5189 113.006 62.6193 113.479 62.6193C113.968 62.6193 114.36 62.5189 114.656 62.3182C114.955 62.1174 115.104 61.8693 115.104 61.5739C115.104 61.3239 115.008 61.1174 114.815 60.9545C114.625 60.7917 114.33 60.6667 113.928 60.5795L112.44 60.267C111.603 60.0928 110.983 59.7992 110.582 59.3864C110.18 58.9697 109.981 58.4432 109.985 57.8068C109.981 57.2689 110.127 56.803 110.423 56.4091C110.722 56.0114 111.137 55.7045 111.667 55.4886C112.201 55.2689 112.817 55.1591 113.513 55.1591C114.536 55.1591 115.341 55.3769 115.928 55.8125C116.519 56.2481 116.885 56.8371 117.025 57.5795Z" fill="#0071E3"/>
</svg>
