<svg width="749" height="70" viewBox="0 0 749 70" fill="none" xmlns="http://www.w3.org/2000/svg">
<mask id="path-1-inside-1_14_130" fill="white">
<path d="M508 15H685V22H508V15Z"/>
</mask>
<path d="M508 15H685V22H508V15Z" fill="white"/>
<path d="M508 16H685V14H508V16ZM685 21H508V23H685V21Z" fill="#0071E3" mask="url(#path-1-inside-1_14_130)"/>
<mask id="path-3-inside-2_14_130" fill="white">
<path d="M299 15H476V22H299V15Z"/>
</mask>
<path d="M299 15H476V22H299V15Z" fill="white"/>
<path d="M299 16H476V14H299V16ZM476 21H299V23H476V21Z" fill="#0071E3" mask="url(#path-3-inside-2_14_130)"/>
<mask id="path-5-inside-3_14_130" fill="white">
<path d="M90 15H267V22H90V15Z"/>
</mask>
<path d="M90 15H267V22H90V15Z" fill="white"/>
<path d="M90 16H267V14H90V16ZM267 21H90V23H267V21Z" fill="#0071E3" mask="url(#path-5-inside-3_14_130)"/>
<circle cx="701" cy="19" r="17.5" fill="white" stroke="#0071E3" stroke-width="3"/>
<path d="M695.37 23.3011V21.206L701.542 11.4545H703.289V14.4375H702.223L698.069 21.0213V21.1349H706.684V23.3011H695.37ZM702.309 26V22.6619L702.337 21.7244V11.4545H704.823V26H702.309Z" fill="#0071E3"/>
<path d="M662.553 51.3636H664.661V58.9659C664.661 59.7992 664.464 60.5322 664.07 61.1648C663.68 61.7973 663.131 62.2917 662.423 62.6477C661.714 63 660.887 63.1761 659.94 63.1761C658.989 63.1761 658.159 63 657.451 62.6477C656.743 62.2917 656.193 61.7973 655.803 61.1648C655.413 60.5322 655.218 59.7992 655.218 58.9659V51.3636H657.326V58.7898C657.326 59.2746 657.432 59.7064 657.644 60.0852C657.86 60.464 658.163 60.7614 658.553 60.9773C658.943 61.1894 659.406 61.2955 659.94 61.2955C660.474 61.2955 660.936 61.1894 661.326 60.9773C661.72 60.7614 662.023 60.464 662.235 60.0852C662.447 59.7064 662.553 59.2746 662.553 58.7898V51.3636ZM666.862 66.2727V54.2727H668.884V55.7159H669.004C669.11 55.5038 669.259 55.2784 669.452 55.0398C669.646 54.7973 669.907 54.5909 670.237 54.4205C670.566 54.2462 670.987 54.1591 671.498 54.1591C672.172 54.1591 672.78 54.3314 673.322 54.6761C673.867 55.017 674.299 55.5227 674.617 56.1932C674.939 56.8598 675.1 57.678 675.1 58.6477C675.1 59.6061 674.943 60.4205 674.629 61.0909C674.314 61.7614 673.886 62.2727 673.344 62.625C672.803 62.9773 672.189 63.1534 671.504 63.1534C671.004 63.1534 670.589 63.0701 670.259 62.9034C669.93 62.7367 669.665 62.536 669.464 62.3011C669.267 62.0625 669.113 61.8371 669.004 61.625H668.918V66.2727H666.862ZM668.879 58.6364C668.879 59.2008 668.958 59.6951 669.117 60.1193C669.28 60.5436 669.513 60.875 669.816 61.1136C670.123 61.3485 670.494 61.4659 670.93 61.4659C671.384 61.4659 671.765 61.3447 672.072 61.1023C672.379 60.8561 672.61 60.5208 672.765 60.0966C672.924 59.6686 673.004 59.1818 673.004 58.6364C673.004 58.0947 672.926 57.6136 672.771 57.1932C672.615 56.7727 672.384 56.4432 672.077 56.2045C671.771 55.9659 671.388 55.8466 670.93 55.8466C670.49 55.8466 670.117 55.9621 669.81 56.1932C669.504 56.4242 669.271 56.7481 669.112 57.1648C668.956 57.5814 668.879 58.072 668.879 58.6364ZM678.918 51.3636V63H676.862V51.3636H678.918ZM684.84 63.1705C683.988 63.1705 683.249 62.983 682.624 62.608C681.999 62.233 681.514 61.7083 681.17 61.0341C680.829 60.3598 680.658 59.572 680.658 58.6705C680.658 57.7689 680.829 56.9792 681.17 56.3011C681.514 55.6231 681.999 55.0966 682.624 54.7216C683.249 54.3466 683.988 54.1591 684.84 54.1591C685.692 54.1591 686.431 54.3466 687.056 54.7216C687.681 55.0966 688.164 55.6231 688.505 56.3011C688.85 56.9792 689.022 57.7689 689.022 58.6705C689.022 59.572 688.85 60.3598 688.505 61.0341C688.164 61.7083 687.681 62.233 687.056 62.608C686.431 62.983 685.692 63.1705 684.84 63.1705ZM684.852 61.5227C685.314 61.5227 685.7 61.3958 686.011 61.142C686.321 60.8845 686.552 60.5398 686.704 60.108C686.859 59.6761 686.937 59.1951 686.937 58.6648C686.937 58.1307 686.859 57.6477 686.704 57.2159C686.552 56.7803 686.321 56.4337 686.011 56.1761C685.7 55.9186 685.314 55.7898 684.852 55.7898C684.378 55.7898 683.984 55.9186 683.67 56.1761C683.359 56.4337 683.126 56.7803 682.971 57.2159C682.819 57.6477 682.744 58.1307 682.744 58.6648C682.744 59.1951 682.819 59.6761 682.971 60.108C683.126 60.5398 683.359 60.8845 683.67 61.142C683.984 61.3958 684.378 61.5227 684.852 61.5227ZM693.279 63.1761C692.726 63.1761 692.228 63.0777 691.785 62.8807C691.345 62.6799 690.997 62.3845 690.739 61.9943C690.486 61.6042 690.359 61.1231 690.359 60.5511C690.359 60.0587 690.45 59.6515 690.631 59.3295C690.813 59.0076 691.061 58.75 691.376 58.5568C691.69 58.3636 692.044 58.2178 692.438 58.1193C692.836 58.017 693.247 57.9432 693.671 57.8977C694.183 57.8447 694.597 57.7973 694.915 57.7557C695.234 57.7102 695.465 57.642 695.609 57.5511C695.756 57.4564 695.83 57.3106 695.83 57.1136V57.0795C695.83 56.6515 695.703 56.3201 695.45 56.0852C695.196 55.8504 694.83 55.733 694.353 55.733C693.849 55.733 693.45 55.8428 693.154 56.0625C692.862 56.2822 692.665 56.5417 692.563 56.8409L690.643 56.5682C690.794 56.0379 691.044 55.5947 691.393 55.2386C691.741 54.8788 692.167 54.6098 692.671 54.4318C693.175 54.25 693.732 54.1591 694.342 54.1591C694.762 54.1591 695.181 54.2083 695.597 54.3068C696.014 54.4053 696.395 54.5682 696.739 54.7955C697.084 55.0189 697.361 55.3239 697.569 55.7102C697.781 56.0966 697.887 56.5795 697.887 57.1591V63H695.91V61.8011H695.842C695.717 62.0436 695.54 62.2708 695.313 62.483C695.09 62.6913 694.808 62.8598 694.467 62.9886C694.129 63.1136 693.734 63.1761 693.279 63.1761ZM693.813 61.6648C694.226 61.6648 694.584 61.5833 694.887 61.4205C695.19 61.2538 695.423 61.0341 695.586 60.7614C695.753 60.4886 695.836 60.1913 695.836 59.8693V58.8409C695.772 58.8939 695.662 58.9432 695.506 58.9886C695.355 59.0341 695.184 59.0739 694.995 59.108C694.806 59.142 694.618 59.1723 694.433 59.1989C694.247 59.2254 694.086 59.2481 693.95 59.267C693.643 59.3087 693.368 59.3769 693.126 59.4716C692.883 59.5663 692.692 59.6989 692.552 59.8693C692.412 60.036 692.342 60.2519 692.342 60.517C692.342 60.8958 692.48 61.1818 692.756 61.375C693.033 61.5682 693.385 61.6648 693.813 61.6648ZM703.194 63.1534C702.508 63.1534 701.895 62.9773 701.353 62.625C700.811 62.2727 700.383 61.7614 700.069 61.0909C699.754 60.4205 699.597 59.6061 699.597 58.6477C699.597 57.678 699.756 56.8598 700.075 56.1932C700.397 55.5227 700.83 55.017 701.376 54.6761C701.921 54.3314 702.529 54.1591 703.2 54.1591C703.711 54.1591 704.131 54.2462 704.461 54.4205C704.79 54.5909 705.052 54.7973 705.245 55.0398C705.438 55.2784 705.588 55.5038 705.694 55.7159H705.779V51.3636H707.842V63H705.819V61.625H705.694C705.588 61.8371 705.434 62.0625 705.234 62.3011C705.033 62.536 704.768 62.7367 704.438 62.9034C704.109 63.0701 703.694 63.1534 703.194 63.1534ZM703.768 61.4659C704.203 61.4659 704.575 61.3485 704.881 61.1136C705.188 60.875 705.421 60.5436 705.58 60.1193C705.739 59.6951 705.819 59.2008 705.819 58.6364C705.819 58.072 705.739 57.5814 705.58 57.1648C705.425 56.7481 705.194 56.4242 704.887 56.1932C704.584 55.9621 704.211 55.8466 703.768 55.8466C703.309 55.8466 702.927 55.9659 702.62 56.2045C702.313 56.4432 702.082 56.7727 701.927 57.1932C701.772 57.6136 701.694 58.0947 701.694 58.6364C701.694 59.1818 701.772 59.6686 701.927 60.0966C702.086 60.5208 702.319 60.8561 702.626 61.1023C702.936 61.3447 703.317 61.4659 703.768 61.4659ZM714.093 63V51.3636H721.548V53.1307H716.201V56.2898H721.036V58.0568H716.201V63H714.093ZM723.377 63V54.2727H725.434V63H723.377ZM724.411 53.0341C724.085 53.0341 723.805 52.9261 723.57 52.7102C723.335 52.4905 723.218 52.2273 723.218 51.9205C723.218 51.6098 723.335 51.3466 723.57 51.1307C723.805 50.911 724.085 50.8011 724.411 50.8011C724.741 50.8011 725.021 50.911 725.252 51.1307C725.487 51.3466 725.604 51.6098 725.604 51.9205C725.604 52.2273 725.487 52.4905 725.252 52.7102C725.021 52.9261 724.741 53.0341 724.411 53.0341ZM729.606 51.3636V63H727.549V51.3636H729.606ZM735.585 63.1705C734.71 63.1705 733.954 62.9886 733.317 62.625C732.685 62.2576 732.198 61.7386 731.857 61.0682C731.516 60.3939 731.346 59.6004 731.346 58.6875C731.346 57.7898 731.516 57.0019 731.857 56.3239C732.202 55.642 732.683 55.1117 733.3 54.733C733.918 54.3504 734.643 54.1591 735.477 54.1591C736.014 54.1591 736.522 54.2462 736.999 54.4205C737.48 54.5909 737.905 54.8561 738.272 55.2159C738.643 55.5758 738.935 56.0341 739.147 56.5909C739.359 57.1439 739.465 57.803 739.465 58.5682V59.1989H732.312V57.8125H737.494C737.49 57.4186 737.405 57.0682 737.238 56.7614C737.071 56.4508 736.838 56.2064 736.539 56.0284C736.244 55.8504 735.899 55.7614 735.505 55.7614C735.085 55.7614 734.715 55.8636 734.397 56.0682C734.079 56.2689 733.831 56.5341 733.653 56.8636C733.478 57.1894 733.389 57.5473 733.386 57.9375V59.1477C733.386 59.6553 733.478 60.0909 733.664 60.4545C733.85 60.8144 734.109 61.0909 734.442 61.2841C734.776 61.4735 735.166 61.5682 735.613 61.5682C735.912 61.5682 736.183 61.5265 736.425 61.4432C736.668 61.3561 736.878 61.2292 737.056 61.0625C737.234 60.8958 737.369 60.6894 737.46 60.4432L739.38 60.6591C739.259 61.1667 739.028 61.6098 738.687 61.9886C738.35 62.3636 737.918 62.6553 737.391 62.8636C736.865 63.0682 736.263 63.1705 735.585 63.1705ZM748.103 56.5795L746.228 56.7841C746.175 56.5947 746.082 56.4167 745.95 56.25C745.821 56.0833 745.647 55.9489 745.427 55.8466C745.207 55.7443 744.938 55.6932 744.62 55.6932C744.192 55.6932 743.832 55.786 743.54 55.9716C743.253 56.1572 743.111 56.3977 743.114 56.6932C743.111 56.947 743.203 57.1534 743.393 57.3125C743.586 57.4716 743.904 57.6023 744.347 57.7045L745.836 58.0227C746.662 58.2008 747.275 58.483 747.677 58.8693C748.082 59.2557 748.287 59.7614 748.29 60.3864C748.287 60.9356 748.126 61.4205 747.808 61.8409C747.493 62.2576 747.056 62.5833 746.495 62.8182C745.934 63.053 745.29 63.1705 744.563 63.1705C743.495 63.1705 742.635 62.947 741.984 62.5C741.332 62.0492 740.944 61.4223 740.819 60.6193L742.825 60.4261C742.915 60.8201 743.109 61.1174 743.404 61.3182C743.7 61.5189 744.084 61.6193 744.558 61.6193C745.046 61.6193 745.438 61.5189 745.734 61.3182C746.033 61.1174 746.183 60.8693 746.183 60.5739C746.183 60.3239 746.086 60.1174 745.893 59.9545C745.703 59.7917 745.408 59.6667 745.006 59.5795L743.518 59.267C742.681 59.0928 742.061 58.7992 741.66 58.3864C741.258 57.9697 741.059 57.4432 741.063 56.8068C741.059 56.2689 741.205 55.803 741.501 55.4091C741.8 55.0114 742.215 54.7045 742.745 54.4886C743.279 54.2689 743.895 54.1591 744.592 54.1591C745.614 54.1591 746.419 54.3769 747.006 54.8125C747.597 55.2481 747.963 55.8371 748.103 56.5795Z" fill="#D9D9D9"/>
<circle cx="492" cy="19" r="17.5" fill="white" stroke="#0071E3" stroke-width="3"/>
<path d="M491.999 26.1989C490.976 26.1989 490.067 26.0237 489.272 25.6733C488.481 25.3229 487.856 24.8352 487.397 24.2102C486.938 23.5852 486.694 22.8632 486.665 22.044H489.336C489.359 22.437 489.49 22.7803 489.726 23.0739C489.963 23.3627 490.278 23.5876 490.671 23.7486C491.064 23.9096 491.504 23.9901 491.992 23.9901C492.513 23.9901 492.974 23.9001 493.377 23.7202C493.779 23.5355 494.094 23.2798 494.322 22.9531C494.549 22.6264 494.66 22.25 494.655 21.8239C494.66 21.3835 494.546 20.9953 494.314 20.6591C494.082 20.3229 493.746 20.0601 493.306 19.8707C492.87 19.6813 492.345 19.5866 491.729 19.5866H490.444V17.5554H491.729C492.236 17.5554 492.679 17.4678 493.057 17.2926C493.441 17.1174 493.742 16.8712 493.959 16.554C494.177 16.232 494.284 15.8603 494.279 15.4389C494.284 15.027 494.191 14.6695 494.002 14.3665C493.817 14.0587 493.555 13.8196 493.214 13.6491C492.877 13.4787 492.482 13.3935 492.028 13.3935C491.582 13.3935 491.171 13.474 490.792 13.6349C490.413 13.7959 490.108 14.0256 489.876 14.3239C489.644 14.6174 489.52 14.9678 489.506 15.375H486.971C486.99 14.5606 487.224 13.8456 487.674 13.2301C488.128 12.6098 488.734 12.1269 489.492 11.7812C490.25 11.4309 491.099 11.2557 492.042 11.2557C493.012 11.2557 493.855 11.438 494.57 11.8026C495.29 12.1624 495.846 12.6477 496.239 13.2585C496.632 13.8693 496.829 14.544 496.829 15.2827C496.833 16.1018 496.592 16.7884 496.104 17.3423C495.621 17.8963 494.987 18.2585 494.201 18.429V18.5426C495.224 18.6847 496.007 19.0634 496.552 19.679C497.101 20.2898 497.373 21.0497 497.368 21.9588C497.368 22.7732 497.136 23.5024 496.672 24.1463C496.213 24.7855 495.579 25.2874 494.769 25.652C493.964 26.0166 493.041 26.1989 491.999 26.1989Z" fill="#0071E3"/>
<path d="M419.923 63H417.673L421.77 51.3636H424.372L428.474 63H426.224L423.116 53.75H423.026L419.923 63ZM419.997 58.4375H426.134V60.1307H419.997V58.4375ZM432.889 63.1534C432.204 63.1534 431.59 62.9773 431.048 62.625C430.507 62.2727 430.079 61.7614 429.764 61.0909C429.45 60.4205 429.293 59.6061 429.293 58.6477C429.293 57.678 429.452 56.8598 429.77 56.1932C430.092 55.5227 430.526 55.017 431.071 54.6761C431.616 54.3314 432.224 54.1591 432.895 54.1591C433.406 54.1591 433.827 54.2462 434.156 54.4205C434.486 54.5909 434.747 54.7973 434.94 55.0398C435.134 55.2784 435.283 55.5038 435.389 55.7159H435.474V51.3636H437.537V63H435.514V61.625H435.389C435.283 61.8371 435.13 62.0625 434.929 62.3011C434.728 62.536 434.463 62.7367 434.134 62.9034C433.804 63.0701 433.389 63.1534 432.889 63.1534ZM433.463 61.4659C433.899 61.4659 434.27 61.3485 434.577 61.1136C434.884 60.875 435.116 60.5436 435.276 60.1193C435.435 59.6951 435.514 59.2008 435.514 58.6364C435.514 58.072 435.435 57.5814 435.276 57.1648C435.12 56.7481 434.889 56.4242 434.582 56.1932C434.279 55.9621 433.906 55.8466 433.463 55.8466C433.005 55.8466 432.622 55.9659 432.315 56.2045C432.009 56.4432 431.777 56.7727 431.622 57.1932C431.467 57.6136 431.389 58.0947 431.389 58.6364C431.389 59.1818 431.467 59.6686 431.622 60.0966C431.781 60.5208 432.014 60.8561 432.321 61.1023C432.632 61.3447 433.012 61.4659 433.463 61.4659ZM442.967 63.1534C442.282 63.1534 441.668 62.9773 441.126 62.625C440.585 62.2727 440.157 61.7614 439.842 61.0909C439.528 60.4205 439.371 59.6061 439.371 58.6477C439.371 57.678 439.53 56.8598 439.848 56.1932C440.17 55.5227 440.604 55.017 441.149 54.6761C441.695 54.3314 442.303 54.1591 442.973 54.1591C443.484 54.1591 443.905 54.2462 444.234 54.4205C444.564 54.5909 444.825 54.7973 445.018 55.0398C445.212 55.2784 445.361 55.5038 445.467 55.7159H445.553V51.3636H447.615V63H445.592V61.625H445.467C445.361 61.8371 445.208 62.0625 445.007 62.3011C444.806 62.536 444.541 62.7367 444.212 62.9034C443.882 63.0701 443.467 63.1534 442.967 63.1534ZM443.541 61.4659C443.977 61.4659 444.348 61.3485 444.655 61.1136C444.962 60.875 445.195 60.5436 445.354 60.1193C445.513 59.6951 445.592 59.2008 445.592 58.6364C445.592 58.072 445.513 57.5814 445.354 57.1648C445.198 56.7481 444.967 56.4242 444.661 56.1932C444.357 55.9621 443.984 55.8466 443.541 55.8466C443.083 55.8466 442.7 55.9659 442.393 56.2045C442.087 56.4432 441.856 56.7727 441.7 57.1932C441.545 57.6136 441.467 58.0947 441.467 58.6364C441.467 59.1818 441.545 59.6686 441.7 60.0966C441.859 60.5208 442.092 60.8561 442.399 61.1023C442.71 61.3447 443.09 61.4659 443.541 61.4659ZM449.807 63V54.2727H451.864V63H449.807ZM450.841 53.0341C450.515 53.0341 450.235 52.9261 450 52.7102C449.765 52.4905 449.648 52.2273 449.648 51.9205C449.648 51.6098 449.765 51.3466 450 51.1307C450.235 50.911 450.515 50.8011 450.841 50.8011C451.17 50.8011 451.451 50.911 451.682 51.1307C451.917 51.3466 452.034 51.6098 452.034 51.9205C452.034 52.2273 451.917 52.4905 451.682 52.7102C451.451 52.9261 451.17 53.0341 450.841 53.0341ZM458.337 54.2727V55.8636H453.32V54.2727H458.337ZM454.558 52.1818H456.615V60.375C456.615 60.6515 456.657 60.8636 456.74 61.0114C456.827 61.1553 456.941 61.2538 457.081 61.3068C457.221 61.3598 457.376 61.3864 457.547 61.3864C457.676 61.3864 457.793 61.3769 457.899 61.358C458.009 61.339 458.092 61.322 458.149 61.3068L458.496 62.9148C458.386 62.9527 458.229 62.9943 458.024 63.0398C457.823 63.0852 457.577 63.1117 457.286 63.1193C456.77 63.1345 456.306 63.0568 455.893 62.8864C455.481 62.7121 455.153 62.4432 454.911 62.0795C454.672 61.7159 454.554 61.2614 454.558 60.7159V52.1818ZM460.057 63V54.2727H462.114V63H460.057ZM461.091 53.0341C460.765 53.0341 460.485 52.9261 460.25 52.7102C460.015 52.4905 459.898 52.2273 459.898 51.9205C459.898 51.6098 460.015 51.3466 460.25 51.1307C460.485 50.911 460.765 50.8011 461.091 50.8011C461.42 50.8011 461.701 50.911 461.932 51.1307C462.167 51.3466 462.284 51.6098 462.284 51.9205C462.284 52.2273 462.167 52.4905 461.932 52.7102C461.701 52.9261 461.42 53.0341 461.091 53.0341ZM468.036 63.1705C467.183 63.1705 466.445 62.983 465.82 62.608C465.195 62.233 464.71 61.7083 464.365 61.0341C464.024 60.3598 463.854 59.572 463.854 58.6705C463.854 57.7689 464.024 56.9792 464.365 56.3011C464.71 55.6231 465.195 55.0966 465.82 54.7216C466.445 54.3466 467.183 54.1591 468.036 54.1591C468.888 54.1591 469.626 54.3466 470.251 54.7216C470.876 55.0966 471.359 55.6231 471.7 56.3011C472.045 56.9792 472.217 57.7689 472.217 58.6705C472.217 59.572 472.045 60.3598 471.7 61.0341C471.359 61.7083 470.876 62.233 470.251 62.608C469.626 62.983 468.888 63.1705 468.036 63.1705ZM468.047 61.5227C468.509 61.5227 468.895 61.3958 469.206 61.142C469.517 60.8845 469.748 60.5398 469.899 60.108C470.054 59.6761 470.132 59.1951 470.132 58.6648C470.132 58.1307 470.054 57.6477 469.899 57.2159C469.748 56.7803 469.517 56.4337 469.206 56.1761C468.895 55.9186 468.509 55.7898 468.047 55.7898C467.573 55.7898 467.179 55.9186 466.865 56.1761C466.554 56.4337 466.321 56.7803 466.166 57.2159C466.015 57.6477 465.939 58.1307 465.939 58.6648C465.939 59.1951 466.015 59.6761 466.166 60.108C466.321 60.5398 466.554 60.8845 466.865 61.142C467.179 61.3958 467.573 61.5227 468.047 61.5227ZM476.02 57.8864V63H473.963V54.2727H475.929V55.7557H476.031C476.232 55.267 476.552 54.8788 476.991 54.5909C477.435 54.303 477.982 54.1591 478.634 54.1591C479.236 54.1591 479.76 54.2879 480.207 54.5455C480.658 54.803 481.007 55.1761 481.253 55.6648C481.503 56.1534 481.626 56.7462 481.622 57.4432V63H479.565V57.7614C479.565 57.178 479.414 56.7216 479.111 56.392C478.812 56.0625 478.397 55.8977 477.866 55.8977C477.507 55.8977 477.187 55.9773 476.906 56.1364C476.63 56.2917 476.412 56.517 476.253 56.8125C476.098 57.108 476.02 57.4659 476.02 57.8864ZM486.224 63.1761C485.671 63.1761 485.173 63.0777 484.73 62.8807C484.291 62.6799 483.942 62.3845 483.685 61.9943C483.431 61.6042 483.304 61.1231 483.304 60.5511C483.304 60.0587 483.395 59.6515 483.577 59.3295C483.759 59.0076 484.007 58.75 484.321 58.5568C484.635 58.3636 484.99 58.2178 485.384 58.1193C485.781 58.017 486.192 57.9432 486.616 57.8977C487.128 57.8447 487.543 57.7973 487.861 57.7557C488.179 57.7102 488.41 57.642 488.554 57.5511C488.702 57.4564 488.776 57.3106 488.776 57.1136V57.0795C488.776 56.6515 488.649 56.3201 488.395 56.0852C488.141 55.8504 487.776 55.733 487.298 55.733C486.795 55.733 486.395 55.8428 486.099 56.0625C485.808 56.2822 485.611 56.5417 485.509 56.8409L483.588 56.5682C483.74 56.0379 483.99 55.5947 484.338 55.2386C484.687 54.8788 485.113 54.6098 485.616 54.4318C486.12 54.25 486.677 54.1591 487.287 54.1591C487.707 54.1591 488.126 54.2083 488.543 54.3068C488.959 54.4053 489.34 54.5682 489.685 54.7955C490.029 55.0189 490.306 55.3239 490.514 55.7102C490.726 56.0966 490.832 56.5795 490.832 57.1591V63H488.855V61.8011H488.787C488.662 62.0436 488.486 62.2708 488.259 62.483C488.035 62.6913 487.753 62.8598 487.412 62.9886C487.075 63.1136 486.679 63.1761 486.224 63.1761ZM486.759 61.6648C487.171 61.6648 487.529 61.5833 487.832 61.4205C488.135 61.2538 488.368 61.0341 488.531 60.7614C488.698 60.4886 488.781 60.1913 488.781 59.8693V58.8409C488.717 58.8939 488.607 58.9432 488.452 58.9886C488.3 59.0341 488.13 59.0739 487.94 59.108C487.751 59.142 487.563 59.1723 487.378 59.1989C487.192 59.2254 487.031 59.2481 486.895 59.267C486.588 59.3087 486.313 59.3769 486.071 59.4716C485.829 59.5663 485.637 59.6989 485.497 59.8693C485.357 60.036 485.287 60.2519 485.287 60.517C485.287 60.8958 485.425 61.1818 485.702 61.375C485.978 61.5682 486.33 61.6648 486.759 61.6648ZM494.957 51.3636V63H492.901V51.3636H494.957ZM507.456 54.5625C507.403 54.0663 507.179 53.6799 506.786 53.4034C506.395 53.1269 505.888 52.9886 505.263 52.9886C504.823 52.9886 504.446 53.0549 504.132 53.1875C503.818 53.3201 503.577 53.5 503.411 53.7273C503.244 53.9545 503.159 54.214 503.155 54.5057C503.155 54.7481 503.21 54.9583 503.32 55.1364C503.433 55.3144 503.587 55.4659 503.78 55.5909C503.973 55.7121 504.187 55.8144 504.422 55.8977C504.657 55.9811 504.893 56.0511 505.132 56.108L506.223 56.3807C506.662 56.483 507.085 56.6212 507.49 56.7955C507.899 56.9697 508.265 57.1894 508.587 57.4545C508.912 57.7197 509.17 58.0398 509.359 58.4148C509.549 58.7898 509.643 59.2292 509.643 59.733C509.643 60.4148 509.469 61.0152 509.121 61.5341C508.772 62.0492 508.268 62.4527 507.609 62.7443C506.954 63.0322 506.161 63.1761 505.229 63.1761C504.323 63.1761 503.537 63.036 502.871 62.7557C502.208 62.4754 501.689 62.0663 501.314 61.5284C500.943 60.9905 500.742 60.3352 500.712 59.5625H502.786C502.816 59.9678 502.941 60.3049 503.161 60.5739C503.38 60.8428 503.666 61.0436 504.018 61.1761C504.375 61.3087 504.772 61.375 505.212 61.375C505.67 61.375 506.071 61.3068 506.416 61.1705C506.765 61.0303 507.037 60.8371 507.234 60.5909C507.431 60.3409 507.532 60.0492 507.536 59.7159C507.532 59.4129 507.443 59.1629 507.268 58.9659C507.094 58.7652 506.85 58.5985 506.536 58.4659C506.225 58.3295 505.861 58.2083 505.445 58.1023L504.121 57.7614C503.162 57.5152 502.405 57.142 501.848 56.642C501.295 56.1383 501.018 55.4697 501.018 54.6364C501.018 53.9508 501.204 53.3504 501.575 52.8352C501.95 52.3201 502.46 51.9205 503.104 51.6364C503.748 51.3485 504.477 51.2045 505.291 51.2045C506.117 51.2045 506.84 51.3485 507.462 51.6364C508.087 51.9205 508.577 52.3163 508.933 52.8239C509.289 53.3277 509.473 53.9072 509.484 54.5625H507.456ZM515.295 63.1705C514.42 63.1705 513.665 62.9886 513.028 62.625C512.396 62.2576 511.909 61.7386 511.568 61.0682C511.227 60.3939 511.057 59.6004 511.057 58.6875C511.057 57.7898 511.227 57.0019 511.568 56.3239C511.913 55.642 512.394 55.1117 513.011 54.733C513.629 54.3504 514.354 54.1591 515.188 54.1591C515.725 54.1591 516.233 54.2462 516.71 54.4205C517.191 54.5909 517.616 54.8561 517.983 55.2159C518.354 55.5758 518.646 56.0341 518.858 56.5909C519.07 57.1439 519.176 57.803 519.176 58.5682V59.1989H512.023V57.8125H517.205C517.201 57.4186 517.116 57.0682 516.949 56.7614C516.782 56.4508 516.549 56.2064 516.25 56.0284C515.955 55.8504 515.61 55.7614 515.216 55.7614C514.795 55.7614 514.426 55.8636 514.108 56.0682C513.79 56.2689 513.542 56.5341 513.364 56.8636C513.189 57.1894 513.1 57.5473 513.097 57.9375V59.1477C513.097 59.6553 513.189 60.0909 513.375 60.4545C513.561 60.8144 513.82 61.0909 514.153 61.2841C514.487 61.4735 514.877 61.5682 515.324 61.5682C515.623 61.5682 515.894 61.5265 516.136 61.4432C516.379 61.3561 516.589 61.2292 516.767 61.0625C516.945 60.8958 517.08 60.6894 517.17 60.4432L519.091 60.6591C518.97 61.1667 518.739 61.6098 518.398 61.9886C518.061 62.3636 517.629 62.6553 517.102 62.8636C516.576 63.0682 515.973 63.1705 515.295 63.1705ZM525.274 54.2727V55.8636H520.257V54.2727H525.274ZM521.496 52.1818H523.553V60.375C523.553 60.6515 523.594 60.8636 523.678 61.0114C523.765 61.1553 523.878 61.2538 524.018 61.3068C524.159 61.3598 524.314 61.3864 524.484 61.3864C524.613 61.3864 524.731 61.3769 524.837 61.358C524.946 61.339 525.03 61.322 525.087 61.3068L525.433 62.9148C525.323 62.9527 525.166 62.9943 524.962 63.0398C524.761 63.0852 524.515 63.1117 524.223 63.1193C523.708 63.1345 523.244 63.0568 522.831 62.8864C522.418 62.7121 522.09 62.4432 521.848 62.0795C521.609 61.7159 521.492 61.2614 521.496 60.7159V52.1818ZM531.352 54.2727V55.8636H526.335V54.2727H531.352ZM527.574 52.1818H529.631V60.375C529.631 60.6515 529.672 60.8636 529.756 61.0114C529.843 61.1553 529.956 61.2538 530.097 61.3068C530.237 61.3598 530.392 61.3864 530.562 61.3864C530.691 61.3864 530.809 61.3769 530.915 61.358C531.025 61.339 531.108 61.322 531.165 61.3068L531.511 62.9148C531.402 62.9527 531.244 62.9943 531.04 63.0398C530.839 63.0852 530.593 63.1117 530.301 63.1193C529.786 63.1345 529.322 63.0568 528.909 62.8864C528.496 62.7121 528.169 62.4432 527.926 62.0795C527.688 61.7159 527.57 61.2614 527.574 60.7159V52.1818ZM533.072 63V54.2727H535.129V63H533.072ZM534.107 53.0341C533.781 53.0341 533.5 52.9261 533.266 52.7102C533.031 52.4905 532.913 52.2273 532.913 51.9205C532.913 51.6098 533.031 51.3466 533.266 51.1307C533.5 50.911 533.781 50.8011 534.107 50.8011C534.436 50.8011 534.716 50.911 534.947 51.1307C535.182 51.3466 535.3 51.6098 535.3 51.9205C535.3 52.2273 535.182 52.4905 534.947 52.7102C534.716 52.9261 534.436 53.0341 534.107 53.0341ZM539.301 57.8864V63H537.244V54.2727H539.21V55.7557H539.312C539.513 55.267 539.833 54.8788 540.273 54.5909C540.716 54.303 541.263 54.1591 541.915 54.1591C542.517 54.1591 543.042 54.2879 543.489 54.5455C543.939 54.803 544.288 55.1761 544.534 55.6648C544.784 56.1534 544.907 56.7462 544.903 57.4432V63H542.847V57.7614C542.847 57.178 542.695 56.7216 542.392 56.392C542.093 56.0625 541.678 55.8977 541.148 55.8977C540.788 55.8977 540.468 55.9773 540.188 56.1364C539.911 56.2917 539.693 56.517 539.534 56.8125C539.379 57.108 539.301 57.4659 539.301 57.8864ZM550.79 66.4545C550.051 66.4545 549.417 66.3542 548.886 66.1534C548.356 65.9564 547.93 65.6913 547.608 65.358C547.286 65.0246 547.062 64.6553 546.938 64.25L548.79 63.8011C548.873 63.9716 548.994 64.1402 549.153 64.3068C549.313 64.4773 549.527 64.6174 549.795 64.7273C550.068 64.8409 550.411 64.8977 550.824 64.8977C551.407 64.8977 551.89 64.7557 552.273 64.4716C552.655 64.1913 552.847 63.7292 552.847 63.0852V61.4318H552.744C552.638 61.6439 552.483 61.8617 552.278 62.0852C552.078 62.3087 551.811 62.4962 551.477 62.6477C551.148 62.7992 550.733 62.875 550.233 62.875C549.562 62.875 548.955 62.7178 548.409 62.4034C547.867 62.0852 547.436 61.6117 547.114 60.983C546.795 60.3504 546.636 59.5587 546.636 58.608C546.636 57.6496 546.795 56.8409 547.114 56.1818C547.436 55.5189 547.869 55.017 548.415 54.6761C548.96 54.3314 549.568 54.1591 550.239 54.1591C550.75 54.1591 551.17 54.2462 551.5 54.4205C551.833 54.5909 552.098 54.7973 552.295 55.0398C552.492 55.2784 552.642 55.5038 552.744 55.7159H552.858V54.2727H554.886V63.142C554.886 63.8883 554.708 64.5057 554.352 64.9943C553.996 65.483 553.509 65.8485 552.892 66.0909C552.275 66.3333 551.574 66.4545 550.79 66.4545ZM550.807 61.2614C551.242 61.2614 551.614 61.1553 551.92 60.9432C552.227 60.7311 552.46 60.4261 552.619 60.0284C552.778 59.6307 552.858 59.1534 552.858 58.5966C552.858 58.0473 552.778 57.5663 552.619 57.1534C552.464 56.7405 552.233 56.4205 551.926 56.1932C551.623 55.9621 551.25 55.8466 550.807 55.8466C550.348 55.8466 549.966 55.9659 549.659 56.2045C549.352 56.4432 549.121 56.7708 548.966 57.1875C548.811 57.6004 548.733 58.0701 548.733 58.5966C548.733 59.1307 548.811 59.5985 548.966 60C549.125 60.3977 549.358 60.7083 549.665 60.9318C549.975 61.1515 550.356 61.2614 550.807 61.2614ZM563.892 56.5795L562.017 56.7841C561.964 56.5947 561.871 56.4167 561.739 56.25C561.61 56.0833 561.436 55.9489 561.216 55.8466C560.996 55.7443 560.727 55.6932 560.409 55.6932C559.981 55.6932 559.621 55.786 559.33 55.9716C559.042 56.1572 558.9 56.3977 558.903 56.6932C558.9 56.947 558.992 57.1534 559.182 57.3125C559.375 57.4716 559.693 57.6023 560.136 57.7045L561.625 58.0227C562.451 58.2008 563.064 58.483 563.466 58.8693C563.871 59.2557 564.076 59.7614 564.08 60.3864C564.076 60.9356 563.915 61.4205 563.597 61.8409C563.282 62.2576 562.845 62.5833 562.284 62.8182C561.723 63.053 561.08 63.1705 560.352 63.1705C559.284 63.1705 558.424 62.947 557.773 62.5C557.121 62.0492 556.733 61.4223 556.608 60.6193L558.614 60.4261C558.705 60.8201 558.898 61.1174 559.193 61.3182C559.489 61.5189 559.873 61.6193 560.347 61.6193C560.835 61.6193 561.227 61.5189 561.523 61.3182C561.822 61.1174 561.972 60.8693 561.972 60.5739C561.972 60.3239 561.875 60.1174 561.682 59.9545C561.492 59.7917 561.197 59.6667 560.795 59.5795L559.307 59.267C558.47 59.0928 557.85 58.7992 557.449 58.3864C557.047 57.9697 556.848 57.4432 556.852 56.8068C556.848 56.2689 556.994 55.803 557.29 55.4091C557.589 55.0114 558.004 54.7045 558.534 54.4886C559.068 54.2689 559.684 54.1591 560.381 54.1591C561.403 54.1591 562.208 54.3769 562.795 54.8125C563.386 55.2481 563.752 55.8371 563.892 56.5795Z" fill="#D9D9D9"/>
<circle cx="283" cy="19" r="17.5" fill="white" stroke="#0071E3" stroke-width="3"/>
<path d="M278.582 26V24.0966L283.631 19.1463C284.114 18.6586 284.517 18.2254 284.839 17.8466C285.161 17.4678 285.402 17.1009 285.563 16.7457C285.724 16.3906 285.805 16.0118 285.805 15.6094C285.805 15.1501 285.701 14.7571 285.492 14.4304C285.284 14.099 284.997 13.8433 284.633 13.6634C284.268 13.4834 283.854 13.3935 283.39 13.3935C282.912 13.3935 282.493 13.4929 282.133 13.6918C281.773 13.8859 281.494 14.1629 281.295 14.5227C281.101 14.8826 281.004 15.3111 281.004 15.8082H278.496C278.496 14.8849 278.707 14.0824 279.129 13.4006C279.55 12.7187 280.13 12.1908 280.869 11.8168C281.612 11.4427 282.464 11.2557 283.425 11.2557C284.401 11.2557 285.258 11.438 285.996 11.8026C286.735 12.1671 287.308 12.6667 287.715 13.3011C288.127 13.9356 288.333 14.66 288.333 15.4744C288.333 16.0189 288.229 16.554 288.021 17.0795C287.812 17.6051 287.445 18.1875 286.92 18.8267C286.399 19.4659 285.667 20.2401 284.725 21.1491L282.218 23.6989V23.7983H288.553V26H278.582Z" fill="#0071E3"/>
<path d="M216.785 53.1307V51.3636H226.069V53.1307H222.472V63H220.381V53.1307H216.785ZM230.366 63.1705C229.491 63.1705 228.735 62.9886 228.099 62.625C227.466 62.2576 226.979 61.7386 226.638 61.0682C226.298 60.3939 226.127 59.6004 226.127 58.6875C226.127 57.7898 226.298 57.0019 226.638 56.3239C226.983 55.642 227.464 55.1117 228.082 54.733C228.699 54.3504 229.424 54.1591 230.258 54.1591C230.796 54.1591 231.303 54.2462 231.781 54.4205C232.262 54.5909 232.686 54.8561 233.053 55.2159C233.424 55.5758 233.716 56.0341 233.928 56.5909C234.14 57.1439 234.246 57.803 234.246 58.5682V59.1989H227.093V57.8125H232.275C232.271 57.4186 232.186 57.0682 232.019 56.7614C231.853 56.4508 231.62 56.2064 231.32 56.0284C231.025 55.8504 230.68 55.7614 230.286 55.7614C229.866 55.7614 229.496 55.8636 229.178 56.0682C228.86 56.2689 228.612 56.5341 228.434 56.8636C228.26 57.1894 228.171 57.5473 228.167 57.9375V59.1477C228.167 59.6553 228.26 60.0909 228.445 60.4545C228.631 60.8144 228.89 61.0909 229.224 61.2841C229.557 61.4735 229.947 61.5682 230.394 61.5682C230.693 61.5682 230.964 61.5265 231.207 61.4432C231.449 61.3561 231.659 61.2292 231.837 61.0625C232.015 60.8958 232.15 60.6894 232.241 60.4432L234.161 60.6591C234.04 61.1667 233.809 61.6098 233.468 61.9886C233.131 62.3636 232.699 62.6553 232.173 62.8636C231.646 63.0682 231.044 63.1705 230.366 63.1705ZM242.884 56.5795L241.009 56.7841C240.956 56.5947 240.863 56.4167 240.731 56.25C240.602 56.0833 240.428 55.9489 240.208 55.8466C239.988 55.7443 239.719 55.6932 239.401 55.6932C238.973 55.6932 238.613 55.786 238.322 55.9716C238.034 56.1572 237.892 56.3977 237.896 56.6932C237.892 56.947 237.985 57.1534 238.174 57.3125C238.367 57.4716 238.685 57.6023 239.129 57.7045L240.617 58.0227C241.443 58.2008 242.057 58.483 242.458 58.8693C242.863 59.2557 243.068 59.7614 243.072 60.3864C243.068 60.9356 242.907 61.4205 242.589 61.8409C242.274 62.2576 241.837 62.5833 241.276 62.8182C240.716 63.053 240.072 63.1705 239.344 63.1705C238.276 63.1705 237.416 62.947 236.765 62.5C236.113 62.0492 235.725 61.4223 235.6 60.6193L237.606 60.4261C237.697 60.8201 237.89 61.1174 238.185 61.3182C238.481 61.5189 238.865 61.6193 239.339 61.6193C239.827 61.6193 240.219 61.5189 240.515 61.3182C240.814 61.1174 240.964 60.8693 240.964 60.5739C240.964 60.3239 240.867 60.1174 240.674 59.9545C240.485 59.7917 240.189 59.6667 239.788 59.5795L238.299 59.267C237.462 59.0928 236.843 58.7992 236.441 58.3864C236.04 57.9697 235.841 57.4432 235.844 56.8068C235.841 56.2689 235.987 55.803 236.282 55.4091C236.581 55.0114 236.996 54.7045 237.526 54.4886C238.06 54.2689 238.676 54.1591 239.373 54.1591C240.396 54.1591 241.201 54.3769 241.788 54.8125C242.379 55.2481 242.744 55.8371 242.884 56.5795ZM249.126 54.2727V55.8636H244.109V54.2727H249.126ZM245.347 52.1818H247.404V60.375C247.404 60.6515 247.446 60.8636 247.529 61.0114C247.616 61.1553 247.73 61.2538 247.87 61.3068C248.01 61.3598 248.165 61.3864 248.336 61.3864C248.465 61.3864 248.582 61.3769 248.688 61.358C248.798 61.339 248.881 61.322 248.938 61.3068L249.285 62.9148C249.175 62.9527 249.018 62.9943 248.813 63.0398C248.612 63.0852 248.366 63.1117 248.075 63.1193C247.559 63.1345 247.095 63.0568 246.683 62.8864C246.27 62.7121 245.942 62.4432 245.7 62.0795C245.461 61.7159 245.344 61.2614 245.347 60.7159V52.1818ZM264.866 55.2898H262.741C262.68 54.9413 262.568 54.6326 262.406 54.3636C262.243 54.0909 262.04 53.8598 261.798 53.6705C261.555 53.4811 261.279 53.339 260.968 53.2443C260.661 53.1458 260.33 53.0966 259.974 53.0966C259.341 53.0966 258.781 53.2557 258.292 53.5739C257.803 53.8883 257.421 54.3504 257.144 54.9602C256.868 55.5663 256.729 56.3068 256.729 57.1818C256.729 58.072 256.868 58.822 257.144 59.4318C257.424 60.0379 257.807 60.4962 258.292 60.8068C258.781 61.1136 259.339 61.267 259.968 61.267C260.317 61.267 260.642 61.2216 260.945 61.1307C261.252 61.036 261.527 60.8977 261.769 60.7159C262.015 60.5341 262.222 60.3106 262.388 60.0455C262.559 59.7803 262.676 59.4773 262.741 59.1364L264.866 59.1477C264.786 59.7008 264.614 60.2197 264.349 60.7045C264.087 61.1894 263.745 61.6174 263.32 61.9886C262.896 62.3561 262.4 62.6439 261.832 62.8523C261.263 63.0568 260.633 63.1591 259.94 63.1591C258.917 63.1591 258.004 62.9223 257.201 62.4489C256.398 61.9754 255.765 61.2917 255.303 60.3977C254.841 59.5038 254.61 58.4318 254.61 57.1818C254.61 55.928 254.843 54.8561 255.309 53.9659C255.775 53.072 256.409 52.3883 257.212 51.9148C258.015 51.4413 258.924 51.2045 259.94 51.2045C260.587 51.2045 261.19 51.2955 261.746 51.4773C262.303 51.6591 262.799 51.9261 263.235 52.2784C263.671 52.6269 264.029 53.0549 264.309 53.5625C264.593 54.0663 264.779 54.642 264.866 55.2898ZM269.217 63.1761C268.664 63.1761 268.165 63.0777 267.722 62.8807C267.283 62.6799 266.934 62.3845 266.677 61.9943C266.423 61.6042 266.296 61.1231 266.296 60.5511C266.296 60.0587 266.387 59.6515 266.569 59.3295C266.751 59.0076 266.999 58.75 267.313 58.5568C267.628 58.3636 267.982 58.2178 268.376 58.1193C268.773 58.017 269.184 57.9432 269.609 57.8977C270.12 57.8447 270.535 57.7973 270.853 57.7557C271.171 57.7102 271.402 57.642 271.546 57.5511C271.694 57.4564 271.768 57.3106 271.768 57.1136V57.0795C271.768 56.6515 271.641 56.3201 271.387 56.0852C271.133 55.8504 270.768 55.733 270.29 55.733C269.787 55.733 269.387 55.8428 269.092 56.0625C268.8 56.2822 268.603 56.5417 268.501 56.8409L266.58 56.5682C266.732 56.0379 266.982 55.5947 267.33 55.2386C267.679 54.8788 268.105 54.6098 268.609 54.4318C269.112 54.25 269.669 54.1591 270.279 54.1591C270.7 54.1591 271.118 54.2083 271.535 54.3068C271.951 54.4053 272.332 54.5682 272.677 54.7955C273.022 55.0189 273.298 55.3239 273.506 55.7102C273.719 56.0966 273.825 56.5795 273.825 57.1591V63H271.847V61.8011H271.779C271.654 62.0436 271.478 62.2708 271.251 62.483C271.027 62.6913 270.745 62.8598 270.404 62.9886C270.067 63.1136 269.671 63.1761 269.217 63.1761ZM269.751 61.6648C270.164 61.6648 270.522 61.5833 270.825 61.4205C271.128 61.2538 271.361 61.0341 271.523 60.7614C271.69 60.4886 271.773 60.1913 271.773 59.8693V58.8409C271.709 58.8939 271.599 58.9432 271.444 58.9886C271.292 59.0341 271.122 59.0739 270.933 59.108C270.743 59.142 270.556 59.1723 270.37 59.1989C270.184 59.2254 270.023 59.2481 269.887 59.267C269.58 59.3087 269.306 59.3769 269.063 59.4716C268.821 59.5663 268.629 59.6989 268.489 59.8693C268.349 60.036 268.279 60.2519 268.279 60.517C268.279 60.8958 268.417 61.1818 268.694 61.375C268.97 61.5682 269.323 61.6648 269.751 61.6648ZM282.79 56.5795L280.915 56.7841C280.862 56.5947 280.77 56.4167 280.637 56.25C280.508 56.0833 280.334 55.9489 280.114 55.8466C279.895 55.7443 279.626 55.6932 279.308 55.6932C278.879 55.6932 278.52 55.786 278.228 55.9716C277.94 56.1572 277.798 56.3977 277.802 56.6932C277.798 56.947 277.891 57.1534 278.08 57.3125C278.273 57.4716 278.592 57.6023 279.035 57.7045L280.523 58.0227C281.349 58.2008 281.963 58.483 282.364 58.8693C282.77 59.2557 282.974 59.7614 282.978 60.3864C282.974 60.9356 282.813 61.4205 282.495 61.8409C282.181 62.2576 281.743 62.5833 281.183 62.8182C280.622 63.053 279.978 63.1705 279.251 63.1705C278.183 63.1705 277.323 62.947 276.671 62.5C276.02 62.0492 275.631 61.4223 275.506 60.6193L277.512 60.4261C277.603 60.8201 277.796 61.1174 278.092 61.3182C278.387 61.5189 278.772 61.6193 279.245 61.6193C279.734 61.6193 280.126 61.5189 280.421 61.3182C280.72 61.1174 280.87 60.8693 280.87 60.5739C280.87 60.3239 280.773 60.1174 280.58 59.9545C280.391 59.7917 280.095 59.6667 279.694 59.5795L278.205 59.267C277.368 59.0928 276.749 58.7992 276.347 58.3864C275.946 57.9697 275.747 57.4432 275.751 56.8068C275.747 56.2689 275.893 55.803 276.188 55.4091C276.487 55.0114 276.902 54.7045 277.433 54.4886C277.967 54.2689 278.582 54.1591 279.279 54.1591C280.302 54.1591 281.107 54.3769 281.694 54.8125C282.285 55.2481 282.65 55.8371 282.79 56.5795ZM288.538 63.1705C287.663 63.1705 286.907 62.9886 286.271 62.625C285.638 62.2576 285.151 61.7386 284.81 61.0682C284.469 60.3939 284.299 59.6004 284.299 58.6875C284.299 57.7898 284.469 57.0019 284.81 56.3239C285.155 55.642 285.636 55.1117 286.254 54.733C286.871 54.3504 287.596 54.1591 288.43 54.1591C288.968 54.1591 289.475 54.2462 289.952 54.4205C290.433 54.5909 290.858 54.8561 291.225 55.2159C291.596 55.5758 291.888 56.0341 292.1 56.5909C292.312 57.1439 292.418 57.803 292.418 58.5682V59.1989H285.265V57.8125H290.447C290.443 57.4186 290.358 57.0682 290.191 56.7614C290.024 56.4508 289.791 56.2064 289.492 56.0284C289.197 55.8504 288.852 55.7614 288.458 55.7614C288.038 55.7614 287.668 55.8636 287.35 56.0682C287.032 56.2689 286.784 56.5341 286.606 56.8636C286.432 57.1894 286.343 57.5473 286.339 57.9375V59.1477C286.339 59.6553 286.432 60.0909 286.617 60.4545C286.803 60.8144 287.062 61.0909 287.396 61.2841C287.729 61.4735 288.119 61.5682 288.566 61.5682C288.865 61.5682 289.136 61.5265 289.379 61.4432C289.621 61.3561 289.831 61.2292 290.009 61.0625C290.187 60.8958 290.322 60.6894 290.413 60.4432L292.333 60.6591C292.212 61.1667 291.981 61.6098 291.64 61.9886C291.303 62.3636 290.871 62.6553 290.344 62.8636C289.818 63.0682 289.216 63.1705 288.538 63.1705ZM302.161 63H298.218V51.3636H302.241C303.396 51.3636 304.388 51.5966 305.218 52.0625C306.051 52.5246 306.692 53.1894 307.138 54.0568C307.585 54.9242 307.809 55.9621 307.809 57.1705C307.809 58.3826 307.584 59.4242 307.133 60.2955C306.686 61.1667 306.04 61.8352 305.195 62.3011C304.354 62.767 303.343 63 302.161 63ZM300.326 61.1761H302.059C302.87 61.1761 303.546 61.0284 304.087 60.733C304.629 60.4337 305.036 59.9886 305.309 59.3977C305.582 58.803 305.718 58.0606 305.718 57.1705C305.718 56.2803 305.582 55.5417 305.309 54.9545C305.036 54.3636 304.633 53.9223 304.099 53.6307C303.568 53.3352 302.909 53.1875 302.121 53.1875H300.326V61.1761ZM313.585 63.1705C312.71 63.1705 311.954 62.9886 311.317 62.625C310.685 62.2576 310.198 61.7386 309.857 61.0682C309.516 60.3939 309.346 59.6004 309.346 58.6875C309.346 57.7898 309.516 57.0019 309.857 56.3239C310.202 55.642 310.683 55.1117 311.3 54.733C311.918 54.3504 312.643 54.1591 313.477 54.1591C314.014 54.1591 314.522 54.2462 314.999 54.4205C315.48 54.5909 315.905 54.8561 316.272 55.2159C316.643 55.5758 316.935 56.0341 317.147 56.5909C317.359 57.1439 317.465 57.803 317.465 58.5682V59.1989H310.312V57.8125H315.494C315.49 57.4186 315.405 57.0682 315.238 56.7614C315.071 56.4508 314.838 56.2064 314.539 56.0284C314.244 55.8504 313.899 55.7614 313.505 55.7614C313.085 55.7614 312.715 55.8636 312.397 56.0682C312.079 56.2689 311.831 56.5341 311.653 56.8636C311.478 57.1894 311.389 57.5473 311.386 57.9375V59.1477C311.386 59.6553 311.478 60.0909 311.664 60.4545C311.85 60.8144 312.109 61.0909 312.442 61.2841C312.776 61.4735 313.166 61.5682 313.613 61.5682C313.912 61.5682 314.183 61.5265 314.425 61.4432C314.668 61.3561 314.878 61.2292 315.056 61.0625C315.234 60.8958 315.369 60.6894 315.46 60.4432L317.38 60.6591C317.259 61.1667 317.028 61.6098 316.687 61.9886C316.35 62.3636 315.918 62.6553 315.391 62.8636C314.865 63.0682 314.263 63.1705 313.585 63.1705ZM326.103 56.5795L324.228 56.7841C324.175 56.5947 324.082 56.4167 323.95 56.25C323.821 56.0833 323.647 55.9489 323.427 55.8466C323.207 55.7443 322.938 55.6932 322.62 55.6932C322.192 55.6932 321.832 55.786 321.54 55.9716C321.253 56.1572 321.111 56.3977 321.114 56.6932C321.111 56.947 321.203 57.1534 321.393 57.3125C321.586 57.4716 321.904 57.6023 322.347 57.7045L323.836 58.0227C324.662 58.2008 325.275 58.483 325.677 58.8693C326.082 59.2557 326.287 59.7614 326.29 60.3864C326.287 60.9356 326.126 61.4205 325.808 61.8409C325.493 62.2576 325.056 62.5833 324.495 62.8182C323.934 63.053 323.29 63.1705 322.563 63.1705C321.495 63.1705 320.635 62.947 319.984 62.5C319.332 62.0492 318.944 61.4223 318.819 60.6193L320.825 60.4261C320.915 60.8201 321.109 61.1174 321.404 61.3182C321.7 61.5189 322.084 61.6193 322.558 61.6193C323.046 61.6193 323.438 61.5189 323.734 61.3182C324.033 61.1174 324.183 60.8693 324.183 60.5739C324.183 60.3239 324.086 60.1174 323.893 59.9545C323.703 59.7917 323.408 59.6667 323.006 59.5795L321.518 59.267C320.681 59.0928 320.061 58.7992 319.66 58.3864C319.258 57.9697 319.059 57.4432 319.063 56.8068C319.059 56.2689 319.205 55.803 319.501 55.4091C319.8 55.0114 320.215 54.7045 320.745 54.4886C321.279 54.2689 321.895 54.1591 322.592 54.1591C323.614 54.1591 324.419 54.3769 325.006 54.8125C325.597 55.2481 325.963 55.8371 326.103 56.5795ZM327.987 63V54.2727H330.043V63H327.987ZM329.021 53.0341C328.695 53.0341 328.415 52.9261 328.18 52.7102C327.945 52.4905 327.827 52.2273 327.827 51.9205C327.827 51.6098 327.945 51.3466 328.18 51.1307C328.415 50.911 328.695 50.8011 329.021 50.8011C329.35 50.8011 329.63 50.911 329.862 51.1307C330.096 51.3466 330.214 51.6098 330.214 51.9205C330.214 52.2273 330.096 52.4905 329.862 52.7102C329.63 52.9261 329.35 53.0341 329.021 53.0341ZM335.954 66.4545C335.215 66.4545 334.581 66.3542 334.05 66.1534C333.52 65.9564 333.094 65.6913 332.772 65.358C332.45 65.0246 332.227 64.6553 332.102 64.25L333.954 63.8011C334.037 63.9716 334.158 64.1402 334.317 64.3068C334.477 64.4773 334.691 64.6174 334.96 64.7273C335.232 64.8409 335.575 64.8977 335.988 64.8977C336.571 64.8977 337.054 64.7557 337.437 64.4716C337.819 64.1913 338.011 63.7292 338.011 63.0852V61.4318H337.908C337.802 61.6439 337.647 61.8617 337.442 62.0852C337.242 62.3087 336.975 62.4962 336.641 62.6477C336.312 62.7992 335.897 62.875 335.397 62.875C334.727 62.875 334.119 62.7178 333.573 62.4034C333.031 62.0852 332.6 61.6117 332.278 60.983C331.96 60.3504 331.8 59.5587 331.8 58.608C331.8 57.6496 331.96 56.8409 332.278 56.1818C332.6 55.5189 333.033 55.017 333.579 54.6761C334.124 54.3314 334.732 54.1591 335.403 54.1591C335.914 54.1591 336.335 54.2462 336.664 54.4205C336.997 54.5909 337.263 54.7973 337.46 55.0398C337.656 55.2784 337.806 55.5038 337.908 55.7159H338.022V54.2727H340.05V63.142C340.05 63.8883 339.872 64.5057 339.516 64.9943C339.16 65.483 338.674 65.8485 338.056 66.0909C337.439 66.3333 336.738 66.4545 335.954 66.4545ZM335.971 61.2614C336.406 61.2614 336.778 61.1553 337.085 60.9432C337.391 60.7311 337.624 60.4261 337.783 60.0284C337.942 59.6307 338.022 59.1534 338.022 58.5966C338.022 58.0473 337.942 57.5663 337.783 57.1534C337.628 56.7405 337.397 56.4205 337.09 56.1932C336.787 55.9621 336.414 55.8466 335.971 55.8466C335.513 55.8466 335.13 55.9659 334.823 56.2045C334.516 56.4432 334.285 56.7708 334.13 57.1875C333.975 57.6004 333.897 58.0701 333.897 58.5966C333.897 59.1307 333.975 59.5985 334.13 60C334.289 60.3977 334.522 60.7083 334.829 60.9318C335.139 61.1515 335.52 61.2614 335.971 61.2614ZM344.215 57.8864V63H342.158V54.2727H344.124V55.7557H344.227C344.427 55.267 344.747 54.8788 345.187 54.5909C345.63 54.303 346.177 54.1591 346.829 54.1591C347.431 54.1591 347.956 54.2879 348.403 54.5455C348.853 54.803 349.202 55.1761 349.448 55.6648C349.698 56.1534 349.821 56.7462 349.817 57.4432V63H347.761V57.7614C347.761 57.178 347.609 56.7216 347.306 56.392C347.007 56.0625 346.592 55.8977 346.062 55.8977C345.702 55.8977 345.382 55.9773 345.102 56.1364C344.825 56.2917 344.607 56.517 344.448 56.8125C344.293 57.108 344.215 57.4659 344.215 57.8864Z" fill="#D9D9D9"/>
<circle cx="74" cy="19" r="19" fill="#0071E3"/>
<path d="M76.4041 11.4545V26H73.7692V14.0185H73.6839L70.282 16.1918V13.777L73.897 11.4545H76.4041Z" fill="white"/>
<path d="M1.87021 50.4545H5.09464L9.41282 60.9943H9.58327L13.9015 50.4545H17.1259V65H14.5975V55.0071H14.4625L10.4426 64.9574H8.55344L4.53356 54.9858H4.39862V65H1.87021V50.4545ZM23.0208 65.2202C22.3295 65.2202 21.7069 65.0971 21.1529 64.8509C20.6036 64.5999 20.168 64.2306 19.8461 63.7429C19.5288 63.2552 19.3702 62.6539 19.3702 61.9389C19.3702 61.3234 19.4838 60.8144 19.7111 60.4119C19.9384 60.0095 20.2485 59.6875 20.6415 59.446C21.0345 59.2045 21.4772 59.0223 21.9696 58.8991C22.4668 58.7713 22.9805 58.679 23.5108 58.6222C24.15 58.5559 24.6685 58.4967 25.0662 58.4446C25.464 58.3878 25.7528 58.3026 25.9327 58.1889C26.1174 58.0705 26.2097 57.8883 26.2097 57.642V57.5994C26.2097 57.0644 26.0511 56.6501 25.7338 56.3565C25.4166 56.063 24.9597 55.9162 24.3631 55.9162C23.7334 55.9162 23.2338 56.0535 22.8645 56.3281C22.4999 56.6027 22.2537 56.9271 22.1259 57.3011L19.7253 56.9602C19.9147 56.2973 20.2272 55.7434 20.6628 55.2983C21.0984 54.8485 21.6311 54.5123 22.2608 54.2898C22.8906 54.0625 23.5866 53.9489 24.3489 53.9489C24.8745 53.9489 25.3977 54.0104 25.9185 54.1335C26.4393 54.2566 26.9152 54.4602 27.3461 54.7443C27.7769 55.0237 28.1226 55.4048 28.383 55.8878C28.6481 56.3707 28.7807 56.9744 28.7807 57.6989V65H26.3091V63.5014H26.2239C26.0676 63.8045 25.8475 64.0885 25.5634 64.3537C25.284 64.6141 24.9313 64.8248 24.5051 64.9858C24.0837 65.142 23.589 65.2202 23.0208 65.2202ZM23.6884 63.331C24.2045 63.331 24.6519 63.2292 25.0307 63.0256C25.4095 62.8172 25.7007 62.5426 25.9043 62.2017C26.1126 61.8608 26.2168 61.4891 26.2168 61.0866V59.8011C26.1363 59.8674 25.999 59.929 25.8049 59.9858C25.6155 60.0426 25.4024 60.0923 25.1657 60.1349C24.9289 60.1776 24.6945 60.2154 24.4625 60.2486C24.2305 60.2817 24.0293 60.3101 23.8588 60.3338C23.4753 60.3859 23.132 60.4711 22.829 60.5895C22.526 60.7079 22.2869 60.8736 22.1117 61.0866C21.9365 61.295 21.8489 61.5649 21.8489 61.8963C21.8489 62.3698 22.0217 62.7273 22.3674 62.9688C22.713 63.2102 23.1534 63.331 23.6884 63.331ZM31.3659 65V54.0909H33.8588V55.9091H33.9725C34.1713 55.2794 34.5123 54.794 34.9952 54.4531C35.4829 54.1075 36.0392 53.9347 36.6642 53.9347C36.8063 53.9347 36.9649 53.9418 37.1401 53.956C37.32 53.9654 37.4692 53.982 37.5875 54.0057V56.3707C37.4786 56.3329 37.3058 56.2997 37.0691 56.2713C36.8371 56.2382 36.6122 56.2216 36.3944 56.2216C35.9256 56.2216 35.5042 56.3234 35.1301 56.527C34.7608 56.7259 34.4696 57.0028 34.2566 57.358C34.0435 57.7131 33.937 58.1226 33.937 58.5866V65H31.3659ZM41.6394 61.5767L41.6323 58.473H42.0442L45.9647 54.0909H48.9689L44.1465 59.4602H43.6138L41.6394 61.5767ZM39.2956 65V50.4545H41.8667V65H39.2956ZM46.1422 65L42.5911 60.0355L44.324 58.2244L49.2175 65H46.1422ZM50.6824 65V54.0909H53.2534V65H50.6824ZM51.975 52.5426C51.5678 52.5426 51.2174 52.4077 50.9238 52.1378C50.6303 51.8632 50.4835 51.5341 50.4835 51.1506C50.4835 50.7623 50.6303 50.4332 50.9238 50.1634C51.2174 49.8887 51.5678 49.7514 51.975 49.7514C52.3869 49.7514 52.7373 49.8887 53.0261 50.1634C53.3197 50.4332 53.4664 50.7623 53.4664 51.1506C53.4664 51.5341 53.3197 51.8632 53.0261 52.1378C52.7373 52.4077 52.3869 52.5426 51.975 52.5426ZM58.4682 58.608V65H55.8972V54.0909H58.3546V55.9446H58.4824C58.7334 55.3338 59.1335 54.8485 59.6827 54.4886C60.2367 54.1288 60.9209 53.9489 61.7353 53.9489C62.4881 53.9489 63.1439 54.1098 63.7026 54.4318C64.266 54.7538 64.7016 55.2202 65.0094 55.831C65.3219 56.4418 65.4758 57.1828 65.4711 58.054V65H62.9V58.4517C62.9 57.7225 62.7106 57.152 62.3319 56.7401C61.9578 56.3281 61.4393 56.1222 60.7765 56.1222C60.3266 56.1222 59.9266 56.2216 59.5762 56.4205C59.2305 56.6146 58.9583 56.8963 58.7594 57.2656C58.5653 57.6349 58.4682 58.0824 58.4682 58.608ZM72.829 69.3182C71.9057 69.3182 71.1126 69.1927 70.4498 68.9418C69.7869 68.6955 69.2542 68.3641 68.8517 67.9474C68.4493 67.5308 68.1699 67.0691 68.0137 66.5625L70.329 66.0014C70.4332 66.2145 70.5847 66.4252 70.7836 66.6335C70.9824 66.8466 71.2499 67.0218 71.5861 67.1591C71.927 67.3011 72.3555 67.3722 72.8716 67.3722C73.6008 67.3722 74.2045 67.1946 74.6827 66.8395C75.1609 66.4891 75.4 65.9115 75.4 65.1065V63.0398H75.2722C75.1396 63.3049 74.9455 63.5772 74.6898 63.8565C74.4389 64.1359 74.1051 64.3703 73.6884 64.5597C73.2765 64.7491 72.758 64.8438 72.133 64.8438C71.2949 64.8438 70.535 64.6473 69.8532 64.2543C69.1761 63.8565 68.6363 63.2647 68.2338 62.4787C67.8361 61.688 67.6373 60.6984 67.6373 59.5099C67.6373 58.312 67.8361 57.3011 68.2338 56.4773C68.6363 55.6487 69.1784 55.0213 69.8603 54.5952C70.5421 54.1643 71.302 53.9489 72.1401 53.9489C72.7793 53.9489 73.3049 54.0578 73.7168 54.2756C74.1335 54.4886 74.4649 54.7467 74.7111 55.0497C74.9573 55.348 75.1444 55.6297 75.2722 55.8949H75.4142V54.0909H77.9498V65.1776C77.9498 66.1103 77.7272 66.8821 77.2821 67.4929C76.8371 68.1037 76.2286 68.5606 75.4569 68.8636C74.6851 69.1667 73.8091 69.3182 72.829 69.3182ZM72.8503 62.8267C73.3948 62.8267 73.8588 62.6941 74.2424 62.429C74.6259 62.1638 74.9171 61.7827 75.1159 61.2855C75.3148 60.7884 75.4142 60.1918 75.4142 59.4957C75.4142 58.8092 75.3148 58.2079 75.1159 57.6918C74.9218 57.1757 74.633 56.7756 74.2495 56.4915C73.8707 56.2027 73.4043 56.0582 72.8503 56.0582C72.2774 56.0582 71.7992 56.2074 71.4157 56.5057C71.0321 56.804 70.7433 57.2135 70.5492 57.7344C70.3551 58.2505 70.258 58.8376 70.258 59.4957C70.258 60.1634 70.3551 60.7481 70.5492 61.25C70.748 61.7472 71.0392 62.1354 71.4228 62.4148C71.811 62.6894 72.2869 62.8267 72.8503 62.8267ZM85.6593 65V50.4545H91.2275C92.2786 50.4545 93.1522 50.6203 93.8482 50.9517C94.5489 51.2784 95.0721 51.7259 95.4178 52.294C95.7682 52.8622 95.9434 53.5062 95.9434 54.2259C95.9434 54.8177 95.8297 55.3243 95.6025 55.7457C95.3752 56.1624 95.0698 56.5009 94.6863 56.7614C94.3027 57.0218 93.8742 57.2088 93.4007 57.3224V57.4645C93.9168 57.4929 94.4116 57.6515 94.8851 57.9403C95.3633 58.2244 95.754 58.6269 96.057 59.1477C96.36 59.6686 96.5115 60.2983 96.5115 61.0369C96.5115 61.7898 96.3293 62.4669 95.9647 63.0682C95.6001 63.6648 95.0508 64.1359 94.3169 64.4815C93.583 64.8272 92.6597 65 91.5471 65H85.6593ZM88.2942 62.7983H91.128C92.0845 62.7983 92.7734 62.616 93.1948 62.2514C93.6209 61.8821 93.834 61.4086 93.834 60.831C93.834 60.4001 93.7275 60.0118 93.5144 59.6662C93.3013 59.3158 92.9983 59.0412 92.6053 58.8423C92.2123 58.6387 91.7435 58.5369 91.199 58.5369H88.2942V62.7983ZM88.2942 56.6406H90.9007C91.3553 56.6406 91.7649 56.5578 92.1294 56.392C92.494 56.2216 92.7805 55.9825 92.9888 55.6747C93.2019 55.3622 93.3084 54.9929 93.3084 54.5668C93.3084 54.0033 93.1096 53.5393 92.7118 53.1747C92.3188 52.8101 91.7341 52.6278 90.9576 52.6278H88.2942V56.6406ZM101.829 65.2202C101.138 65.2202 100.515 65.0971 99.9615 64.8509C99.4122 64.5999 98.9766 64.2306 98.6547 63.7429C98.3374 63.2552 98.1788 62.6539 98.1788 61.9389C98.1788 61.3234 98.2924 60.8144 98.5197 60.4119C98.747 60.0095 99.0571 59.6875 99.4501 59.446C99.8431 59.2045 100.286 59.0223 100.778 58.8991C101.275 58.7713 101.789 58.679 102.319 58.6222C102.959 58.5559 103.477 58.4967 103.875 58.4446C104.273 58.3878 104.561 58.3026 104.741 58.1889C104.926 58.0705 105.018 57.8883 105.018 57.642V57.5994C105.018 57.0644 104.86 56.6501 104.542 56.3565C104.225 56.063 103.768 55.9162 103.172 55.9162C102.542 55.9162 102.042 56.0535 101.673 56.3281C101.309 56.6027 101.062 56.9271 100.934 57.3011L98.5339 56.9602C98.7233 56.2973 99.0358 55.7434 99.4714 55.2983C99.907 54.8485 100.44 54.5123 101.069 54.2898C101.699 54.0625 102.395 53.9489 103.157 53.9489C103.683 53.9489 104.206 54.0104 104.727 54.1335C105.248 54.2566 105.724 54.4602 106.155 54.7443C106.586 55.0237 106.931 55.4048 107.192 55.8878C107.457 56.3707 107.589 56.9744 107.589 57.6989V65H105.118V63.5014H105.032C104.876 63.8045 104.656 64.0885 104.372 64.3537C104.093 64.6141 103.74 64.8248 103.314 64.9858C102.892 65.142 102.398 65.2202 101.829 65.2202ZM102.497 63.331C103.013 63.331 103.461 63.2292 103.839 63.0256C104.218 62.8172 104.509 62.5426 104.713 62.2017C104.921 61.8608 105.025 61.4891 105.025 61.0866V59.8011C104.945 59.8674 104.808 59.929 104.613 59.9858C104.424 60.0426 104.211 60.0923 103.974 60.1349C103.738 60.1776 103.503 60.2154 103.271 60.2486C103.039 60.2817 102.838 60.3101 102.667 60.3338C102.284 60.3859 101.941 60.4711 101.638 60.5895C101.335 60.7079 101.095 60.8736 100.92 61.0866C100.745 61.295 100.657 61.5649 100.657 61.8963C100.657 62.3698 100.83 62.7273 101.176 62.9688C101.522 63.2102 101.962 63.331 102.497 63.331ZM118.797 56.9744L116.453 57.2301C116.387 56.9934 116.271 56.7708 116.105 56.5625C115.944 56.3542 115.726 56.1861 115.452 56.0582C115.177 55.9304 114.841 55.8665 114.443 55.8665C113.908 55.8665 113.458 55.9825 113.094 56.2145C112.734 56.4465 112.556 56.7472 112.561 57.1165C112.556 57.4337 112.672 57.6918 112.909 57.8906C113.15 58.0895 113.548 58.2528 114.102 58.3807L115.963 58.7784C116.995 59.0009 117.762 59.3537 118.264 59.8366C118.771 60.3196 119.026 60.9517 119.031 61.733C119.026 62.4195 118.825 63.0256 118.427 63.5511C118.034 64.072 117.488 64.4792 116.787 64.7727C116.086 65.0663 115.281 65.2131 114.372 65.2131C113.037 65.2131 111.962 64.9337 111.148 64.375C110.333 63.8116 109.848 63.0279 109.692 62.0241L112.199 61.7827C112.312 62.2751 112.554 62.6468 112.923 62.8977C113.292 63.1487 113.773 63.2741 114.365 63.2741C114.976 63.2741 115.466 63.1487 115.835 62.8977C116.209 62.6468 116.396 62.3366 116.396 61.9673C116.396 61.6548 116.275 61.3968 116.034 61.1932C115.797 60.9896 115.428 60.8333 114.926 60.7244L113.065 60.3338C112.019 60.116 111.245 59.7491 110.743 59.233C110.241 58.7121 109.992 58.054 109.997 57.2585C109.992 56.5862 110.175 56.0038 110.544 55.5114C110.918 55.0142 111.436 54.6307 112.099 54.3608C112.767 54.0862 113.536 53.9489 114.407 53.9489C115.686 53.9489 116.692 54.2211 117.426 54.7656C118.165 55.3101 118.622 56.0464 118.797 56.9744ZM121.151 65V54.0909H123.722V65H121.151ZM122.444 52.5426C122.037 52.5426 121.686 52.4077 121.393 52.1378C121.099 51.8632 120.952 51.5341 120.952 51.1506C120.952 50.7623 121.099 50.4332 121.393 50.1634C121.686 49.8887 122.037 49.7514 122.444 49.7514C122.856 49.7514 123.206 49.8887 123.495 50.1634C123.788 50.4332 123.935 50.7623 123.935 51.1506C123.935 51.5341 123.788 51.8632 123.495 52.1378C123.206 52.4077 122.856 52.5426 122.444 52.5426ZM131.124 65.2131C130.035 65.2131 129.1 64.974 128.319 64.4957C127.543 64.0175 126.944 63.357 126.522 62.5142C126.106 61.6667 125.897 60.6913 125.897 59.5881C125.897 58.4801 126.11 57.5024 126.536 56.6548C126.963 55.8026 127.564 55.1397 128.34 54.6662C129.122 54.188 130.045 53.9489 131.11 53.9489C131.996 53.9489 132.779 54.1122 133.461 54.4389C134.148 54.7609 134.695 55.2178 135.102 55.8097C135.509 56.3968 135.741 57.0833 135.798 57.8693H133.34C133.241 57.3437 133.004 56.9058 132.63 56.5554C132.261 56.2003 131.766 56.0227 131.146 56.0227C130.62 56.0227 130.159 56.1648 129.761 56.4489C129.363 56.7282 129.053 57.1307 128.83 57.6562C128.613 58.1818 128.504 58.8116 128.504 59.5455C128.504 60.2888 128.613 60.928 128.83 61.4631C129.048 61.9934 129.354 62.4029 129.747 62.6918C130.144 62.9759 130.611 63.1179 131.146 63.1179C131.525 63.1179 131.863 63.0469 132.161 62.9048C132.464 62.758 132.718 62.5473 132.921 62.2727C133.125 61.9981 133.265 61.6643 133.34 61.2713H135.798C135.736 62.0431 135.509 62.7273 135.116 63.3239C134.723 63.9157 134.188 64.3797 133.511 64.7159C132.834 65.0473 132.038 65.2131 131.124 65.2131ZM146.531 56.9744L144.187 57.2301C144.121 56.9934 144.005 56.7708 143.839 56.5625C143.678 56.3542 143.461 56.1861 143.186 56.0582C142.911 55.9304 142.575 55.8665 142.177 55.8665C141.642 55.8665 141.193 55.9825 140.828 56.2145C140.468 56.4465 140.291 56.7472 140.295 57.1165C140.291 57.4337 140.407 57.6918 140.643 57.8906C140.885 58.0895 141.282 58.2528 141.836 58.3807L143.697 58.7784C144.729 59.0009 145.497 59.3537 145.998 59.8366C146.505 60.3196 146.761 60.9517 146.765 61.733C146.761 62.4195 146.559 63.0256 146.162 63.5511C145.769 64.072 145.222 64.4792 144.521 64.7727C143.82 65.0663 143.015 65.2131 142.106 65.2131C140.771 65.2131 139.696 64.9337 138.882 64.375C138.068 63.8116 137.582 63.0279 137.426 62.0241L139.933 61.7827C140.047 62.2751 140.288 62.6468 140.657 62.8977C141.027 63.1487 141.507 63.2741 142.099 63.2741C142.71 63.2741 143.2 63.1487 143.569 62.8977C143.943 62.6468 144.131 62.3366 144.131 61.9673C144.131 61.6548 144.01 61.3968 143.768 61.1932C143.532 60.9896 143.162 60.8333 142.66 60.7244L140.8 60.3338C139.753 60.116 138.979 59.7491 138.477 59.233C137.975 58.7121 137.727 58.054 137.731 57.2585C137.727 56.5862 137.909 56.0038 138.278 55.5114C138.652 55.0142 139.171 54.6307 139.834 54.3608C140.501 54.0862 141.271 53.9489 142.142 53.9489C143.42 53.9489 144.426 54.2211 145.16 54.7656C145.899 55.3101 146.356 56.0464 146.531 56.9744Z" fill="black"/>
</svg>
