<svg width="734" height="69" viewBox="0 0 734 69" fill="none" xmlns="http://www.w3.org/2000/svg">
<mask id="path-1-inside-1_21_230" fill="white">
<path d="M493 15H670V22H493V15Z"/>
</mask>
<path d="M493 15H670V22H493V15Z" fill="white"/>
<path d="M493 16H670V14H493V16ZM670 21H493V23H670V21Z" fill="#0071E3" mask="url(#path-1-inside-1_21_230)"/>
<mask id="path-3-inside-2_21_230" fill="white">
<path d="M284 15H461V22H284V15Z"/>
</mask>
<path d="M284 15H461V22H284V15Z" fill="white"/>
<path d="M284 16H461V14H284V16ZM461 21H284V23H461V21Z" fill="#0071E3" mask="url(#path-3-inside-2_21_230)"/>
<path d="M75 15H252V22H75V15Z" fill="#0071E3"/>
<circle cx="686" cy="19" r="17.5" fill="white" stroke="#0071E3" stroke-width="3"/>
<path d="M680.37 23.3011V21.206L686.542 11.4545H688.289V14.4375H687.223L683.069 21.0213V21.1349H691.684V23.3011H680.37ZM687.309 26V22.6619L687.337 21.7244V11.4545H689.823V26H687.309Z" fill="#0071E3"/>
<path d="M647.553 51.3636H649.661V58.9659C649.661 59.7992 649.464 60.5322 649.07 61.1648C648.68 61.7973 648.131 62.2917 647.423 62.6477C646.714 63 645.887 63.1761 644.94 63.1761C643.989 63.1761 643.159 63 642.451 62.6477C641.743 62.2917 641.193 61.7973 640.803 61.1648C640.413 60.5322 640.218 59.7992 640.218 58.9659V51.3636H642.326V58.7898C642.326 59.2746 642.432 59.7064 642.644 60.0852C642.86 60.464 643.163 60.7614 643.553 60.9773C643.943 61.1894 644.406 61.2955 644.94 61.2955C645.474 61.2955 645.936 61.1894 646.326 60.9773C646.72 60.7614 647.023 60.464 647.235 60.0852C647.447 59.7064 647.553 59.2746 647.553 58.7898V51.3636ZM651.862 66.2727V54.2727H653.884V55.7159H654.004C654.11 55.5038 654.259 55.2784 654.452 55.0398C654.646 54.7973 654.907 54.5909 655.237 54.4205C655.566 54.2462 655.987 54.1591 656.498 54.1591C657.172 54.1591 657.78 54.3314 658.322 54.6761C658.867 55.017 659.299 55.5227 659.617 56.1932C659.939 56.8598 660.1 57.678 660.1 58.6477C660.1 59.6061 659.943 60.4205 659.629 61.0909C659.314 61.7614 658.886 62.2727 658.344 62.625C657.803 62.9773 657.189 63.1534 656.504 63.1534C656.004 63.1534 655.589 63.0701 655.259 62.9034C654.93 62.7367 654.665 62.536 654.464 62.3011C654.267 62.0625 654.113 61.8371 654.004 61.625H653.918V66.2727H651.862ZM653.879 58.6364C653.879 59.2008 653.958 59.6951 654.117 60.1193C654.28 60.5436 654.513 60.875 654.816 61.1136C655.123 61.3485 655.494 61.4659 655.93 61.4659C656.384 61.4659 656.765 61.3447 657.072 61.1023C657.379 60.8561 657.61 60.5208 657.765 60.0966C657.924 59.6686 658.004 59.1818 658.004 58.6364C658.004 58.0947 657.926 57.6136 657.771 57.1932C657.615 56.7727 657.384 56.4432 657.077 56.2045C656.771 55.9659 656.388 55.8466 655.93 55.8466C655.49 55.8466 655.117 55.9621 654.81 56.1932C654.504 56.4242 654.271 56.7481 654.112 57.1648C653.956 57.5814 653.879 58.072 653.879 58.6364ZM663.918 51.3636V63H661.862V51.3636H663.918ZM669.84 63.1705C668.988 63.1705 668.249 62.983 667.624 62.608C666.999 62.233 666.514 61.7083 666.17 61.0341C665.829 60.3598 665.658 59.572 665.658 58.6705C665.658 57.7689 665.829 56.9792 666.17 56.3011C666.514 55.6231 666.999 55.0966 667.624 54.7216C668.249 54.3466 668.988 54.1591 669.84 54.1591C670.692 54.1591 671.431 54.3466 672.056 54.7216C672.681 55.0966 673.164 55.6231 673.505 56.3011C673.85 56.9792 674.022 57.7689 674.022 58.6705C674.022 59.572 673.85 60.3598 673.505 61.0341C673.164 61.7083 672.681 62.233 672.056 62.608C671.431 62.983 670.692 63.1705 669.84 63.1705ZM669.852 61.5227C670.314 61.5227 670.7 61.3958 671.011 61.142C671.321 60.8845 671.552 60.5398 671.704 60.108C671.859 59.6761 671.937 59.1951 671.937 58.6648C671.937 58.1307 671.859 57.6477 671.704 57.2159C671.552 56.7803 671.321 56.4337 671.011 56.1761C670.7 55.9186 670.314 55.7898 669.852 55.7898C669.378 55.7898 668.984 55.9186 668.67 56.1761C668.359 56.4337 668.126 56.7803 667.971 57.2159C667.819 57.6477 667.744 58.1307 667.744 58.6648C667.744 59.1951 667.819 59.6761 667.971 60.108C668.126 60.5398 668.359 60.8845 668.67 61.142C668.984 61.3958 669.378 61.5227 669.852 61.5227ZM678.279 63.1761C677.726 63.1761 677.228 63.0777 676.785 62.8807C676.345 62.6799 675.997 62.3845 675.739 61.9943C675.486 61.6042 675.359 61.1231 675.359 60.5511C675.359 60.0587 675.45 59.6515 675.631 59.3295C675.813 59.0076 676.061 58.75 676.376 58.5568C676.69 58.3636 677.044 58.2178 677.438 58.1193C677.836 58.017 678.247 57.9432 678.671 57.8977C679.183 57.8447 679.597 57.7973 679.915 57.7557C680.234 57.7102 680.465 57.642 680.609 57.5511C680.756 57.4564 680.83 57.3106 680.83 57.1136V57.0795C680.83 56.6515 680.703 56.3201 680.45 56.0852C680.196 55.8504 679.83 55.733 679.353 55.733C678.849 55.733 678.45 55.8428 678.154 56.0625C677.862 56.2822 677.665 56.5417 677.563 56.8409L675.643 56.5682C675.794 56.0379 676.044 55.5947 676.393 55.2386C676.741 54.8788 677.167 54.6098 677.671 54.4318C678.175 54.25 678.732 54.1591 679.342 54.1591C679.762 54.1591 680.181 54.2083 680.597 54.3068C681.014 54.4053 681.395 54.5682 681.739 54.7955C682.084 55.0189 682.361 55.3239 682.569 55.7102C682.781 56.0966 682.887 56.5795 682.887 57.1591V63H680.91V61.8011H680.842C680.717 62.0436 680.54 62.2708 680.313 62.483C680.09 62.6913 679.808 62.8598 679.467 62.9886C679.129 63.1136 678.734 63.1761 678.279 63.1761ZM678.813 61.6648C679.226 61.6648 679.584 61.5833 679.887 61.4205C680.19 61.2538 680.423 61.0341 680.586 60.7614C680.753 60.4886 680.836 60.1913 680.836 59.8693V58.8409C680.772 58.8939 680.662 58.9432 680.506 58.9886C680.355 59.0341 680.184 59.0739 679.995 59.108C679.806 59.142 679.618 59.1723 679.433 59.1989C679.247 59.2254 679.086 59.2481 678.95 59.267C678.643 59.3087 678.368 59.3769 678.126 59.4716C677.883 59.5663 677.692 59.6989 677.552 59.8693C677.412 60.036 677.342 60.2519 677.342 60.517C677.342 60.8958 677.48 61.1818 677.756 61.375C678.033 61.5682 678.385 61.6648 678.813 61.6648ZM688.194 63.1534C687.508 63.1534 686.895 62.9773 686.353 62.625C685.811 62.2727 685.383 61.7614 685.069 61.0909C684.754 60.4205 684.597 59.6061 684.597 58.6477C684.597 57.678 684.756 56.8598 685.075 56.1932C685.397 55.5227 685.83 55.017 686.376 54.6761C686.921 54.3314 687.529 54.1591 688.2 54.1591C688.711 54.1591 689.131 54.2462 689.461 54.4205C689.79 54.5909 690.052 54.7973 690.245 55.0398C690.438 55.2784 690.588 55.5038 690.694 55.7159H690.779V51.3636H692.842V63H690.819V61.625H690.694C690.588 61.8371 690.434 62.0625 690.234 62.3011C690.033 62.536 689.768 62.7367 689.438 62.9034C689.109 63.0701 688.694 63.1534 688.194 63.1534ZM688.768 61.4659C689.203 61.4659 689.575 61.3485 689.881 61.1136C690.188 60.875 690.421 60.5436 690.58 60.1193C690.739 59.6951 690.819 59.2008 690.819 58.6364C690.819 58.072 690.739 57.5814 690.58 57.1648C690.425 56.7481 690.194 56.4242 689.887 56.1932C689.584 55.9621 689.211 55.8466 688.768 55.8466C688.309 55.8466 687.927 55.9659 687.62 56.2045C687.313 56.4432 687.082 56.7727 686.927 57.1932C686.772 57.6136 686.694 58.0947 686.694 58.6364C686.694 59.1818 686.772 59.6686 686.927 60.0966C687.086 60.5208 687.319 60.8561 687.626 61.1023C687.936 61.3447 688.317 61.4659 688.768 61.4659ZM699.093 63V51.3636H706.548V53.1307H701.201V56.2898H706.036V58.0568H701.201V63H699.093ZM708.377 63V54.2727H710.434V63H708.377ZM709.411 53.0341C709.085 53.0341 708.805 52.9261 708.57 52.7102C708.335 52.4905 708.218 52.2273 708.218 51.9205C708.218 51.6098 708.335 51.3466 708.57 51.1307C708.805 50.911 709.085 50.8011 709.411 50.8011C709.741 50.8011 710.021 50.911 710.252 51.1307C710.487 51.3466 710.604 51.6098 710.604 51.9205C710.604 52.2273 710.487 52.4905 710.252 52.7102C710.021 52.9261 709.741 53.0341 709.411 53.0341ZM714.606 51.3636V63H712.549V51.3636H714.606ZM720.585 63.1705C719.71 63.1705 718.954 62.9886 718.317 62.625C717.685 62.2576 717.198 61.7386 716.857 61.0682C716.516 60.3939 716.346 59.6004 716.346 58.6875C716.346 57.7898 716.516 57.0019 716.857 56.3239C717.202 55.642 717.683 55.1117 718.3 54.733C718.918 54.3504 719.643 54.1591 720.477 54.1591C721.014 54.1591 721.522 54.2462 721.999 54.4205C722.48 54.5909 722.905 54.8561 723.272 55.2159C723.643 55.5758 723.935 56.0341 724.147 56.5909C724.359 57.1439 724.465 57.803 724.465 58.5682V59.1989H717.312V57.8125H722.494C722.49 57.4186 722.405 57.0682 722.238 56.7614C722.071 56.4508 721.838 56.2064 721.539 56.0284C721.244 55.8504 720.899 55.7614 720.505 55.7614C720.085 55.7614 719.715 55.8636 719.397 56.0682C719.079 56.2689 718.831 56.5341 718.653 56.8636C718.478 57.1894 718.389 57.5473 718.386 57.9375V59.1477C718.386 59.6553 718.478 60.0909 718.664 60.4545C718.85 60.8144 719.109 61.0909 719.442 61.2841C719.776 61.4735 720.166 61.5682 720.613 61.5682C720.912 61.5682 721.183 61.5265 721.425 61.4432C721.668 61.3561 721.878 61.2292 722.056 61.0625C722.234 60.8958 722.369 60.6894 722.46 60.4432L724.38 60.6591C724.259 61.1667 724.028 61.6098 723.687 61.9886C723.35 62.3636 722.918 62.6553 722.391 62.8636C721.865 63.0682 721.263 63.1705 720.585 63.1705ZM733.103 56.5795L731.228 56.7841C731.175 56.5947 731.082 56.4167 730.95 56.25C730.821 56.0833 730.647 55.9489 730.427 55.8466C730.207 55.7443 729.938 55.6932 729.62 55.6932C729.192 55.6932 728.832 55.786 728.54 55.9716C728.253 56.1572 728.111 56.3977 728.114 56.6932C728.111 56.947 728.203 57.1534 728.393 57.3125C728.586 57.4716 728.904 57.6023 729.347 57.7045L730.836 58.0227C731.662 58.2008 732.275 58.483 732.677 58.8693C733.082 59.2557 733.287 59.7614 733.29 60.3864C733.287 60.9356 733.126 61.4205 732.808 61.8409C732.493 62.2576 732.056 62.5833 731.495 62.8182C730.934 63.053 730.29 63.1705 729.563 63.1705C728.495 63.1705 727.635 62.947 726.984 62.5C726.332 62.0492 725.944 61.4223 725.819 60.6193L727.825 60.4261C727.915 60.8201 728.109 61.1174 728.404 61.3182C728.7 61.5189 729.084 61.6193 729.558 61.6193C730.046 61.6193 730.438 61.5189 730.734 61.3182C731.033 61.1174 731.183 60.8693 731.183 60.5739C731.183 60.3239 731.086 60.1174 730.893 59.9545C730.703 59.7917 730.408 59.6667 730.006 59.5795L728.518 59.267C727.681 59.0928 727.061 58.7992 726.66 58.3864C726.258 57.9697 726.059 57.4432 726.063 56.8068C726.059 56.2689 726.205 55.803 726.501 55.4091C726.8 55.0114 727.215 54.7045 727.745 54.4886C728.279 54.2689 728.895 54.1591 729.592 54.1591C730.614 54.1591 731.419 54.3769 732.006 54.8125C732.597 55.2481 732.963 55.8371 733.103 56.5795Z" fill="#D9D9D9"/>
<circle cx="477" cy="19" r="17.5" fill="white" stroke="#0071E3" stroke-width="3"/>
<path d="M476.999 26.1989C475.976 26.1989 475.067 26.0237 474.272 25.6733C473.481 25.3229 472.856 24.8352 472.397 24.2102C471.938 23.5852 471.694 22.8632 471.665 22.044H474.336C474.359 22.437 474.49 22.7803 474.726 23.0739C474.963 23.3627 475.278 23.5876 475.671 23.7486C476.064 23.9096 476.504 23.9901 476.992 23.9901C477.513 23.9901 477.974 23.9001 478.377 23.7202C478.779 23.5355 479.094 23.2798 479.322 22.9531C479.549 22.6264 479.66 22.25 479.655 21.8239C479.66 21.3835 479.546 20.9953 479.314 20.6591C479.082 20.3229 478.746 20.0601 478.306 19.8707C477.87 19.6813 477.345 19.5866 476.729 19.5866H475.444V17.5554H476.729C477.236 17.5554 477.679 17.4678 478.057 17.2926C478.441 17.1174 478.742 16.8712 478.959 16.554C479.177 16.232 479.284 15.8603 479.279 15.4389C479.284 15.027 479.191 14.6695 479.002 14.3665C478.817 14.0587 478.555 13.8196 478.214 13.6491C477.877 13.4787 477.482 13.3935 477.028 13.3935C476.582 13.3935 476.171 13.474 475.792 13.6349C475.413 13.7959 475.108 14.0256 474.876 14.3239C474.644 14.6174 474.52 14.9678 474.506 15.375H471.971C471.99 14.5606 472.224 13.8456 472.674 13.2301C473.128 12.6098 473.734 12.1269 474.492 11.7812C475.25 11.4309 476.099 11.2557 477.042 11.2557C478.012 11.2557 478.855 11.438 479.57 11.8026C480.29 12.1624 480.846 12.6477 481.239 13.2585C481.632 13.8693 481.829 14.544 481.829 15.2827C481.833 16.1018 481.592 16.7884 481.104 17.3423C480.621 17.8963 479.987 18.2585 479.201 18.429V18.5426C480.224 18.6847 481.007 19.0634 481.552 19.679C482.101 20.2898 482.373 21.0497 482.368 21.9588C482.368 22.7732 482.136 23.5024 481.672 24.1463C481.213 24.7855 480.579 25.2874 479.769 25.652C478.964 26.0166 478.041 26.1989 476.999 26.1989Z" fill="#0071E3"/>
<path d="M404.923 63H402.673L406.77 51.3636H409.372L413.474 63H411.224L408.116 53.75H408.026L404.923 63ZM404.997 58.4375H411.134V60.1307H404.997V58.4375ZM417.889 63.1534C417.204 63.1534 416.59 62.9773 416.048 62.625C415.507 62.2727 415.079 61.7614 414.764 61.0909C414.45 60.4205 414.293 59.6061 414.293 58.6477C414.293 57.678 414.452 56.8598 414.77 56.1932C415.092 55.5227 415.526 55.017 416.071 54.6761C416.616 54.3314 417.224 54.1591 417.895 54.1591C418.406 54.1591 418.827 54.2462 419.156 54.4205C419.486 54.5909 419.747 54.7973 419.94 55.0398C420.134 55.2784 420.283 55.5038 420.389 55.7159H420.474V51.3636H422.537V63H420.514V61.625H420.389C420.283 61.8371 420.13 62.0625 419.929 62.3011C419.728 62.536 419.463 62.7367 419.134 62.9034C418.804 63.0701 418.389 63.1534 417.889 63.1534ZM418.463 61.4659C418.899 61.4659 419.27 61.3485 419.577 61.1136C419.884 60.875 420.116 60.5436 420.276 60.1193C420.435 59.6951 420.514 59.2008 420.514 58.6364C420.514 58.072 420.435 57.5814 420.276 57.1648C420.12 56.7481 419.889 56.4242 419.582 56.1932C419.279 55.9621 418.906 55.8466 418.463 55.8466C418.005 55.8466 417.622 55.9659 417.315 56.2045C417.009 56.4432 416.777 56.7727 416.622 57.1932C416.467 57.6136 416.389 58.0947 416.389 58.6364C416.389 59.1818 416.467 59.6686 416.622 60.0966C416.781 60.5208 417.014 60.8561 417.321 61.1023C417.632 61.3447 418.012 61.4659 418.463 61.4659ZM427.967 63.1534C427.282 63.1534 426.668 62.9773 426.126 62.625C425.585 62.2727 425.157 61.7614 424.842 61.0909C424.528 60.4205 424.371 59.6061 424.371 58.6477C424.371 57.678 424.53 56.8598 424.848 56.1932C425.17 55.5227 425.604 55.017 426.149 54.6761C426.695 54.3314 427.303 54.1591 427.973 54.1591C428.484 54.1591 428.905 54.2462 429.234 54.4205C429.564 54.5909 429.825 54.7973 430.018 55.0398C430.212 55.2784 430.361 55.5038 430.467 55.7159H430.553V51.3636H432.615V63H430.592V61.625H430.467C430.361 61.8371 430.208 62.0625 430.007 62.3011C429.806 62.536 429.541 62.7367 429.212 62.9034C428.882 63.0701 428.467 63.1534 427.967 63.1534ZM428.541 61.4659C428.977 61.4659 429.348 61.3485 429.655 61.1136C429.962 60.875 430.195 60.5436 430.354 60.1193C430.513 59.6951 430.592 59.2008 430.592 58.6364C430.592 58.072 430.513 57.5814 430.354 57.1648C430.198 56.7481 429.967 56.4242 429.661 56.1932C429.357 55.9621 428.984 55.8466 428.541 55.8466C428.083 55.8466 427.7 55.9659 427.393 56.2045C427.087 56.4432 426.856 56.7727 426.7 57.1932C426.545 57.6136 426.467 58.0947 426.467 58.6364C426.467 59.1818 426.545 59.6686 426.7 60.0966C426.859 60.5208 427.092 60.8561 427.399 61.1023C427.71 61.3447 428.09 61.4659 428.541 61.4659ZM434.807 63V54.2727H436.864V63H434.807ZM435.841 53.0341C435.515 53.0341 435.235 52.9261 435 52.7102C434.765 52.4905 434.648 52.2273 434.648 51.9205C434.648 51.6098 434.765 51.3466 435 51.1307C435.235 50.911 435.515 50.8011 435.841 50.8011C436.17 50.8011 436.451 50.911 436.682 51.1307C436.917 51.3466 437.034 51.6098 437.034 51.9205C437.034 52.2273 436.917 52.4905 436.682 52.7102C436.451 52.9261 436.17 53.0341 435.841 53.0341ZM443.337 54.2727V55.8636H438.32V54.2727H443.337ZM439.558 52.1818H441.615V60.375C441.615 60.6515 441.657 60.8636 441.74 61.0114C441.827 61.1553 441.941 61.2538 442.081 61.3068C442.221 61.3598 442.376 61.3864 442.547 61.3864C442.676 61.3864 442.793 61.3769 442.899 61.358C443.009 61.339 443.092 61.322 443.149 61.3068L443.496 62.9148C443.386 62.9527 443.229 62.9943 443.024 63.0398C442.823 63.0852 442.577 63.1117 442.286 63.1193C441.77 63.1345 441.306 63.0568 440.893 62.8864C440.481 62.7121 440.153 62.4432 439.911 62.0795C439.672 61.7159 439.554 61.2614 439.558 60.7159V52.1818ZM445.057 63V54.2727H447.114V63H445.057ZM446.091 53.0341C445.765 53.0341 445.485 52.9261 445.25 52.7102C445.015 52.4905 444.898 52.2273 444.898 51.9205C444.898 51.6098 445.015 51.3466 445.25 51.1307C445.485 50.911 445.765 50.8011 446.091 50.8011C446.42 50.8011 446.701 50.911 446.932 51.1307C447.167 51.3466 447.284 51.6098 447.284 51.9205C447.284 52.2273 447.167 52.4905 446.932 52.7102C446.701 52.9261 446.42 53.0341 446.091 53.0341ZM453.036 63.1705C452.183 63.1705 451.445 62.983 450.82 62.608C450.195 62.233 449.71 61.7083 449.365 61.0341C449.024 60.3598 448.854 59.572 448.854 58.6705C448.854 57.7689 449.024 56.9792 449.365 56.3011C449.71 55.6231 450.195 55.0966 450.82 54.7216C451.445 54.3466 452.183 54.1591 453.036 54.1591C453.888 54.1591 454.626 54.3466 455.251 54.7216C455.876 55.0966 456.359 55.6231 456.7 56.3011C457.045 56.9792 457.217 57.7689 457.217 58.6705C457.217 59.572 457.045 60.3598 456.7 61.0341C456.359 61.7083 455.876 62.233 455.251 62.608C454.626 62.983 453.888 63.1705 453.036 63.1705ZM453.047 61.5227C453.509 61.5227 453.895 61.3958 454.206 61.142C454.517 60.8845 454.748 60.5398 454.899 60.108C455.054 59.6761 455.132 59.1951 455.132 58.6648C455.132 58.1307 455.054 57.6477 454.899 57.2159C454.748 56.7803 454.517 56.4337 454.206 56.1761C453.895 55.9186 453.509 55.7898 453.047 55.7898C452.573 55.7898 452.179 55.9186 451.865 56.1761C451.554 56.4337 451.321 56.7803 451.166 57.2159C451.015 57.6477 450.939 58.1307 450.939 58.6648C450.939 59.1951 451.015 59.6761 451.166 60.108C451.321 60.5398 451.554 60.8845 451.865 61.142C452.179 61.3958 452.573 61.5227 453.047 61.5227ZM461.02 57.8864V63H458.963V54.2727H460.929V55.7557H461.031C461.232 55.267 461.552 54.8788 461.991 54.5909C462.435 54.303 462.982 54.1591 463.634 54.1591C464.236 54.1591 464.76 54.2879 465.207 54.5455C465.658 54.803 466.007 55.1761 466.253 55.6648C466.503 56.1534 466.626 56.7462 466.622 57.4432V63H464.565V57.7614C464.565 57.178 464.414 56.7216 464.111 56.392C463.812 56.0625 463.397 55.8977 462.866 55.8977C462.507 55.8977 462.187 55.9773 461.906 56.1364C461.63 56.2917 461.412 56.517 461.253 56.8125C461.098 57.108 461.02 57.4659 461.02 57.8864ZM471.224 63.1761C470.671 63.1761 470.173 63.0777 469.73 62.8807C469.291 62.6799 468.942 62.3845 468.685 61.9943C468.431 61.6042 468.304 61.1231 468.304 60.5511C468.304 60.0587 468.395 59.6515 468.577 59.3295C468.759 59.0076 469.007 58.75 469.321 58.5568C469.635 58.3636 469.99 58.2178 470.384 58.1193C470.781 58.017 471.192 57.9432 471.616 57.8977C472.128 57.8447 472.543 57.7973 472.861 57.7557C473.179 57.7102 473.41 57.642 473.554 57.5511C473.702 57.4564 473.776 57.3106 473.776 57.1136V57.0795C473.776 56.6515 473.649 56.3201 473.395 56.0852C473.141 55.8504 472.776 55.733 472.298 55.733C471.795 55.733 471.395 55.8428 471.099 56.0625C470.808 56.2822 470.611 56.5417 470.509 56.8409L468.588 56.5682C468.74 56.0379 468.99 55.5947 469.338 55.2386C469.687 54.8788 470.113 54.6098 470.616 54.4318C471.12 54.25 471.677 54.1591 472.287 54.1591C472.707 54.1591 473.126 54.2083 473.543 54.3068C473.959 54.4053 474.34 54.5682 474.685 54.7955C475.029 55.0189 475.306 55.3239 475.514 55.7102C475.726 56.0966 475.832 56.5795 475.832 57.1591V63H473.855V61.8011H473.787C473.662 62.0436 473.486 62.2708 473.259 62.483C473.035 62.6913 472.753 62.8598 472.412 62.9886C472.075 63.1136 471.679 63.1761 471.224 63.1761ZM471.759 61.6648C472.171 61.6648 472.529 61.5833 472.832 61.4205C473.135 61.2538 473.368 61.0341 473.531 60.7614C473.698 60.4886 473.781 60.1913 473.781 59.8693V58.8409C473.717 58.8939 473.607 58.9432 473.452 58.9886C473.3 59.0341 473.13 59.0739 472.94 59.108C472.751 59.142 472.563 59.1723 472.378 59.1989C472.192 59.2254 472.031 59.2481 471.895 59.267C471.588 59.3087 471.313 59.3769 471.071 59.4716C470.829 59.5663 470.637 59.6989 470.497 59.8693C470.357 60.036 470.287 60.2519 470.287 60.517C470.287 60.8958 470.425 61.1818 470.702 61.375C470.978 61.5682 471.33 61.6648 471.759 61.6648ZM479.957 51.3636V63H477.901V51.3636H479.957ZM492.456 54.5625C492.403 54.0663 492.179 53.6799 491.786 53.4034C491.395 53.1269 490.888 52.9886 490.263 52.9886C489.823 52.9886 489.446 53.0549 489.132 53.1875C488.818 53.3201 488.577 53.5 488.411 53.7273C488.244 53.9545 488.159 54.214 488.155 54.5057C488.155 54.7481 488.21 54.9583 488.32 55.1364C488.433 55.3144 488.587 55.4659 488.78 55.5909C488.973 55.7121 489.187 55.8144 489.422 55.8977C489.657 55.9811 489.893 56.0511 490.132 56.108L491.223 56.3807C491.662 56.483 492.085 56.6212 492.49 56.7955C492.899 56.9697 493.265 57.1894 493.587 57.4545C493.912 57.7197 494.17 58.0398 494.359 58.4148C494.549 58.7898 494.643 59.2292 494.643 59.733C494.643 60.4148 494.469 61.0152 494.121 61.5341C493.772 62.0492 493.268 62.4527 492.609 62.7443C491.954 63.0322 491.161 63.1761 490.229 63.1761C489.323 63.1761 488.537 63.036 487.871 62.7557C487.208 62.4754 486.689 62.0663 486.314 61.5284C485.943 60.9905 485.742 60.3352 485.712 59.5625H487.786C487.816 59.9678 487.941 60.3049 488.161 60.5739C488.38 60.8428 488.666 61.0436 489.018 61.1761C489.375 61.3087 489.772 61.375 490.212 61.375C490.67 61.375 491.071 61.3068 491.416 61.1705C491.765 61.0303 492.037 60.8371 492.234 60.5909C492.431 60.3409 492.532 60.0492 492.536 59.7159C492.532 59.4129 492.443 59.1629 492.268 58.9659C492.094 58.7652 491.85 58.5985 491.536 58.4659C491.225 58.3295 490.861 58.2083 490.445 58.1023L489.121 57.7614C488.162 57.5152 487.405 57.142 486.848 56.642C486.295 56.1383 486.018 55.4697 486.018 54.6364C486.018 53.9508 486.204 53.3504 486.575 52.8352C486.95 52.3201 487.46 51.9205 488.104 51.6364C488.748 51.3485 489.477 51.2045 490.291 51.2045C491.117 51.2045 491.84 51.3485 492.462 51.6364C493.087 51.9205 493.577 52.3163 493.933 52.8239C494.289 53.3277 494.473 53.9072 494.484 54.5625H492.456ZM500.295 63.1705C499.42 63.1705 498.665 62.9886 498.028 62.625C497.396 62.2576 496.909 61.7386 496.568 61.0682C496.227 60.3939 496.057 59.6004 496.057 58.6875C496.057 57.7898 496.227 57.0019 496.568 56.3239C496.913 55.642 497.394 55.1117 498.011 54.733C498.629 54.3504 499.354 54.1591 500.188 54.1591C500.725 54.1591 501.233 54.2462 501.71 54.4205C502.191 54.5909 502.616 54.8561 502.983 55.2159C503.354 55.5758 503.646 56.0341 503.858 56.5909C504.07 57.1439 504.176 57.803 504.176 58.5682V59.1989H497.023V57.8125H502.205C502.201 57.4186 502.116 57.0682 501.949 56.7614C501.782 56.4508 501.549 56.2064 501.25 56.0284C500.955 55.8504 500.61 55.7614 500.216 55.7614C499.795 55.7614 499.426 55.8636 499.108 56.0682C498.79 56.2689 498.542 56.5341 498.364 56.8636C498.189 57.1894 498.1 57.5473 498.097 57.9375V59.1477C498.097 59.6553 498.189 60.0909 498.375 60.4545C498.561 60.8144 498.82 61.0909 499.153 61.2841C499.487 61.4735 499.877 61.5682 500.324 61.5682C500.623 61.5682 500.894 61.5265 501.136 61.4432C501.379 61.3561 501.589 61.2292 501.767 61.0625C501.945 60.8958 502.08 60.6894 502.17 60.4432L504.091 60.6591C503.97 61.1667 503.739 61.6098 503.398 61.9886C503.061 62.3636 502.629 62.6553 502.102 62.8636C501.576 63.0682 500.973 63.1705 500.295 63.1705ZM510.274 54.2727V55.8636H505.257V54.2727H510.274ZM506.496 52.1818H508.553V60.375C508.553 60.6515 508.594 60.8636 508.678 61.0114C508.765 61.1553 508.878 61.2538 509.018 61.3068C509.159 61.3598 509.314 61.3864 509.484 61.3864C509.613 61.3864 509.731 61.3769 509.837 61.358C509.946 61.339 510.03 61.322 510.087 61.3068L510.433 62.9148C510.323 62.9527 510.166 62.9943 509.962 63.0398C509.761 63.0852 509.515 63.1117 509.223 63.1193C508.708 63.1345 508.244 63.0568 507.831 62.8864C507.418 62.7121 507.09 62.4432 506.848 62.0795C506.609 61.7159 506.492 61.2614 506.496 60.7159V52.1818ZM516.352 54.2727V55.8636H511.335V54.2727H516.352ZM512.574 52.1818H514.631V60.375C514.631 60.6515 514.672 60.8636 514.756 61.0114C514.843 61.1553 514.956 61.2538 515.097 61.3068C515.237 61.3598 515.392 61.3864 515.562 61.3864C515.691 61.3864 515.809 61.3769 515.915 61.358C516.025 61.339 516.108 61.322 516.165 61.3068L516.511 62.9148C516.402 62.9527 516.244 62.9943 516.04 63.0398C515.839 63.0852 515.593 63.1117 515.301 63.1193C514.786 63.1345 514.322 63.0568 513.909 62.8864C513.496 62.7121 513.169 62.4432 512.926 62.0795C512.688 61.7159 512.57 61.2614 512.574 60.7159V52.1818ZM518.072 63V54.2727H520.129V63H518.072ZM519.107 53.0341C518.781 53.0341 518.5 52.9261 518.266 52.7102C518.031 52.4905 517.913 52.2273 517.913 51.9205C517.913 51.6098 518.031 51.3466 518.266 51.1307C518.5 50.911 518.781 50.8011 519.107 50.8011C519.436 50.8011 519.716 50.911 519.947 51.1307C520.182 51.3466 520.3 51.6098 520.3 51.9205C520.3 52.2273 520.182 52.4905 519.947 52.7102C519.716 52.9261 519.436 53.0341 519.107 53.0341ZM524.301 57.8864V63H522.244V54.2727H524.21V55.7557H524.312C524.513 55.267 524.833 54.8788 525.273 54.5909C525.716 54.303 526.263 54.1591 526.915 54.1591C527.517 54.1591 528.042 54.2879 528.489 54.5455C528.939 54.803 529.288 55.1761 529.534 55.6648C529.784 56.1534 529.907 56.7462 529.903 57.4432V63H527.847V57.7614C527.847 57.178 527.695 56.7216 527.392 56.392C527.093 56.0625 526.678 55.8977 526.148 55.8977C525.788 55.8977 525.468 55.9773 525.188 56.1364C524.911 56.2917 524.693 56.517 524.534 56.8125C524.379 57.108 524.301 57.4659 524.301 57.8864ZM535.79 66.4545C535.051 66.4545 534.417 66.3542 533.886 66.1534C533.356 65.9564 532.93 65.6913 532.608 65.358C532.286 65.0246 532.062 64.6553 531.938 64.25L533.79 63.8011C533.873 63.9716 533.994 64.1402 534.153 64.3068C534.313 64.4773 534.527 64.6174 534.795 64.7273C535.068 64.8409 535.411 64.8977 535.824 64.8977C536.407 64.8977 536.89 64.7557 537.273 64.4716C537.655 64.1913 537.847 63.7292 537.847 63.0852V61.4318H537.744C537.638 61.6439 537.483 61.8617 537.278 62.0852C537.078 62.3087 536.811 62.4962 536.477 62.6477C536.148 62.7992 535.733 62.875 535.233 62.875C534.562 62.875 533.955 62.7178 533.409 62.4034C532.867 62.0852 532.436 61.6117 532.114 60.983C531.795 60.3504 531.636 59.5587 531.636 58.608C531.636 57.6496 531.795 56.8409 532.114 56.1818C532.436 55.5189 532.869 55.017 533.415 54.6761C533.96 54.3314 534.568 54.1591 535.239 54.1591C535.75 54.1591 536.17 54.2462 536.5 54.4205C536.833 54.5909 537.098 54.7973 537.295 55.0398C537.492 55.2784 537.642 55.5038 537.744 55.7159H537.858V54.2727H539.886V63.142C539.886 63.8883 539.708 64.5057 539.352 64.9943C538.996 65.483 538.509 65.8485 537.892 66.0909C537.275 66.3333 536.574 66.4545 535.79 66.4545ZM535.807 61.2614C536.242 61.2614 536.614 61.1553 536.92 60.9432C537.227 60.7311 537.46 60.4261 537.619 60.0284C537.778 59.6307 537.858 59.1534 537.858 58.5966C537.858 58.0473 537.778 57.5663 537.619 57.1534C537.464 56.7405 537.233 56.4205 536.926 56.1932C536.623 55.9621 536.25 55.8466 535.807 55.8466C535.348 55.8466 534.966 55.9659 534.659 56.2045C534.352 56.4432 534.121 56.7708 533.966 57.1875C533.811 57.6004 533.733 58.0701 533.733 58.5966C533.733 59.1307 533.811 59.5985 533.966 60C534.125 60.3977 534.358 60.7083 534.665 60.9318C534.975 61.1515 535.356 61.2614 535.807 61.2614ZM548.892 56.5795L547.017 56.7841C546.964 56.5947 546.871 56.4167 546.739 56.25C546.61 56.0833 546.436 55.9489 546.216 55.8466C545.996 55.7443 545.727 55.6932 545.409 55.6932C544.981 55.6932 544.621 55.786 544.33 55.9716C544.042 56.1572 543.9 56.3977 543.903 56.6932C543.9 56.947 543.992 57.1534 544.182 57.3125C544.375 57.4716 544.693 57.6023 545.136 57.7045L546.625 58.0227C547.451 58.2008 548.064 58.483 548.466 58.8693C548.871 59.2557 549.076 59.7614 549.08 60.3864C549.076 60.9356 548.915 61.4205 548.597 61.8409C548.282 62.2576 547.845 62.5833 547.284 62.8182C546.723 63.053 546.08 63.1705 545.352 63.1705C544.284 63.1705 543.424 62.947 542.773 62.5C542.121 62.0492 541.733 61.4223 541.608 60.6193L543.614 60.4261C543.705 60.8201 543.898 61.1174 544.193 61.3182C544.489 61.5189 544.873 61.6193 545.347 61.6193C545.835 61.6193 546.227 61.5189 546.523 61.3182C546.822 61.1174 546.972 60.8693 546.972 60.5739C546.972 60.3239 546.875 60.1174 546.682 59.9545C546.492 59.7917 546.197 59.6667 545.795 59.5795L544.307 59.267C543.47 59.0928 542.85 58.7992 542.449 58.3864C542.047 57.9697 541.848 57.4432 541.852 56.8068C541.848 56.2689 541.994 55.803 542.29 55.4091C542.589 55.0114 543.004 54.7045 543.534 54.4886C544.068 54.2689 544.684 54.1591 545.381 54.1591C546.403 54.1591 547.208 54.3769 547.795 54.8125C548.386 55.2481 548.752 55.8371 548.892 56.5795Z" fill="#D9D9D9"/>
<circle cx="268" cy="19" r="19" fill="#0071E3"/>
<path d="M263.582 26V24.0966L268.631 19.1463C269.114 18.6586 269.517 18.2254 269.839 17.8466C270.161 17.4678 270.402 17.1009 270.563 16.7457C270.724 16.3906 270.805 16.0118 270.805 15.6094C270.805 15.1501 270.701 14.7571 270.492 14.4304C270.284 14.099 269.997 13.8433 269.633 13.6634C269.268 13.4834 268.854 13.3935 268.39 13.3935C267.912 13.3935 267.493 13.4929 267.133 13.6918C266.773 13.8859 266.494 14.1629 266.295 14.5227C266.101 14.8826 266.004 15.3111 266.004 15.8082H263.496C263.496 14.8849 263.707 14.0824 264.129 13.4006C264.55 12.7187 265.13 12.1908 265.869 11.8168C266.612 11.4427 267.464 11.2557 268.425 11.2557C269.401 11.2557 270.258 11.438 270.996 11.8026C271.735 12.1671 272.308 12.6667 272.715 13.3011C273.127 13.9356 273.333 14.66 273.333 15.4744C273.333 16.0189 273.229 16.554 273.021 17.0795C272.812 17.6051 272.445 18.1875 271.92 18.8267C271.399 19.4659 270.667 20.2401 269.725 21.1491L267.218 23.6989V23.7983H273.553V26H263.582Z" fill="white"/>
<path d="M185.106 51.6634V49.4545H196.711V51.6634H192.215V64H189.602V51.6634H185.106ZM202.082 64.2131C200.988 64.2131 200.044 63.9858 199.248 63.5312C198.458 63.072 197.849 62.4233 197.423 61.5852C196.997 60.7424 196.784 59.7505 196.784 58.6094C196.784 57.4872 196.997 56.5024 197.423 55.6548C197.854 54.8026 198.455 54.1397 199.227 53.6662C199.999 53.188 200.906 52.9489 201.947 52.9489C202.62 52.9489 203.254 53.0578 203.851 53.2756C204.452 53.4886 204.982 53.8201 205.442 54.2699C205.906 54.7197 206.27 55.2926 206.535 55.9886C206.8 56.6799 206.933 57.5038 206.933 58.4602V59.2486H197.991V57.5156H204.469C204.464 57.0232 204.357 56.5852 204.149 56.2017C203.941 55.8134 203.649 55.508 203.275 55.2855C202.906 55.063 202.475 54.9517 201.983 54.9517C201.457 54.9517 200.996 55.0795 200.598 55.3352C200.2 55.5862 199.89 55.9176 199.667 56.3295C199.45 56.7367 199.338 57.1842 199.334 57.6719V59.1847C199.334 59.8191 199.45 60.3636 199.682 60.8182C199.914 61.268 200.238 61.6136 200.655 61.8551C201.071 62.0919 201.559 62.2102 202.118 62.2102C202.492 62.2102 202.83 62.1581 203.133 62.054C203.436 61.9451 203.699 61.7865 203.922 61.5781C204.144 61.3698 204.312 61.1117 204.426 60.804L206.827 61.0739C206.675 61.7083 206.386 62.2623 205.96 62.7358C205.539 63.2045 204.999 63.5691 204.341 63.8295C203.683 64.0852 202.93 64.2131 202.082 64.2131ZM217.73 55.9744L215.387 56.2301C215.32 55.9934 215.204 55.7708 215.039 55.5625C214.878 55.3542 214.66 55.1861 214.385 55.0582C214.11 54.9304 213.774 54.8665 213.377 54.8665C212.842 54.8665 212.392 54.9825 212.027 55.2145C211.667 55.4465 211.49 55.7472 211.494 56.1165C211.49 56.4337 211.606 56.6918 211.843 56.8906C212.084 57.0895 212.482 57.2528 213.036 57.3807L214.896 57.7784C215.929 58.0009 216.696 58.3537 217.198 58.8366C217.704 59.3196 217.96 59.9517 217.965 60.733C217.96 61.4195 217.759 62.0256 217.361 62.5511C216.968 63.072 216.421 63.4792 215.72 63.7727C215.02 64.0663 214.215 64.2131 213.306 64.2131C211.97 64.2131 210.896 63.9337 210.081 63.375C209.267 62.8116 208.781 62.0279 208.625 61.0241L211.132 60.7827C211.246 61.2751 211.487 61.6468 211.857 61.8977C212.226 62.1487 212.707 62.2741 213.298 62.2741C213.909 62.2741 214.399 62.1487 214.769 61.8977C215.143 61.6468 215.33 61.3366 215.33 60.9673C215.33 60.6548 215.209 60.3968 214.968 60.1932C214.731 59.9896 214.361 59.8333 213.86 59.7244L211.999 59.3338C210.952 59.116 210.178 58.7491 209.676 58.233C209.174 57.7121 208.926 57.054 208.931 56.2585C208.926 55.5862 209.108 55.0038 209.477 54.5114C209.852 54.0142 210.37 53.6307 211.033 53.3608C211.7 53.0862 212.47 52.9489 213.341 52.9489C214.619 52.9489 215.626 53.2211 216.36 53.7656C217.098 54.3101 217.555 55.0464 217.73 55.9744ZM225.532 53.0909V55.0795H219.261V53.0909H225.532ZM220.809 50.4773H223.38V60.7188C223.38 61.0644 223.432 61.3295 223.536 61.5142C223.645 61.6941 223.787 61.8172 223.963 61.8835C224.138 61.9498 224.332 61.983 224.545 61.983C224.706 61.983 224.853 61.9711 224.985 61.9474C225.123 61.9238 225.227 61.9025 225.298 61.8835L225.731 63.8935C225.594 63.9408 225.397 63.9929 225.142 64.0497C224.891 64.1065 224.583 64.1397 224.218 64.1491C223.574 64.1681 222.994 64.071 222.478 63.858C221.962 63.6402 221.552 63.304 221.249 62.8494C220.951 62.3949 220.804 61.8267 220.809 61.1449V50.4773ZM245.207 54.3622H242.551C242.475 53.9266 242.336 53.5407 242.132 53.2045C241.928 52.8636 241.675 52.5748 241.372 52.3381C241.069 52.1013 240.723 51.9238 240.335 51.8054C239.952 51.6823 239.537 51.6207 239.092 51.6207C238.301 51.6207 237.601 51.8196 236.99 52.2173C236.379 52.6103 235.901 53.188 235.555 53.9503C235.21 54.7079 235.037 55.6335 235.037 56.7273C235.037 57.84 235.21 58.7775 235.555 59.5398C235.906 60.2973 236.384 60.8703 236.99 61.2585C237.601 61.642 238.299 61.8338 239.085 61.8338C239.521 61.8338 239.928 61.777 240.307 61.6634C240.69 61.545 241.033 61.3722 241.336 61.1449C241.644 60.9176 241.902 60.6383 242.111 60.3068C242.324 59.9754 242.47 59.5966 242.551 59.1705L245.207 59.1847C245.108 59.8759 244.892 60.5246 244.561 61.1307C244.234 61.7367 243.806 62.2718 243.275 62.7358C242.745 63.1951 242.125 63.5549 241.415 63.8153C240.704 64.071 239.916 64.1989 239.05 64.1989C237.771 64.1989 236.63 63.9029 235.626 63.3111C234.622 62.7192 233.832 61.8646 233.254 60.7472C232.676 59.6297 232.388 58.2898 232.388 56.7273C232.388 55.16 232.679 53.8201 233.261 52.7074C233.844 51.59 234.637 50.7353 235.64 50.1435C236.644 49.5516 237.781 49.2557 239.05 49.2557C239.859 49.2557 240.612 49.3693 241.308 49.5966C242.004 49.8239 242.624 50.1577 243.169 50.598C243.713 51.0336 244.161 51.5687 244.511 52.2031C244.866 52.8329 245.098 53.5526 245.207 54.3622ZM250.646 64.2202C249.954 64.2202 249.332 64.0971 248.778 63.8509C248.229 63.5999 247.793 63.2306 247.471 62.7429C247.154 62.2552 246.995 61.6539 246.995 60.9389C246.995 60.3234 247.109 59.8144 247.336 59.4119C247.563 59.0095 247.874 58.6875 248.267 58.446C248.66 58.2045 249.102 58.0223 249.595 57.8991C250.092 57.7713 250.606 57.679 251.136 57.6222C251.775 57.5559 252.294 57.4967 252.691 57.4446C253.089 57.3878 253.378 57.3026 253.558 57.1889C253.742 57.0705 253.835 56.8883 253.835 56.642V56.5994C253.835 56.0644 253.676 55.6501 253.359 55.3565C253.042 55.063 252.585 54.9162 251.988 54.9162C251.358 54.9162 250.859 55.0535 250.49 55.3281C250.125 55.6027 249.879 55.9271 249.751 56.3011L247.35 55.9602C247.54 55.2973 247.852 54.7434 248.288 54.2983C248.723 53.8485 249.256 53.5123 249.886 53.2898C250.516 53.0625 251.212 52.9489 251.974 52.9489C252.499 52.9489 253.023 53.0104 253.544 53.1335C254.064 53.2566 254.54 53.4602 254.971 53.7443C255.402 54.0237 255.748 54.4048 256.008 54.8878C256.273 55.3707 256.406 55.9744 256.406 56.6989V64H253.934V62.5014H253.849C253.693 62.8045 253.472 63.0885 253.188 63.3537C252.909 63.6141 252.556 63.8248 252.13 63.9858C251.709 64.142 251.214 64.2202 250.646 64.2202ZM251.313 62.331C251.829 62.331 252.277 62.2292 252.656 62.0256C253.035 61.8172 253.326 61.5426 253.529 61.2017C253.738 60.8608 253.842 60.4891 253.842 60.0866V58.8011C253.761 58.8674 253.624 58.929 253.43 58.9858C253.24 59.0426 253.027 59.0923 252.791 59.1349C252.554 59.1776 252.32 59.2154 252.088 59.2486C251.856 59.2817 251.654 59.3101 251.484 59.3338C251.1 59.3859 250.757 59.4711 250.454 59.5895C250.151 59.7079 249.912 59.8736 249.737 60.0866C249.561 60.295 249.474 60.5649 249.474 60.8963C249.474 61.3698 249.647 61.7273 249.992 61.9688C250.338 62.2102 250.778 62.331 251.313 62.331ZM267.613 55.9744L265.269 56.2301C265.203 55.9934 265.087 55.7708 264.921 55.5625C264.76 55.3542 264.543 55.1861 264.268 55.0582C263.993 54.9304 263.657 54.8665 263.259 54.8665C262.724 54.8665 262.275 54.9825 261.91 55.2145C261.55 55.4465 261.373 55.7472 261.377 56.1165C261.373 56.4337 261.489 56.6918 261.725 56.8906C261.967 57.0895 262.365 57.2528 262.919 57.3807L264.779 57.7784C265.811 58.0009 266.579 58.3537 267.08 58.8366C267.587 59.3196 267.843 59.9517 267.847 60.733C267.843 61.4195 267.642 62.0256 267.244 62.5511C266.851 63.072 266.304 63.4792 265.603 63.7727C264.902 64.0663 264.097 64.2131 263.188 64.2131C261.853 64.2131 260.778 63.9337 259.964 63.375C259.15 62.8116 258.664 62.0279 258.508 61.0241L261.015 60.7827C261.129 61.2751 261.37 61.6468 261.74 61.8977C262.109 62.1487 262.589 62.2741 263.181 62.2741C263.792 62.2741 264.282 62.1487 264.651 61.8977C265.026 61.6468 265.213 61.3366 265.213 60.9673C265.213 60.6548 265.092 60.3968 264.85 60.1932C264.614 59.9896 264.244 59.8333 263.742 59.7244L261.882 59.3338C260.835 59.116 260.061 58.7491 259.559 58.233C259.057 57.7121 258.809 57.054 258.813 56.2585C258.809 55.5862 258.991 55.0038 259.36 54.5114C259.734 54.0142 260.253 53.6307 260.916 53.3608C261.583 53.0862 262.353 52.9489 263.224 52.9489C264.502 52.9489 265.508 53.2211 266.242 53.7656C266.981 54.3101 267.438 55.0464 267.613 55.9744ZM274.797 64.2131C273.703 64.2131 272.759 63.9858 271.963 63.5312C271.173 63.072 270.564 62.4233 270.138 61.5852C269.712 60.7424 269.499 59.7505 269.499 58.6094C269.499 57.4872 269.712 56.5024 270.138 55.6548C270.569 54.8026 271.17 54.1397 271.942 53.6662C272.714 53.188 273.62 52.9489 274.662 52.9489C275.334 52.9489 275.969 53.0578 276.566 53.2756C277.167 53.4886 277.697 53.8201 278.156 54.2699C278.62 54.7197 278.985 55.2926 279.25 55.9886C279.515 56.6799 279.648 57.5038 279.648 58.4602V59.2486H270.706V57.5156H277.183C277.179 57.0232 277.072 56.5852 276.864 56.2017C276.655 55.8134 276.364 55.508 275.99 55.2855C275.621 55.063 275.19 54.9517 274.698 54.9517C274.172 54.9517 273.71 55.0795 273.313 55.3352C272.915 55.5862 272.605 55.9176 272.382 56.3295C272.164 56.7367 272.053 57.1842 272.048 57.6719V59.1847C272.048 59.8191 272.164 60.3636 272.396 60.8182C272.628 61.268 272.953 61.6136 273.369 61.8551C273.786 62.0919 274.274 62.2102 274.833 62.2102C275.207 62.2102 275.545 62.1581 275.848 62.054C276.151 61.9451 276.414 61.7865 276.637 61.5781C276.859 61.3698 277.027 61.1117 277.141 60.804L279.541 61.0739C279.39 61.7083 279.101 62.2623 278.675 62.7358C278.253 63.2045 277.714 63.5691 277.056 63.8295C276.397 64.0852 275.645 64.2131 274.797 64.2131ZM291.827 64H286.898V49.4545H291.926C293.37 49.4545 294.611 49.7457 295.648 50.3281C296.689 50.9058 297.489 51.7367 298.048 52.821C298.607 53.9053 298.886 55.2027 298.886 56.7131C298.886 58.2282 298.604 59.5303 298.041 60.6193C297.482 61.7083 296.675 62.544 295.619 63.1264C294.568 63.7088 293.304 64 291.827 64ZM289.532 61.7202H291.699C292.712 61.7202 293.557 61.5355 294.234 61.1662C294.911 60.7921 295.42 60.2358 295.761 59.4972C296.102 58.7538 296.273 57.8258 296.273 56.7131C296.273 55.6004 296.102 54.6771 295.761 53.9432C295.42 53.2045 294.916 52.6529 294.248 52.2884C293.586 51.919 292.762 51.7344 291.777 51.7344H289.532V61.7202ZM306.106 64.2131C305.012 64.2131 304.067 63.9858 303.272 63.5312C302.481 63.072 301.873 62.4233 301.447 61.5852C301.02 60.7424 300.807 59.7505 300.807 58.6094C300.807 57.4872 301.02 56.5024 301.447 55.6548C301.877 54.8026 302.479 54.1397 303.251 53.6662C304.022 53.188 304.929 52.9489 305.971 52.9489C306.643 52.9489 307.278 53.0578 307.874 53.2756C308.475 53.4886 309.006 53.8201 309.465 54.2699C309.929 54.7197 310.294 55.2926 310.559 55.9886C310.824 56.6799 310.956 57.5038 310.956 58.4602V59.2486H302.015V57.5156H308.492C308.487 57.0232 308.381 56.5852 308.172 56.2017C307.964 55.8134 307.673 55.508 307.299 55.2855C306.93 55.063 306.499 54.9517 306.006 54.9517C305.481 54.9517 305.019 55.0795 304.621 55.3352C304.224 55.5862 303.913 55.9176 303.691 56.3295C303.473 56.7367 303.362 57.1842 303.357 57.6719V59.1847C303.357 59.8191 303.473 60.3636 303.705 60.8182C303.937 61.268 304.261 61.6136 304.678 61.8551C305.095 62.0919 305.582 62.2102 306.141 62.2102C306.515 62.2102 306.854 62.1581 307.157 62.054C307.46 61.9451 307.723 61.7865 307.945 61.5781C308.168 61.3698 308.336 61.1117 308.449 60.804L310.85 61.0739C310.698 61.7083 310.41 62.2623 309.983 62.7358C309.562 63.2045 309.022 63.5691 308.364 63.8295C307.706 64.0852 306.953 64.2131 306.106 64.2131ZM321.754 55.9744L319.41 56.2301C319.344 55.9934 319.228 55.7708 319.062 55.5625C318.901 55.3542 318.683 55.1861 318.409 55.0582C318.134 54.9304 317.798 54.8665 317.4 54.8665C316.865 54.8665 316.415 54.9825 316.051 55.2145C315.691 55.4465 315.513 55.7472 315.518 56.1165C315.513 56.4337 315.629 56.6918 315.866 56.8906C316.107 57.0895 316.505 57.2528 317.059 57.3807L318.92 57.7784C319.952 58.0009 320.719 58.3537 321.221 58.8366C321.728 59.3196 321.983 59.9517 321.988 60.733C321.983 61.4195 321.782 62.0256 321.384 62.5511C320.991 63.072 320.445 63.4792 319.744 63.7727C319.043 64.0663 318.238 64.2131 317.329 64.2131C315.994 64.2131 314.919 63.9337 314.105 63.375C313.29 62.8116 312.805 62.0279 312.649 61.0241L315.156 60.7827C315.269 61.2751 315.511 61.6468 315.88 61.8977C316.249 62.1487 316.73 62.2741 317.322 62.2741C317.933 62.2741 318.423 62.1487 318.792 61.8977C319.166 61.6468 319.353 61.3366 319.353 60.9673C319.353 60.6548 319.232 60.3968 318.991 60.1932C318.754 59.9896 318.385 59.8333 317.883 59.7244L316.022 59.3338C314.976 59.116 314.202 58.7491 313.7 58.233C313.198 57.7121 312.949 57.054 312.954 56.2585C312.949 55.5862 313.132 55.0038 313.501 54.5114C313.875 54.0142 314.393 53.6307 315.056 53.3608C315.724 53.0862 316.493 52.9489 317.365 52.9489C318.643 52.9489 319.649 53.2211 320.383 53.7656C321.122 54.3101 321.579 55.0464 321.754 55.9744ZM324.108 64V53.0909H326.679V64H324.108ZM325.401 51.5426C324.994 51.5426 324.643 51.4077 324.35 51.1378C324.056 50.8632 323.909 50.5341 323.909 50.1506C323.909 49.7623 324.056 49.4332 324.35 49.1634C324.643 48.8887 324.994 48.7514 325.401 48.7514C325.813 48.7514 326.163 48.8887 326.452 49.1634C326.745 49.4332 326.892 49.7623 326.892 50.1506C326.892 50.5341 326.745 50.8632 326.452 51.1378C326.163 51.4077 325.813 51.5426 325.401 51.5426ZM334.067 68.3182C333.144 68.3182 332.351 68.1927 331.688 67.9418C331.025 67.6955 330.492 67.3641 330.09 66.9474C329.688 66.5308 329.408 66.0691 329.252 65.5625L331.567 65.0014C331.671 65.2145 331.823 65.4252 332.022 65.6335C332.221 65.8466 332.488 66.0218 332.824 66.1591C333.165 66.3011 333.594 66.3722 334.11 66.3722C334.839 66.3722 335.443 66.1946 335.921 65.8395C336.399 65.4891 336.638 64.9115 336.638 64.1065V62.0398H336.51C336.378 62.3049 336.184 62.5772 335.928 62.8565C335.677 63.1359 335.343 63.3703 334.927 63.5597C334.515 63.7491 333.996 63.8438 333.371 63.8438C332.533 63.8438 331.773 63.6473 331.091 63.2543C330.414 62.8565 329.875 62.2647 329.472 61.4787C329.074 60.688 328.876 59.6984 328.876 58.5099C328.876 57.312 329.074 56.3011 329.472 55.4773C329.875 54.6487 330.417 54.0213 331.099 53.5952C331.78 53.1643 332.54 52.9489 333.378 52.9489C334.018 52.9489 334.543 53.0578 334.955 53.2756C335.372 53.4886 335.703 53.7467 335.949 54.0497C336.196 54.348 336.383 54.6297 336.51 54.8949H336.653V53.0909H339.188V64.1776C339.188 65.1103 338.965 65.8821 338.52 66.4929C338.075 67.1037 337.467 67.5606 336.695 67.8636C335.923 68.1667 335.047 68.3182 334.067 68.3182ZM334.089 61.8267C334.633 61.8267 335.097 61.6941 335.481 61.429C335.864 61.1638 336.155 60.7827 336.354 60.2855C336.553 59.7884 336.653 59.1918 336.653 58.4957C336.653 57.8092 336.553 57.2079 336.354 56.6918C336.16 56.1757 335.871 55.7756 335.488 55.4915C335.109 55.2027 334.643 55.0582 334.089 55.0582C333.516 55.0582 333.037 55.2074 332.654 55.5057C332.27 55.804 331.982 56.2135 331.787 56.7344C331.593 57.2505 331.496 57.8376 331.496 58.4957C331.496 59.1634 331.593 59.7481 331.787 60.25C331.986 60.7472 332.278 61.1354 332.661 61.4148C333.049 61.6894 333.525 61.8267 334.089 61.8267ZM344.394 57.608V64H341.823V53.0909H344.28V54.9446H344.408C344.659 54.3338 345.059 53.8485 345.608 53.4886C346.162 53.1288 346.847 52.9489 347.661 52.9489C348.414 52.9489 349.07 53.1098 349.628 53.4318C350.192 53.7538 350.627 54.2202 350.935 54.831C351.248 55.4418 351.402 56.1828 351.397 57.054V64H348.826V57.4517C348.826 56.7225 348.636 56.152 348.258 55.7401C347.884 55.3281 347.365 55.1222 346.702 55.1222C346.252 55.1222 345.852 55.2216 345.502 55.4205C345.156 55.6146 344.884 55.8963 344.685 56.2656C344.491 56.6349 344.394 57.0824 344.394 57.608Z" fill="black"/>
<circle cx="59" cy="19" r="19" fill="#0071E3"/>
<path d="M61.4041 11.4545V26H58.7692V14.0185H58.6839L55.282 16.1918V13.777L58.897 11.4545H61.4041Z" fill="white"/>
<path d="M1.29616 52.3636H3.87571L7.33026 60.7955H7.46662L10.9212 52.3636H13.5007V64H11.478V56.0057H11.37L8.15412 63.9659H6.64276L3.42685 55.9886H3.31889V64H1.29616V52.3636ZM18.2166 64.1761C17.6636 64.1761 17.1655 64.0777 16.7223 63.8807C16.2829 63.6799 15.9344 63.3845 15.6768 62.9943C15.4231 62.6042 15.2962 62.1231 15.2962 61.5511C15.2962 61.0587 15.3871 60.6515 15.5689 60.3295C15.7507 60.0076 15.9988 59.75 16.3132 59.5568C16.6276 59.3636 16.9818 59.2178 17.3757 59.1193C17.7734 59.017 18.1844 58.9432 18.6087 58.8977C19.12 58.8447 19.5348 58.7973 19.853 58.7557C20.1712 58.7102 20.4022 58.642 20.5462 58.5511C20.6939 58.4564 20.7678 58.3106 20.7678 58.1136V58.0795C20.7678 57.6515 20.6409 57.3201 20.3871 57.0852C20.1333 56.8504 19.7678 56.733 19.2905 56.733C18.7867 56.733 18.3871 56.8428 18.0916 57.0625C17.8 57.2822 17.603 57.5417 17.5007 57.8409L15.5803 57.5682C15.7318 57.0379 15.9818 56.5947 16.3303 56.2386C16.6787 55.8788 17.1049 55.6098 17.6087 55.4318C18.1125 55.25 18.6693 55.1591 19.2791 55.1591C19.6996 55.1591 20.1181 55.2083 20.5348 55.3068C20.9515 55.4053 21.3321 55.5682 21.6768 55.7955C22.0215 56.0189 22.2981 56.3239 22.5064 56.7102C22.7185 57.0966 22.8246 57.5795 22.8246 58.1591V64H20.8473V62.8011H20.7791C20.6541 63.0436 20.478 63.2708 20.2507 63.483C20.0272 63.6913 19.745 63.8598 19.4041 63.9886C19.067 64.1136 18.6712 64.1761 18.2166 64.1761ZM18.7507 62.6648C19.1636 62.6648 19.5215 62.5833 19.8246 62.4205C20.1276 62.2538 20.3606 62.0341 20.5234 61.7614C20.6901 61.4886 20.7734 61.1913 20.7734 60.8693V59.8409C20.709 59.8939 20.5992 59.9432 20.4439 59.9886C20.2924 60.0341 20.1219 60.0739 19.9325 60.108C19.7431 60.142 19.5556 60.1723 19.37 60.1989C19.1844 60.2254 19.0234 60.2481 18.8871 60.267C18.5803 60.3087 18.3056 60.3769 18.0632 60.4716C17.8208 60.5663 17.6295 60.6989 17.4893 60.8693C17.3492 61.036 17.2791 61.2519 17.2791 61.517C17.2791 61.8958 17.4174 62.1818 17.6939 62.375C17.9704 62.5682 18.3227 62.6648 18.7507 62.6648ZM24.8928 64V55.2727H26.8871V56.7273H26.978C27.1371 56.2235 27.4098 55.8352 27.7962 55.5625C28.1863 55.286 28.6314 55.1477 29.1314 55.1477C29.245 55.1477 29.3719 55.1534 29.5121 55.1648C29.656 55.1723 29.7753 55.1856 29.87 55.2045V57.0966C29.7829 57.0663 29.6446 57.0398 29.4553 57.017C29.2696 56.9905 29.0897 56.9773 28.9155 56.9773C28.5405 56.9773 28.2034 57.0587 27.9041 57.2216C27.6087 57.3807 27.3757 57.6023 27.2053 57.8864C27.0348 58.1705 26.9496 58.4981 26.9496 58.8693V64H24.8928ZM33.1115 61.2614L33.1058 58.7784H33.4354L36.5717 55.2727H38.9751L35.1172 59.5682H34.6911L33.1115 61.2614ZM31.2365 64V52.3636H33.2933V64H31.2365ZM36.7138 64L33.8729 60.0284L35.2592 58.5795L39.174 64H36.7138ZM40.3459 64V55.2727H42.4027V64H40.3459ZM41.38 54.0341C41.0542 54.0341 40.7739 53.9261 40.5391 53.7102C40.3042 53.4905 40.1868 53.2273 40.1868 52.9205C40.1868 52.6098 40.3042 52.3466 40.5391 52.1307C40.7739 51.911 41.0542 51.8011 41.38 51.8011C41.7095 51.8011 41.9898 51.911 42.2209 52.1307C42.4557 52.3466 42.5732 52.6098 42.5732 52.9205C42.5732 53.2273 42.4557 53.4905 42.2209 53.7102C41.9898 53.9261 41.7095 54.0341 41.38 54.0341ZM46.5746 58.8864V64H44.5178V55.2727H46.4837V56.7557H46.5859C46.7867 56.267 47.1068 55.8788 47.5462 55.5909C47.9893 55.303 48.5367 55.1591 49.1882 55.1591C49.7905 55.1591 50.3151 55.2879 50.7621 55.5455C51.2128 55.803 51.5613 56.1761 51.8075 56.6648C52.0575 57.1534 52.1806 57.7462 52.1768 58.4432V64H50.12V58.7614C50.12 58.178 49.9685 57.7216 49.6655 57.392C49.3662 57.0625 48.9515 56.8977 48.4212 56.8977C48.0613 56.8977 47.7412 56.9773 47.4609 57.1364C47.1844 57.2917 46.9666 57.517 46.8075 57.8125C46.6522 58.108 46.5746 58.4659 46.5746 58.8864ZM58.0632 67.4545C57.3246 67.4545 56.6901 67.3542 56.1598 67.1534C55.6295 66.9564 55.2034 66.6913 54.8814 66.358C54.5594 66.0246 54.3359 65.6553 54.2109 65.25L56.0632 64.8011C56.1465 64.9716 56.2678 65.1402 56.4268 65.3068C56.5859 65.4773 56.8 65.6174 57.0689 65.7273C57.3416 65.8409 57.6844 65.8977 58.0973 65.8977C58.6806 65.8977 59.1636 65.7557 59.5462 65.4716C59.9287 65.1913 60.12 64.7292 60.12 64.0852V62.4318H60.0178C59.9117 62.6439 59.7564 62.8617 59.5518 63.0852C59.3511 63.3087 59.084 63.4962 58.7507 63.6477C58.4212 63.7992 58.0064 63.875 57.5064 63.875C56.8359 63.875 56.228 63.7178 55.6825 63.4034C55.1409 63.0852 54.709 62.6117 54.3871 61.983C54.0689 61.3504 53.9098 60.5587 53.9098 59.608C53.9098 58.6496 54.0689 57.8409 54.3871 57.1818C54.709 56.5189 55.1428 56.017 55.6882 55.6761C56.2337 55.3314 56.8416 55.1591 57.5121 55.1591C58.0234 55.1591 58.4439 55.2462 58.7734 55.4205C59.1068 55.5909 59.3719 55.7973 59.5689 56.0398C59.7659 56.2784 59.9155 56.5038 60.0178 56.7159H60.1314V55.2727H62.1598V64.142C62.1598 64.8883 61.9818 65.5057 61.6257 65.9943C61.2696 66.483 60.7829 66.8485 60.1655 67.0909C59.5481 67.3333 58.8473 67.4545 58.0632 67.4545ZM58.0803 62.2614C58.5159 62.2614 58.8871 62.1553 59.1939 61.9432C59.5007 61.7311 59.7337 61.4261 59.8928 61.0284C60.0518 60.6307 60.1314 60.1534 60.1314 59.5966C60.1314 59.0473 60.0518 58.5663 59.8928 58.1534C59.7375 57.7405 59.5064 57.4205 59.1996 57.1932C58.8965 56.9621 58.5234 56.8466 58.0803 56.8466C57.6219 56.8466 57.2393 56.9659 56.9325 57.2045C56.6257 57.4432 56.3946 57.7708 56.2393 58.1875C56.084 58.6004 56.0064 59.0701 56.0064 59.5966C56.0064 60.1307 56.084 60.5985 56.2393 61C56.3984 61.3977 56.6314 61.7083 56.9382 61.9318C57.2488 62.1515 57.6295 62.2614 58.0803 62.2614ZM68.3274 64V52.3636H72.782C73.6229 52.3636 74.3217 52.4962 74.8786 52.7614C75.4392 53.0227 75.8577 53.3807 76.1342 53.8352C76.4145 54.2898 76.5547 54.8049 76.5547 55.3807C76.5547 55.8542 76.4638 56.2595 76.282 56.5966C76.1001 56.9299 75.8558 57.2008 75.549 57.4091C75.2422 57.6174 74.8994 57.767 74.5206 57.858V57.9716C74.9335 57.9943 75.3293 58.1212 75.7081 58.3523C76.0907 58.5795 76.4032 58.9015 76.6456 59.3182C76.888 59.7348 77.0092 60.2386 77.0092 60.8295C77.0092 61.4318 76.8634 61.9735 76.5717 62.4545C76.2801 62.9318 75.8407 63.3087 75.2536 63.5852C74.6664 63.8617 73.9278 64 73.0376 64H68.3274ZM70.4354 62.2386H72.7024C73.4676 62.2386 74.0187 62.0928 74.3558 61.8011C74.6967 61.5057 74.8672 61.1269 74.8672 60.6648C74.8672 60.3201 74.782 60.0095 74.6115 59.733C74.4411 59.4527 74.1986 59.233 73.8842 59.0739C73.5698 58.911 73.1948 58.8295 72.7592 58.8295H70.4354V62.2386ZM70.4354 57.3125H72.5206C72.8842 57.3125 73.2119 57.2462 73.5036 57.1136C73.7952 56.9773 74.0244 56.786 74.1911 56.5398C74.3615 56.2898 74.4467 55.9943 74.4467 55.6534C74.4467 55.2027 74.2876 54.8314 73.9695 54.5398C73.6551 54.2481 73.1873 54.1023 72.5661 54.1023H70.4354V57.3125ZM81.2635 64.1761C80.7105 64.1761 80.2124 64.0777 79.7692 63.8807C79.3298 63.6799 78.9813 63.3845 78.7237 62.9943C78.4699 62.6042 78.343 62.1231 78.343 61.5511C78.343 61.0587 78.4339 60.6515 78.6158 60.3295C78.7976 60.0076 79.0457 59.75 79.3601 59.5568C79.6745 59.3636 80.0286 59.2178 80.4226 59.1193C80.8203 59.017 81.2313 58.9432 81.6555 58.8977C82.1669 58.8447 82.5817 58.7973 82.8999 58.7557C83.218 58.7102 83.4491 58.642 83.593 58.5511C83.7408 58.4564 83.8146 58.3106 83.8146 58.1136V58.0795C83.8146 57.6515 83.6877 57.3201 83.4339 57.0852C83.1802 56.8504 82.8146 56.733 82.3374 56.733C81.8336 56.733 81.4339 56.8428 81.1385 57.0625C80.8468 57.2822 80.6499 57.5417 80.5476 57.8409L78.6271 57.5682C78.7786 57.0379 79.0286 56.5947 79.3771 56.2386C79.7256 55.8788 80.1518 55.6098 80.6555 55.4318C81.1593 55.25 81.7161 55.1591 82.326 55.1591C82.7464 55.1591 83.165 55.2083 83.5817 55.3068C83.9983 55.4053 84.379 55.5682 84.7237 55.7955C85.0684 56.0189 85.3449 56.3239 85.5533 56.7102C85.7654 57.0966 85.8714 57.5795 85.8714 58.1591V64H83.8942V62.8011H83.826C83.701 63.0436 83.5249 63.2708 83.2976 63.483C83.0741 63.6913 82.7919 63.8598 82.451 63.9886C82.1139 64.1136 81.718 64.1761 81.2635 64.1761ZM81.7976 62.6648C82.2105 62.6648 82.5684 62.5833 82.8714 62.4205C83.1745 62.2538 83.4074 62.0341 83.5703 61.7614C83.737 61.4886 83.8203 61.1913 83.8203 60.8693V59.8409C83.7559 59.8939 83.6461 59.9432 83.4908 59.9886C83.3393 60.0341 83.1688 60.0739 82.9794 60.108C82.79 60.142 82.6025 60.1723 82.4169 60.1989C82.2313 60.2254 82.0703 60.2481 81.9339 60.267C81.6271 60.3087 81.3525 60.3769 81.1101 60.4716C80.8677 60.5663 80.6764 60.6989 80.5362 60.8693C80.3961 61.036 80.326 61.2519 80.326 61.517C80.326 61.8958 80.4643 62.1818 80.7408 62.375C81.0173 62.5682 81.3696 62.6648 81.7976 62.6648ZM94.8374 57.5795L92.9624 57.7841C92.9093 57.5947 92.8165 57.4167 92.6839 57.25C92.5552 57.0833 92.3809 56.9489 92.1612 56.8466C91.9415 56.7443 91.6726 56.6932 91.3544 56.6932C90.9264 56.6932 90.5665 56.786 90.2749 56.9716C89.987 57.1572 89.8449 57.3977 89.8487 57.6932C89.8449 57.947 89.9377 58.1534 90.1271 58.3125C90.3203 58.4716 90.6385 58.6023 91.0817 58.7045L92.5703 59.0227C93.3961 59.2008 94.0097 59.483 94.4112 59.8693C94.8165 60.2557 95.0211 60.7614 95.0249 61.3864C95.0211 61.9356 94.8601 62.4205 94.5419 62.8409C94.2275 63.2576 93.79 63.5833 93.2294 63.8182C92.6688 64.053 92.0249 64.1705 91.2976 64.1705C90.2294 64.1705 89.3696 63.947 88.718 63.5C88.0665 63.0492 87.6783 62.4223 87.5533 61.6193L89.5589 61.4261C89.6499 61.8201 89.843 62.1174 90.1385 62.3182C90.4339 62.5189 90.8184 62.6193 91.2919 62.6193C91.7805 62.6193 92.1726 62.5189 92.468 62.3182C92.7673 62.1174 92.9169 61.8693 92.9169 61.5739C92.9169 61.3239 92.8203 61.1174 92.6271 60.9545C92.4377 60.7917 92.1423 60.6667 91.7408 60.5795L90.2521 60.267C89.415 60.0928 88.7957 59.7992 88.3942 59.3864C87.9927 58.9697 87.7938 58.4432 87.7976 57.8068C87.7938 57.2689 87.9396 56.803 88.2351 56.4091C88.5343 56.0114 88.9491 55.7045 89.4794 55.4886C90.0135 55.2689 90.629 55.1591 91.326 55.1591C92.3487 55.1591 93.1536 55.3769 93.7408 55.8125C94.3317 56.2481 94.6972 56.8371 94.8374 57.5795ZM96.7209 64V55.2727H98.7777V64H96.7209ZM97.755 54.0341C97.4292 54.0341 97.1489 53.9261 96.9141 53.7102C96.6792 53.4905 96.5618 53.2273 96.5618 52.9205C96.5618 52.6098 96.6792 52.3466 96.9141 52.1307C97.1489 51.911 97.4292 51.8011 97.755 51.8011C98.0845 51.8011 98.3648 51.911 98.5959 52.1307C98.8307 52.3466 98.9482 52.6098 98.9482 52.9205C98.9482 53.2273 98.8307 53.4905 98.5959 53.7102C98.3648 53.9261 98.0845 54.0341 97.755 54.0341ZM104.7 64.1705C103.828 64.1705 103.08 63.9792 102.455 63.5966C101.834 63.214 101.355 62.6856 101.018 62.0114C100.684 61.3333 100.518 60.553 100.518 59.6705C100.518 58.7841 100.688 58.0019 101.029 57.3239C101.37 56.642 101.851 56.1117 102.472 55.733C103.097 55.3504 103.836 55.1591 104.688 55.1591C105.397 55.1591 106.023 55.2898 106.569 55.5511C107.118 55.8087 107.556 56.1742 107.881 56.6477C108.207 57.1174 108.393 57.6667 108.438 58.2955H106.472C106.393 57.875 106.203 57.5246 105.904 57.2443C105.609 56.9602 105.213 56.8182 104.717 56.8182C104.296 56.8182 103.927 56.9318 103.609 57.1591C103.29 57.3826 103.042 57.7045 102.864 58.125C102.69 58.5455 102.603 59.0492 102.603 59.6364C102.603 60.2311 102.69 60.7424 102.864 61.1705C103.039 61.5947 103.283 61.9223 103.597 62.1534C103.915 62.3807 104.289 62.4943 104.717 62.4943C105.02 62.4943 105.29 62.4375 105.529 62.3239C105.772 62.2064 105.974 62.0379 106.137 61.8182C106.3 61.5985 106.412 61.3314 106.472 61.017H108.438C108.389 61.6345 108.207 62.1818 107.893 62.6591C107.578 63.1326 107.15 63.5038 106.609 63.7727C106.067 64.0379 105.431 64.1705 104.7 64.1705ZM117.025 57.5795L115.15 57.7841C115.097 57.5947 115.004 57.4167 114.871 57.25C114.743 57.0833 114.568 56.9489 114.349 56.8466C114.129 56.7443 113.86 56.6932 113.542 56.6932C113.114 56.6932 112.754 56.786 112.462 56.9716C112.174 57.1572 112.032 57.3977 112.036 57.6932C112.032 57.947 112.125 58.1534 112.315 58.3125C112.508 58.4716 112.826 58.6023 113.269 58.7045L114.758 59.0227C115.584 59.2008 116.197 59.483 116.599 59.8693C117.004 60.2557 117.209 60.7614 117.212 61.3864C117.209 61.9356 117.048 62.4205 116.729 62.8409C116.415 63.2576 115.978 63.5833 115.417 63.8182C114.856 64.053 114.212 64.1705 113.485 64.1705C112.417 64.1705 111.557 63.947 110.906 63.5C110.254 63.0492 109.866 62.4223 109.741 61.6193L111.746 61.4261C111.837 61.8201 112.031 62.1174 112.326 62.3182C112.621 62.5189 113.006 62.6193 113.479 62.6193C113.968 62.6193 114.36 62.5189 114.656 62.3182C114.955 62.1174 115.104 61.8693 115.104 61.5739C115.104 61.3239 115.008 61.1174 114.815 60.9545C114.625 60.7917 114.33 60.6667 113.928 60.5795L112.44 60.267C111.603 60.0928 110.983 59.7992 110.582 59.3864C110.18 58.9697 109.981 58.4432 109.985 57.8068C109.981 57.2689 110.127 56.803 110.423 56.4091C110.722 56.0114 111.137 55.7045 111.667 55.4886C112.201 55.2689 112.817 55.1591 113.513 55.1591C114.536 55.1591 115.341 55.3769 115.928 55.8125C116.519 56.2481 116.885 56.8371 117.025 57.5795Z" fill="#0071E3"/>
</svg>
